<svg width="780" height="593" viewBox="0 0 780 593" fill="none" xmlns="http://www.w3.org/2000/svg">
<path d="M14 2H765.147C771.775 2.0001 777.147 7.37264 777.147 14V578.787C777.147 585.414 771.775 590.787 765.147 590.787H14C7.37275 590.787 2.00026 585.414 2 578.787V14C2 7.47609 7.20608 2.16811 13.6904 2.00391L14 2Z" fill="white" stroke="url(#paint0_linear_46_13)" stroke-width="4"/>
<path d="M487.128 337.01C487.271 336.476 486.955 335.928 486.421 335.785L477.728 333.456C477.195 333.313 476.646 333.629 476.503 334.163C476.36 334.696 476.677 335.245 477.21 335.388L484.938 337.458L482.867 345.186C482.724 345.719 483.041 346.267 483.574 346.41C484.108 346.553 484.656 346.237 484.799 345.703L487.128 337.01ZM413.291 378.823L413.791 379.689L486.663 337.617L486.163 336.751L485.663 335.885L412.791 377.957L413.291 378.823Z" fill="#C6C6C6"/>
<path d="M487.128 270.163C487.271 270.697 486.955 271.245 486.421 271.388L477.728 273.717C477.195 273.86 476.646 273.544 476.503 273.01C476.36 272.477 476.677 271.929 477.21 271.786L484.938 269.715L482.867 261.988C482.724 261.454 483.041 260.906 483.574 260.763C484.108 260.62 484.656 260.937 484.799 261.47L487.128 270.163ZM413.291 228.35L413.791 227.484L486.663 269.556L486.163 270.422L485.663 271.288L412.791 229.216L413.291 228.35Z" fill="#C6C6C6"/>
<path d="M492.506 305.032C492.897 305.423 492.897 306.056 492.506 306.446L486.142 312.81C485.752 313.201 485.119 313.201 484.728 312.81C484.338 312.42 484.338 311.787 484.728 311.396L490.385 305.739L484.728 300.082C484.338 299.692 484.338 299.059 484.728 298.668C485.119 298.278 485.752 298.278 486.142 298.668L492.506 305.032ZM407.654 305.739V304.739H491.799V305.739V306.739H407.654V305.739Z" fill="#C6C6C6"/>
<path d="M604.255 257.707C607.099 259.346 609.833 261.382 612.384 263.748C617.764 268.739 621.726 274.641 624.563 279.992C624.717 273.142 623.813 263.917 619.234 255.987C616.853 251.856 613.472 248.071 609.201 244.734C604.857 241.345 600.227 238.913 596.346 237.237C593.744 236.112 590.775 237.795 590.444 240.618C590.04 244.036 589.819 248.137 590.165 252.481C595.332 253.524 600.058 255.274 604.262 257.707H604.255Z" fill="url(#paint1_linear_46_13)"/>
<path d="M573.076 276.559C578.067 274.884 583.035 274.031 587.901 274.031C591.194 274.031 594.582 274.42 597.963 275.2C605.1 276.831 611.472 279.955 616.61 283.174C614.185 278.735 610.906 273.965 606.607 269.974C604.519 268.041 602.307 266.387 600.014 265.064C595.883 262.675 591.069 261.088 585.703 260.338C580.242 259.573 575.016 259.787 570.82 260.272C568.004 260.602 566.27 263.542 567.394 266.152C568.754 269.312 570.614 272.98 573.083 276.567L573.076 276.559Z" fill="url(#paint2_linear_46_13)"/>
<path d="M610.171 298.374C605.107 298.257 599.338 298.72 593.693 300.454C590.981 301.285 588.445 302.387 586.144 303.71C582.014 306.092 578.228 309.473 574.891 313.743C571.503 318.094 569.07 322.717 567.394 326.598C566.27 329.2 567.953 332.169 570.775 332.5C574.193 332.904 578.294 333.125 582.638 332.779C583.682 327.612 585.431 322.886 587.864 318.682C589.503 315.838 591.539 313.104 593.906 310.553C598.904 305.173 604.806 301.204 610.171 298.367V298.374Z" fill="url(#paint3_linear_46_13)"/>
<path d="M605.357 324.981C606.989 317.837 610.105 311.472 613.317 306.342C608.893 308.767 604.115 312.045 600.131 316.338C598.198 318.425 596.545 320.637 595.222 322.93C592.833 327.061 591.245 331.875 590.496 337.241C589.731 342.702 589.944 347.928 590.429 352.125C590.76 354.94 593.7 356.674 596.309 355.55C599.47 354.19 603.138 352.33 606.724 349.861C605.049 344.87 604.196 339.902 604.196 335.036C604.196 331.743 604.586 328.355 605.365 324.974L605.357 324.981Z" fill="url(#paint4_linear_46_13)"/>
<path d="M648.84 335.08C645.995 333.441 643.261 331.405 640.711 329.038C635.323 324.04 631.362 318.138 628.524 312.773C628.407 317.837 628.87 323.607 630.604 329.251C631.435 331.964 632.538 334.499 633.861 336.8C636.242 340.931 639.623 344.716 643.893 348.053C648.222 351.426 652.86 353.859 656.748 355.535C659.358 356.66 662.32 354.976 662.65 352.154C663.055 348.736 663.268 344.635 662.93 340.306C657.763 339.262 653.037 337.513 648.832 335.08H648.84Z" fill="url(#paint5_linear_46_13)"/>
<path d="M680.019 316.227C675.028 317.903 670.059 318.756 665.194 318.756C661.901 318.756 658.52 318.366 655.131 317.587C647.987 315.955 641.622 312.839 636.492 309.627C638.917 314.052 642.195 318.829 646.488 322.813C648.575 324.746 650.788 326.4 653.081 327.723C657.211 330.111 662.026 331.699 667.391 332.449C672.852 333.213 678.078 333 682.275 332.515C685.09 332.184 686.825 329.244 685.7 326.635C684.34 323.474 682.481 319.807 680.011 316.22L680.019 316.227Z" fill="url(#paint6_linear_46_13)"/>
<path d="M692.903 293.009C690.139 290.951 686.7 288.709 682.767 286.835C679.283 290.789 675.403 294.008 671.191 296.434C668.339 298.08 665.215 299.433 661.901 300.454C658.071 301.63 654.22 302.299 650.515 302.63C640.718 298.308 634.647 288.488 634.823 278.066C637.903 272.282 640.417 265.262 640.417 257.743C640.417 252.966 639.388 248.005 637.352 242.985C635.294 237.898 632.493 233.474 629.958 230.071C628.26 227.792 624.849 227.77 623.151 230.041C621.093 232.805 618.859 236.245 616.985 240.169C620.939 243.653 624.158 247.534 626.584 251.746C630.428 258.405 632.17 265.689 632.773 272.443C630.354 277.926 626.172 282.403 620.777 285.203C616.823 287.232 612.516 288.216 608.194 288.128C604.563 286.195 600.462 284.483 596.059 283.476C593.296 282.844 590.547 282.52 587.893 282.52C583.116 282.52 578.147 283.549 573.135 285.585C568.049 287.643 563.624 290.443 560.221 292.979C557.942 294.677 557.92 298.087 560.191 299.785C562.955 301.843 566.395 304.078 570.32 305.952C573.804 301.998 577.684 298.778 581.896 296.353C584.748 294.706 587.871 293.354 591.186 292.332C595.016 291.156 598.874 290.488 602.579 290.157C608.077 292.575 612.553 296.757 615.353 302.159C617.382 306.106 618.367 310.406 618.278 314.721C616.345 318.351 614.633 322.46 613.618 326.877C612.986 329.641 612.663 332.39 612.663 335.043C612.663 339.821 613.692 344.789 615.728 349.802C617.786 354.888 620.586 359.313 623.122 362.716C624.82 364.995 628.23 365.017 629.928 362.745C631.986 359.982 634.221 356.542 636.095 352.617C632.14 349.133 628.921 345.252 626.496 341.041C624.849 338.189 623.497 335.065 622.475 331.75C621.299 327.921 620.63 324.07 620.3 320.365C622.718 314.868 626.9 310.384 632.302 307.584C636.249 305.555 640.549 304.57 644.863 304.658C648.494 306.591 652.603 308.304 657.013 309.311C659.776 309.943 662.525 310.266 665.179 310.266C669.956 310.266 674.925 309.237 679.938 307.201C685.046 305.129 689.47 302.336 692.859 299.815C695.137 298.117 695.159 294.706 692.888 293.016L692.903 293.009Z" fill="url(#paint7_linear_46_13)"/>
<path d="M642.923 294.42C647.987 294.537 653.757 294.074 659.402 292.34C662.114 291.509 664.65 290.407 666.95 289.084C671.081 286.702 674.866 283.321 678.203 279.051C681.577 274.722 684.009 270.084 685.685 266.196C686.81 263.587 685.127 260.625 682.304 260.294C678.887 259.89 674.785 259.676 670.456 260.014C669.412 265.182 667.663 269.908 665.23 274.112C663.591 276.956 661.555 279.69 659.189 282.241C654.191 287.621 648.288 291.59 642.923 294.427V294.42Z" fill="url(#paint8_linear_46_13)"/>
<path d="M639.718 286.482C644.158 284.056 648.957 280.771 652.97 276.449C654.903 274.362 656.557 272.149 657.88 269.856C660.269 265.725 661.857 260.911 662.606 255.546C663.363 250.114 663.15 244.881 662.658 240.669C662.327 237.832 659.365 236.127 656.741 237.259C653.588 238.619 649.95 240.471 646.377 242.926C648.053 247.916 648.906 252.885 648.906 257.751C648.906 268.937 644.386 279.036 639.718 286.489V286.482Z" fill="url(#paint9_linear_46_13)"/>
<g filter="url(#filter0_d_46_13)">
<path d="M60.9537 407.246C60.9537 399.514 67.2217 393.246 74.9537 393.246H354.435C362.167 393.246 368.435 399.514 368.435 407.246V487.048C368.435 494.78 362.167 501.048 354.435 501.048H74.9537C67.2217 501.048 60.9537 494.78 60.9537 487.048V407.246Z" fill="white"/>
<path d="M74.9537 393.746H354.435C361.891 393.747 367.935 399.791 367.935 407.246V487.048C367.935 494.504 361.891 500.548 354.435 500.548H74.9537C67.4979 500.548 61.4537 494.504 61.4537 487.048V407.246C61.4537 399.79 67.4979 393.746 74.9537 393.746Z" stroke="#E5E7EB"/>
</g>
<path d="M157.091 455.477V438.023H159.204V445.795H168.511V438.023H170.625V455.477H168.511V447.67H159.204V455.477H157.091ZM182.834 450.125V442.386H184.845V455.477H182.834V453.261H182.697C182.391 453.926 181.913 454.491 181.266 454.957C180.618 455.418 179.8 455.648 178.811 455.648C177.993 455.648 177.266 455.469 176.629 455.111C175.993 454.747 175.493 454.202 175.129 453.474C174.766 452.741 174.584 451.818 174.584 450.705V442.386H176.595V450.568C176.595 451.523 176.862 452.284 177.396 452.852C177.936 453.42 178.623 453.705 179.459 453.705C179.959 453.705 180.467 453.577 180.984 453.321C181.507 453.065 181.945 452.673 182.297 452.145C182.655 451.616 182.834 450.943 182.834 450.125ZM188.529 455.477V442.386H190.472V444.432H190.643C190.915 443.733 191.356 443.19 191.964 442.804C192.572 442.412 193.302 442.216 194.154 442.216C195.018 442.216 195.736 442.412 196.31 442.804C196.89 443.19 197.342 443.733 197.665 444.432H197.802C198.137 443.756 198.64 443.219 199.31 442.821C199.981 442.418 200.785 442.216 201.722 442.216C202.893 442.216 203.85 442.582 204.594 443.315C205.339 444.043 205.711 445.176 205.711 446.716V455.477H203.699V446.716C203.699 445.75 203.435 445.06 202.907 444.645C202.378 444.23 201.756 444.023 201.04 444.023C200.12 444.023 199.407 444.301 198.901 444.858C198.395 445.409 198.143 446.108 198.143 446.955V455.477H196.097V446.511C196.097 445.767 195.856 445.168 195.373 444.713C194.89 444.253 194.268 444.023 193.506 444.023C192.984 444.023 192.495 444.162 192.04 444.44C191.592 444.719 191.228 445.105 190.949 445.599C190.677 446.088 190.54 446.653 190.54 447.295V455.477H188.529ZM213.241 455.784C212.411 455.784 211.658 455.628 210.982 455.315C210.306 454.997 209.769 454.54 209.371 453.943C208.974 453.341 208.775 452.614 208.775 451.761C208.775 451.011 208.922 450.403 209.218 449.937C209.513 449.466 209.908 449.097 210.403 448.83C210.897 448.562 211.442 448.364 212.039 448.233C212.641 448.097 213.246 447.989 213.854 447.909C214.65 447.807 215.295 447.73 215.789 447.679C216.289 447.622 216.653 447.528 216.88 447.398C217.113 447.267 217.229 447.04 217.229 446.716V446.648C217.229 445.807 216.999 445.153 216.539 444.687C216.084 444.222 215.394 443.989 214.468 443.989C213.508 443.989 212.755 444.199 212.209 444.619C211.664 445.04 211.28 445.489 211.059 445.966L209.15 445.284C209.491 444.489 209.945 443.869 210.513 443.426C211.087 442.977 211.712 442.665 212.388 442.489C213.07 442.307 213.741 442.216 214.4 442.216C214.82 442.216 215.303 442.267 215.849 442.369C216.4 442.466 216.931 442.668 217.442 442.974C217.959 443.281 218.388 443.744 218.729 444.364C219.07 444.983 219.241 445.812 219.241 446.852V455.477H217.229V453.705H217.127C216.991 453.989 216.763 454.293 216.445 454.616C216.127 454.94 215.704 455.216 215.175 455.443C214.647 455.67 214.002 455.784 213.241 455.784ZM213.547 453.977C214.343 453.977 215.013 453.821 215.559 453.509C216.11 453.196 216.525 452.793 216.803 452.298C217.087 451.804 217.229 451.284 217.229 450.739V448.898C217.144 449 216.957 449.094 216.667 449.179C216.383 449.259 216.053 449.33 215.678 449.392C215.309 449.449 214.948 449.5 214.596 449.545C214.249 449.585 213.968 449.619 213.752 449.648C213.229 449.716 212.741 449.827 212.286 449.98C211.837 450.128 211.474 450.352 211.195 450.653C210.922 450.949 210.786 451.352 210.786 451.864C210.786 452.562 211.045 453.091 211.562 453.449C212.084 453.801 212.746 453.977 213.547 453.977ZM224.923 447.602V455.477H222.912V442.386H224.855V444.432H225.025C225.332 443.767 225.798 443.233 226.423 442.83C227.048 442.42 227.855 442.216 228.844 442.216C229.73 442.216 230.506 442.398 231.17 442.761C231.835 443.119 232.352 443.665 232.721 444.398C233.091 445.125 233.275 446.045 233.275 447.159V455.477H231.264V447.295C231.264 446.267 230.997 445.466 230.463 444.892C229.929 444.312 229.196 444.023 228.264 444.023C227.622 444.023 227.048 444.162 226.543 444.44C226.043 444.719 225.648 445.125 225.358 445.659C225.068 446.193 224.923 446.841 224.923 447.602ZM243.974 455.477V438.023H249.871C251.241 438.023 252.36 438.27 253.229 438.764C254.104 439.253 254.752 439.915 255.172 440.75C255.593 441.585 255.803 442.517 255.803 443.545C255.803 444.574 255.593 445.509 255.172 446.349C254.758 447.19 254.116 447.861 253.246 448.361C252.377 448.855 251.263 449.102 249.905 449.102H245.678V447.227H249.837C250.775 447.227 251.528 447.065 252.096 446.741C252.664 446.418 253.076 445.98 253.332 445.429C253.593 444.872 253.724 444.244 253.724 443.545C253.724 442.847 253.593 442.222 253.332 441.67C253.076 441.119 252.661 440.687 252.087 440.375C251.513 440.057 250.752 439.898 249.803 439.898H246.087V455.477H243.974ZM258.935 455.477V442.386H260.878V444.364H261.015C261.253 443.716 261.685 443.19 262.31 442.787C262.935 442.384 263.64 442.182 264.424 442.182C264.572 442.182 264.756 442.185 264.978 442.19C265.199 442.196 265.367 442.205 265.481 442.216V444.261C265.413 444.244 265.256 444.219 265.012 444.185C264.773 444.145 264.52 444.125 264.253 444.125C263.617 444.125 263.049 444.259 262.549 444.526C262.055 444.787 261.663 445.151 261.373 445.616C261.089 446.077 260.947 446.602 260.947 447.193V455.477H258.935ZM272.785 455.75C271.603 455.75 270.566 455.469 269.674 454.906C268.788 454.344 268.094 453.557 267.594 452.545C267.1 451.534 266.853 450.352 266.853 449C266.853 447.636 267.1 446.446 267.594 445.429C268.094 444.412 268.788 443.622 269.674 443.06C270.566 442.497 271.603 442.216 272.785 442.216C273.967 442.216 275.001 442.497 275.887 443.06C276.779 443.622 277.472 444.412 277.967 445.429C278.467 446.446 278.717 447.636 278.717 449C278.717 450.352 278.467 451.534 277.967 452.545C277.472 453.557 276.779 454.344 275.887 454.906C275.001 455.469 273.967 455.75 272.785 455.75ZM272.785 453.943C273.682 453.943 274.421 453.713 275.001 453.253C275.58 452.793 276.009 452.187 276.288 451.437C276.566 450.687 276.705 449.875 276.705 449C276.705 448.125 276.566 447.31 276.288 446.554C276.009 445.798 275.58 445.187 275.001 444.722C274.421 444.256 273.682 444.023 272.785 444.023C271.887 444.023 271.148 444.256 270.569 444.722C269.989 445.187 269.56 445.798 269.282 446.554C269.003 447.31 268.864 448.125 268.864 449C268.864 449.875 269.003 450.687 269.282 451.437C269.56 452.187 269.989 452.793 270.569 453.253C271.148 453.713 271.887 453.943 272.785 453.943ZM287.616 442.386V444.091H280.56V442.386H287.616ZM282.673 455.477V440.58C282.673 439.83 282.849 439.205 283.202 438.705C283.554 438.205 284.011 437.83 284.574 437.58C285.136 437.33 285.73 437.205 286.355 437.205C286.849 437.205 287.253 437.244 287.565 437.324C287.878 437.403 288.111 437.477 288.264 437.545L287.685 439.284C287.582 439.25 287.44 439.207 287.258 439.156C287.082 439.105 286.849 439.08 286.56 439.08C285.895 439.08 285.415 439.247 285.119 439.582C284.829 439.918 284.685 440.409 284.685 441.057V455.477H282.673ZM290.435 455.477V442.386H292.447V455.477H290.435ZM291.458 440.205C291.066 440.205 290.728 440.071 290.444 439.804C290.165 439.537 290.026 439.216 290.026 438.841C290.026 438.466 290.165 438.145 290.444 437.878C290.728 437.611 291.066 437.477 291.458 437.477C291.85 437.477 292.185 437.611 292.464 437.878C292.748 438.145 292.89 438.466 292.89 438.841C292.89 439.216 292.748 439.537 292.464 439.804C292.185 440.071 291.85 440.205 291.458 440.205ZM298.142 438.023V455.477H296.131V438.023H298.142ZM307.315 455.75C306.053 455.75 304.965 455.472 304.05 454.915C303.141 454.352 302.44 453.568 301.945 452.562C301.457 451.551 301.212 450.375 301.212 449.034C301.212 447.693 301.457 446.511 301.945 445.489C302.44 444.46 303.127 443.659 304.008 443.085C304.894 442.506 305.928 442.216 307.11 442.216C307.792 442.216 308.465 442.33 309.13 442.557C309.795 442.784 310.4 443.153 310.945 443.665C311.491 444.17 311.925 444.841 312.249 445.676C312.573 446.511 312.735 447.54 312.735 448.761V449.614H302.644V447.875H310.69C310.69 447.136 310.542 446.477 310.246 445.898C309.957 445.318 309.542 444.861 309.002 444.526C308.468 444.19 307.837 444.023 307.11 444.023C306.309 444.023 305.616 444.222 305.03 444.619C304.451 445.011 304.005 445.523 303.692 446.153C303.38 446.784 303.224 447.46 303.224 448.182V449.341C303.224 450.33 303.394 451.168 303.735 451.855C304.082 452.537 304.562 453.057 305.175 453.415C305.789 453.767 306.502 453.943 307.315 453.943C307.843 453.943 308.32 453.869 308.746 453.722C309.178 453.568 309.55 453.341 309.863 453.04C310.175 452.733 310.417 452.352 310.587 451.898L312.53 452.443C312.326 453.102 311.982 453.682 311.499 454.182C311.016 454.676 310.42 455.062 309.709 455.341C308.999 455.614 308.201 455.75 307.315 455.75ZM325.067 445.318L323.261 445.83C323.147 445.528 322.979 445.236 322.758 444.952C322.542 444.662 322.246 444.423 321.871 444.236C321.496 444.048 321.016 443.955 320.431 443.955C319.63 443.955 318.962 444.139 318.428 444.509C317.9 444.872 317.636 445.335 317.636 445.898C317.636 446.398 317.817 446.793 318.181 447.082C318.545 447.372 319.113 447.614 319.886 447.807L321.829 448.284C322.999 448.568 323.871 449.003 324.445 449.588C325.019 450.168 325.306 450.915 325.306 451.83C325.306 452.58 325.09 453.25 324.658 453.841C324.232 454.432 323.636 454.898 322.869 455.239C322.101 455.58 321.209 455.75 320.192 455.75C318.857 455.75 317.752 455.46 316.877 454.881C316.002 454.301 315.448 453.455 315.215 452.341L317.124 451.864C317.306 452.568 317.65 453.097 318.155 453.449C318.667 453.801 319.334 453.977 320.158 453.977C321.096 453.977 321.84 453.778 322.391 453.381C322.948 452.977 323.226 452.494 323.226 451.932C323.226 451.477 323.067 451.097 322.749 450.79C322.431 450.477 321.942 450.244 321.283 450.091L319.101 449.58C317.903 449.295 317.022 448.855 316.459 448.259C315.903 447.656 315.624 446.903 315.624 446C315.624 445.261 315.832 444.608 316.246 444.04C316.667 443.472 317.238 443.026 317.959 442.702C318.687 442.378 319.511 442.216 320.431 442.216C321.726 442.216 322.744 442.5 323.482 443.068C324.226 443.636 324.755 444.386 325.067 445.318Z" fill="black"/>
<mask id="mask0_46_13" style="mask-type:luminance" maskUnits="userSpaceOnUse" x="99" y="427" width="40" height="40">
<path d="M99.5131 427.653H138.502V466.642H99.5131V427.653Z" fill="white"/>
</mask>
<g mask="url(#mask0_46_13)">
<path d="M119.008 448.67C115.649 448.67 112.916 445.937 112.916 442.578C112.916 439.219 115.649 436.486 119.008 436.486C122.367 436.486 125.1 439.219 125.1 442.578C125.1 445.937 122.367 448.67 119.008 448.67Z" stroke="black" stroke-width="2" stroke-miterlimit="10" stroke-linecap="round" stroke-linejoin="round"/>
<path d="M107.635 462.071C107.635 462.061 107.636 462.051 107.638 462.041C108.19 456.247 113.069 451.716 119.008 451.716C124.946 451.716 129.825 456.247 130.378 462.04" stroke="black" stroke-width="2" stroke-miterlimit="10" stroke-linecap="round" stroke-linejoin="round"/>
<path d="M133.781 434.659C133.781 435.079 133.44 435.42 133.019 435.42C132.599 435.42 132.258 435.079 132.258 434.659C132.258 434.238 132.599 433.897 133.019 433.897C133.44 433.897 133.781 434.238 133.781 434.659Z" fill="black"/>
<path d="M135.031 437.431C136.751 440.263 137.741 443.588 137.741 447.147C137.741 453.223 134.855 458.619 130.378 462.04V462.041C127.227 464.45 123.286 465.88 119.008 465.88C114.73 465.88 110.789 464.45 107.638 462.041C103.161 458.62 100.275 453.224 100.275 447.147C100.275 436.794 108.653 428.414 119.008 428.414C123.338 428.414 127.324 429.88 130.495 432.343" stroke="black" stroke-width="2" stroke-miterlimit="10" stroke-linecap="round" stroke-linejoin="round"/>
</g>
<g filter="url(#filter1_d_46_13)">
<rect x="60.9537" y="60.1812" width="308.385" height="280" rx="14" fill="white"/>
<rect x="62.9537" y="62.1812" width="304.385" height="276" rx="12" stroke="url(#paint10_linear_46_13)" stroke-width="4"/>
</g>
<path d="M186.332 126.095H194.888C195.039 126.095 195.184 126.035 195.291 125.928C195.398 125.821 195.458 125.676 195.458 125.525C195.458 125.373 195.398 125.228 195.291 125.121C195.184 125.014 195.039 124.954 194.888 124.954H186.332C186.181 124.954 186.036 125.014 185.929 125.121C185.822 125.228 185.762 125.373 185.762 125.525C185.762 125.676 185.822 125.821 185.929 125.928C186.036 126.035 186.181 126.095 186.332 126.095Z" fill="black"/>
<path d="M196.639 130.088C196.639 129.936 196.579 129.791 196.472 129.684C196.365 129.577 196.22 129.517 196.068 129.517H186.332C186.181 129.517 186.036 129.577 185.929 129.684C185.822 129.791 185.762 129.936 185.762 130.088C185.762 130.239 185.822 130.384 185.929 130.491C186.036 130.598 186.181 130.658 186.332 130.658H196.068C196.22 130.658 196.365 130.598 196.472 130.491C196.579 130.384 196.639 130.239 196.639 130.088Z" fill="black"/>
<path d="M192.082 134.08H186.332C186.181 134.08 186.036 134.14 185.929 134.247C185.822 134.354 185.762 134.499 185.762 134.651C185.762 134.802 185.822 134.947 185.929 135.054C186.036 135.161 186.181 135.221 186.332 135.221H192.082C192.233 135.221 192.378 135.161 192.485 135.054C192.592 134.947 192.652 134.802 192.652 134.651C192.652 134.499 192.592 134.354 192.485 134.247C192.378 134.14 192.233 134.08 192.082 134.08Z" fill="black"/>
<path d="M186.332 139.784H191.557C191.707 139.783 191.851 139.722 191.957 139.615C192.064 139.509 192.123 139.364 192.123 139.213C192.123 139.063 192.064 138.918 191.957 138.812C191.851 138.705 191.707 138.644 191.557 138.643H186.332C186.257 138.643 186.182 138.657 186.112 138.685C186.043 138.714 185.979 138.756 185.926 138.809C185.873 138.862 185.83 138.925 185.801 138.994C185.772 139.064 185.758 139.138 185.758 139.213C185.758 139.289 185.772 139.363 185.801 139.433C185.83 139.502 185.873 139.565 185.926 139.618C185.979 139.671 186.043 139.713 186.112 139.742C186.182 139.77 186.257 139.784 186.332 139.784Z" fill="black"/>
<path d="M186.332 144.347H193.644C193.719 144.347 193.794 144.333 193.864 144.305C193.933 144.276 193.997 144.234 194.05 144.181C194.103 144.128 194.146 144.065 194.175 143.996C194.204 143.926 194.219 143.852 194.219 143.777C194.219 143.701 194.204 143.627 194.175 143.557C194.146 143.488 194.103 143.425 194.05 143.372C193.997 143.319 193.933 143.277 193.864 143.248C193.794 143.22 193.719 143.206 193.644 143.206H186.332C186.257 143.206 186.182 143.22 186.112 143.248C186.043 143.277 185.979 143.319 185.926 143.372C185.873 143.425 185.83 143.488 185.801 143.557C185.772 143.627 185.758 143.701 185.758 143.777C185.758 143.852 185.772 143.926 185.801 143.996C185.83 144.065 185.873 144.128 185.926 144.181C185.979 144.234 186.043 144.276 186.112 144.305C186.182 144.333 186.257 144.347 186.332 144.347Z" fill="black"/>
<path d="M204.498 146.832C204.198 147.071 203.826 147.2 203.443 147.199H186.332C185.878 147.198 185.443 147.018 185.123 146.697C184.802 146.376 184.621 145.941 184.621 145.488V119.25C184.621 118.797 184.802 118.362 185.123 118.041C185.443 117.72 185.878 117.54 186.332 117.539H197.169C197.472 117.54 197.761 117.66 197.975 117.874C198.189 118.088 198.309 118.378 198.31 118.68V121.532C198.311 122.288 198.612 123.013 199.146 123.548C199.681 124.082 200.406 124.383 201.162 124.384H204.014C204.316 124.384 204.606 124.505 204.82 124.719C205.034 124.932 205.154 125.222 205.154 125.525V130.675C205.154 130.75 205.168 130.825 205.197 130.894C205.225 130.964 205.267 131.028 205.32 131.081C205.373 131.134 205.436 131.177 205.506 131.206C205.575 131.235 205.65 131.249 205.725 131.249C205.8 131.249 205.875 131.235 205.944 131.206C206.014 131.177 206.077 131.134 206.13 131.081C206.183 131.028 206.225 130.964 206.253 130.894C206.281 130.825 206.296 130.75 206.295 130.675V125.525C206.296 125.225 206.237 124.928 206.122 124.651C206.007 124.374 205.839 124.123 205.626 123.912L198.782 117.067C198.571 116.855 198.319 116.686 198.043 116.571C197.766 116.457 197.469 116.398 197.169 116.399H186.332C185.576 116.399 184.851 116.7 184.317 117.235C183.782 117.769 183.481 118.494 183.48 119.25V145.488C183.481 146.244 183.782 146.969 184.317 147.503C184.851 148.038 185.576 148.339 186.332 148.34H203.443C204.084 148.339 204.705 148.122 205.207 147.725C205.265 147.679 205.314 147.621 205.351 147.555C205.387 147.49 205.41 147.418 205.419 147.344C205.427 147.269 205.421 147.194 205.401 147.122C205.38 147.05 205.346 146.983 205.299 146.924C205.252 146.865 205.195 146.816 205.129 146.78C205.064 146.744 204.992 146.72 204.917 146.712C204.843 146.703 204.768 146.709 204.696 146.73C204.624 146.751 204.556 146.785 204.498 146.832ZM199.451 119.35L203.344 123.243H201.162C200.708 123.243 200.273 123.062 199.952 122.741C199.632 122.421 199.451 121.986 199.451 121.532V119.35Z" fill="black"/>
<path d="M210.333 145.288C210.333 145.288 207.584 142.539 206.672 141.626C207.346 140.507 207.703 139.226 207.704 137.919C207.703 136.482 207.277 135.078 206.479 133.884C205.68 132.69 204.546 131.76 203.219 131.21C201.891 130.661 200.431 130.517 199.022 130.798C197.614 131.078 196.32 131.77 195.304 132.785C194.288 133.801 193.597 135.095 193.316 136.504C193.036 137.913 193.179 139.373 193.729 140.7C194.278 142.027 195.209 143.162 196.403 143.96C197.597 144.758 199.001 145.185 200.437 145.185C201.744 145.185 203.026 144.828 204.145 144.153L207.807 147.815C207.972 147.981 208.169 148.113 208.386 148.203C208.603 148.294 208.836 148.34 209.071 148.34C209.306 148.34 209.538 148.294 209.755 148.205C209.972 148.115 210.169 147.983 210.336 147.817C210.502 147.651 210.633 147.454 210.723 147.237C210.813 147.02 210.859 146.787 210.859 146.552C210.859 146.317 210.812 146.085 210.722 145.868C210.632 145.651 210.5 145.454 210.333 145.288ZM200.437 144.045C199.227 144.044 198.043 143.685 197.037 143.012C196.03 142.339 195.246 141.382 194.783 140.263C194.32 139.145 194.199 137.914 194.435 136.726C194.671 135.539 195.254 134.448 196.111 133.592C196.967 132.736 198.058 132.153 199.245 131.916C200.432 131.68 201.663 131.801 202.782 132.264C203.901 132.727 204.857 133.512 205.53 134.518C206.203 135.525 206.563 136.708 206.563 137.919C206.562 139.543 205.917 141.101 204.768 142.249C203.619 143.398 202.062 144.044 200.437 144.045ZM209.529 147.011C209.407 147.131 209.242 147.199 209.07 147.199C208.898 147.199 208.733 147.131 208.611 147.011C208.611 147.011 206.061 144.455 205.092 143.491C205.423 143.211 205.73 142.904 206.01 142.573C206.7 143.269 209.529 146.092 209.529 146.092C209.65 146.215 209.717 146.38 209.717 146.551C209.717 146.723 209.65 146.888 209.529 147.011Z" fill="black"/>
<path d="M201.34 140.84H201.055V136.847C201.055 136.772 201.04 136.698 201.011 136.629C200.983 136.56 200.941 136.497 200.888 136.444C200.835 136.391 200.772 136.349 200.703 136.32C200.633 136.292 200.559 136.277 200.484 136.277H199.629C199.553 136.276 199.479 136.291 199.409 136.319C199.339 136.348 199.276 136.39 199.223 136.443C199.169 136.496 199.127 136.559 199.098 136.628C199.069 136.698 199.054 136.772 199.054 136.847C199.054 136.923 199.069 136.997 199.098 137.067C199.127 137.136 199.169 137.199 199.223 137.252C199.276 137.305 199.339 137.347 199.409 137.375C199.479 137.404 199.553 137.418 199.629 137.418H199.914V140.84H199.629C199.553 140.839 199.479 140.854 199.409 140.882C199.339 140.911 199.276 140.953 199.223 141.006C199.169 141.059 199.127 141.122 199.098 141.191C199.069 141.261 199.054 141.335 199.054 141.41C199.054 141.486 199.069 141.56 199.098 141.63C199.127 141.699 199.169 141.762 199.223 141.815C199.276 141.868 199.339 141.91 199.409 141.938C199.479 141.967 199.553 141.981 199.629 141.981H201.34C201.49 141.98 201.634 141.919 201.74 141.812C201.847 141.705 201.906 141.561 201.906 141.41C201.906 141.26 201.847 141.115 201.74 141.008C201.634 140.902 201.49 140.841 201.34 140.84Z" fill="black"/>
<path d="M200.483 135.278C200.877 135.278 201.196 134.959 201.196 134.565C201.196 134.171 200.877 133.852 200.483 133.852C200.089 133.852 199.77 134.171 199.77 134.565C199.77 134.959 200.089 135.278 200.483 135.278Z" fill="black"/>
<path fill-rule="evenodd" clip-rule="evenodd" d="M272.382 105.011L272.921 105.322C273.172 105.467 273.258 105.789 273.113 106.04C272.968 106.291 272.646 106.377 272.395 106.232L270.754 105.285C270.503 105.14 270.417 104.818 270.562 104.567L271.509 102.926C271.654 102.675 271.976 102.588 272.227 102.733C272.478 102.878 272.564 103.2 272.419 103.451C272.419 103.451 272.266 103.716 272.105 103.996C275.056 102.997 277.182 100.203 277.182 96.9173C277.182 93.2789 274.575 90.2442 271.129 89.5812C270.844 89.5264 270.657 89.2508 270.712 88.966C270.767 88.6812 271.043 88.4945 271.327 88.5493C275.259 89.3056 278.232 92.7668 278.232 96.9173C278.232 100.688 275.778 103.889 272.382 105.011ZM267.923 89.6623C264.662 90.4644 262.24 93.4104 262.24 96.9173C262.24 100.556 264.847 103.59 268.293 104.253C268.578 104.308 268.765 104.584 268.71 104.869C268.655 105.153 268.379 105.34 268.095 105.285C264.163 104.529 261.189 101.068 261.189 96.9173C261.189 92.9461 263.912 89.6059 267.591 88.6623L267.086 88.3712C266.835 88.2263 266.749 87.9046 266.894 87.6535C267.039 87.4023 267.361 87.3162 267.612 87.4612L269.253 88.4088C269.505 88.5539 269.591 88.8752 269.445 89.1266L268.498 90.7679C268.353 91.019 268.031 91.1052 267.78 90.9602C267.529 90.8152 267.443 90.4936 267.588 90.2425C267.588 90.2425 267.754 89.9545 267.923 89.6623ZM247.97 109.76C247.992 109.788 248.029 109.833 248.06 109.86C248.171 109.958 248.318 110.044 248.476 110.112C248.648 110.187 248.833 110.239 249.004 110.253C249.236 110.271 249.428 110.44 249.477 110.667C249.525 110.895 249.418 111.127 249.213 111.238C248.905 111.405 248.599 111.608 248.387 111.829C248.33 111.889 248.28 111.95 248.244 112.012C248.224 112.046 248.2 112.077 248.205 112.111C248.21 112.153 248.253 112.178 248.298 112.213C248.724 112.529 249.09 113.105 249.105 114.749C249.105 114.759 249.105 114.769 249.104 114.779C249.096 114.958 249.21 115.056 249.403 115.111C249.824 115.231 250.463 115.199 251.321 115.051C252.936 114.688 254.214 114.84 255.163 115.443C256.122 116.052 256.772 117.136 257.056 118.727C257.107 119.013 256.916 119.286 256.631 119.337C256.345 119.388 256.072 119.198 256.021 118.912C255.8 117.675 255.345 116.804 254.599 116.329C253.846 115.85 252.824 115.788 251.541 116.079C251.532 116.081 251.523 116.082 251.515 116.084C250.44 116.27 249.64 116.271 249.115 116.121C248.753 116.018 248.494 115.844 248.321 115.624C248.137 115.391 248.04 115.1 248.054 114.745C248.048 114.142 248 113.729 247.908 113.438C247.847 113.248 247.773 113.131 247.67 113.055C247.667 113.053 247.664 113.051 247.661 113.048C247.32 112.785 247.183 112.49 247.158 112.202C247.134 111.925 247.221 111.635 247.416 111.358C247.515 111.217 247.647 111.076 247.799 110.941C247.518 110.785 247.277 110.594 247.129 110.395C246.901 110.089 246.847 109.761 246.963 109.46C247.044 109.177 247.091 108.943 247.104 108.748C247.121 108.485 247.056 108.336 246.882 108.244C246.224 107.92 245.857 107.52 245.722 107.108C245.574 106.655 245.666 106.14 246.099 105.587C246.108 105.576 246.117 105.565 246.127 105.555C246.778 104.847 247.296 104.132 247.675 103.4C247.676 103.4 247.676 103.399 247.676 103.399C247.997 102.787 248.113 102.178 248.044 101.49C248.005 101.106 247.987 100.718 247.987 100.322C247.987 93.9329 253.163 88.7523 259.552 88.7523C260.81 88.7523 262.021 88.9529 263.154 89.3238C263.43 89.414 263.58 89.711 263.49 89.9865C263.4 90.2622 263.103 90.4127 262.827 90.3225C261.797 89.9853 260.696 89.8031 259.552 89.8031C253.744 89.8031 249.038 94.5133 249.038 100.322C249.038 100.682 249.054 101.035 249.09 101.383C249.09 101.384 249.09 101.384 249.09 101.385C249.18 102.287 249.028 103.084 248.608 103.885C248.191 104.688 247.627 105.474 246.914 106.251C246.76 106.45 246.667 106.617 246.72 106.781C246.788 106.989 247.018 107.141 247.351 107.304C247.354 107.306 247.357 107.307 247.36 107.309C247.599 107.432 247.783 107.588 247.916 107.785C248.173 108.164 248.259 108.753 247.97 109.76ZM268.217 106.29C268.382 106.051 268.709 105.991 268.948 106.155C269.187 106.32 269.247 106.647 269.082 106.886C268.864 107.202 268.631 107.507 268.383 107.8L268.382 107.801C267.924 108.34 267.672 108.922 267.596 109.625L267.596 109.626C267.306 112.257 268.025 115.329 269.628 118.588C269.756 118.848 269.649 119.163 269.389 119.291C269.128 119.419 268.813 119.312 268.685 119.052C266.98 115.585 266.243 112.31 266.551 109.512C266.651 108.59 266.98 107.827 267.582 107.12C267.807 106.854 268.019 106.577 268.217 106.29ZM263.328 96.5264C265.597 94.4894 267.801 93.512 269.921 93.5209C272.056 93.5299 274.127 94.5336 276.116 96.5482C276.319 96.7528 276.319 97.0819 276.116 97.2865C274.127 99.3011 272.056 100.305 269.921 100.314C267.801 100.323 265.597 99.3453 263.328 97.3083C263.217 97.2087 263.154 97.0665 263.154 96.9173C263.154 96.7682 263.217 96.626 263.328 96.5264ZM267.876 94.9116C266.766 95.2812 265.636 95.9511 264.481 96.9173C265.636 97.8835 266.766 98.5535 267.876 98.9231C267.333 98.4258 266.992 97.711 266.992 96.9173C266.992 96.1237 267.333 95.4089 267.876 94.9116ZM271.368 99.0726C272.605 98.7513 273.81 98.0261 274.99 96.9173C273.81 95.8085 272.605 95.0834 271.368 94.7621C272.014 95.2595 272.43 96.0402 272.43 96.9173C272.43 97.7945 272.014 98.5752 271.368 99.0726ZM269.711 95.249C268.79 95.249 268.043 95.9966 268.043 96.9173C268.043 97.8381 268.79 98.5856 269.711 98.5856C270.632 98.5856 271.379 97.8381 271.379 96.9173C271.379 95.9966 270.632 95.249 269.711 95.249Z" fill="black"/>
<path d="M311.624 235.872L309.55 237.947C309.243 238.254 309.243 238.755 309.55 239.062L309.747 239.259L312.629 242.141L312.827 242.338C313.133 242.645 313.635 242.645 313.941 242.338L316.016 240.264" stroke="black" stroke-width="1.05052" stroke-miterlimit="10" stroke-linecap="round" stroke-linejoin="round"/>
<path d="M309.922 228.382C310.169 225.534 311.384 222.752 313.566 220.57C318.479 215.657 326.435 215.648 331.337 220.551C336.24 225.453 336.231 233.409 331.318 238.322C326.405 243.235 318.448 243.244 313.546 238.342C311.405 236.202 310.201 233.479 309.933 230.681" stroke="black" stroke-width="1.05052" stroke-miterlimit="10" stroke-linecap="round" stroke-linejoin="round"/>
<path d="M330.256 223.258C333.353 227.163 333.091 232.862 329.474 236.478C325.582 240.371 319.278 240.378 315.394 236.494C311.511 232.61 311.517 226.307 315.41 222.414C319.027 218.798 324.725 218.536 328.63 221.632" stroke="black" stroke-width="1.05052" stroke-miterlimit="10" stroke-linecap="round" stroke-linejoin="round"/>
<path d="M327.293 224.407C328.594 227.349 328.085 230.897 325.767 233.375" stroke="black" stroke-width="1.05052" stroke-miterlimit="10" stroke-linecap="round" stroke-linejoin="round"/>
<path d="M324.117 232.121C326.536 229.703 326.54 225.792 324.126 223.379C324.008 223.261 323.886 223.148 323.761 223.041" stroke="black" stroke-width="1.05052" stroke-miterlimit="10" stroke-linecap="round" stroke-linejoin="round"/>
<path d="M316.84 224.844C318.452 223.232 321.059 223.229 322.668 224.838C324.277 226.447 324.274 229.053 322.661 230.666" stroke="black" stroke-width="1.05052" stroke-miterlimit="10" stroke-linecap="round" stroke-linejoin="round"/>
<path d="M321.206 229.21C322.012 228.404 322.014 227.101 321.209 226.296C320.405 225.492 319.101 225.493 318.295 226.3" stroke="black" stroke-width="1.05052" stroke-miterlimit="10" stroke-linecap="round" stroke-linejoin="round"/>
<path d="M318.295 226.3C315.876 228.718 315.872 232.628 318.285 235.042C320.699 237.455 324.609 237.451 327.028 235.032" stroke="black" stroke-width="1.05052" stroke-miterlimit="10" stroke-linecap="round" stroke-linejoin="round"/>
<path d="M323.83 234.617C322.428 235.034 320.85 234.689 319.744 233.583C318.135 231.974 318.138 229.367 319.75 227.755" stroke="black" stroke-width="1.05052" stroke-miterlimit="10" stroke-linecap="round" stroke-linejoin="round"/>
<path d="M321.206 229.21C320.4 230.017 320.398 231.32 321.203 232.125C322.007 232.929 323.31 232.928 324.117 232.121" stroke="black" stroke-width="1.05052" stroke-miterlimit="10" stroke-linecap="round" stroke-linejoin="round"/>
<path d="M308.33 247.847L307.244 248.933C306.496 249.681 305.322 249.731 304.635 249.044L302.845 247.253C302.157 246.566 302.207 245.392 302.955 244.644L304.041 243.558L308.33 247.847Z" stroke="black" stroke-width="1.05052" stroke-miterlimit="10" stroke-linecap="round" stroke-linejoin="round"/>
<path d="M309.851 244.919L307.626 247.143" stroke="black" stroke-width="1.05052" stroke-miterlimit="10" stroke-linecap="round" stroke-linejoin="round"/>
<path d="M312.629 242.141L311.477 243.293" stroke="black" stroke-width="1.05052" stroke-miterlimit="10" stroke-linecap="round" stroke-linejoin="round"/>
<path d="M304.745 244.262L309.747 239.259" stroke="black" stroke-width="1.05052" stroke-miterlimit="10" stroke-linecap="round" stroke-linejoin="round"/>
<path d="M309.784 242.105L307.553 244.336" stroke="black" stroke-width="1.05052" stroke-miterlimit="10" stroke-linecap="round" stroke-linejoin="round"/>
<circle cx="328.312" cy="233.367" r="0.492681" fill="black"/>
<circle cx="329.257" cy="231.755" r="0.492681" fill="black"/>
<circle cx="322.086" cy="222.139" r="0.492681" fill="black"/>
<mask id="mask1_46_13" style="mask-type:luminance" maskUnits="userSpaceOnUse" x="83" y="121" width="31" height="31">
<path d="M83.3062 121.28H113.56V151.533H83.3062V121.28Z" fill="white"/>
</mask>
<g mask="url(#mask1_46_13)">
<path d="M98.433 137.588C95.8265 137.588 93.7058 135.468 93.7058 132.861C93.7058 130.255 95.8265 128.134 98.433 128.134C101.039 128.134 103.16 130.255 103.16 132.861C103.16 135.468 101.039 137.588 98.433 137.588Z" stroke="black" stroke-width="1.55191" stroke-miterlimit="10" stroke-linecap="round" stroke-linejoin="round"/>
<path d="M89.608 147.986C89.6086 147.979 89.6092 147.971 89.6104 147.963C90.0388 143.468 93.8252 139.952 98.4331 139.952C103.041 139.952 106.827 143.467 107.256 147.963" stroke="black" stroke-width="1.55191" stroke-miterlimit="10" stroke-linecap="round" stroke-linejoin="round"/>
<path d="M109.896 126.716C109.896 127.042 109.632 127.307 109.305 127.307C108.979 127.307 108.715 127.042 108.715 126.716C108.715 126.389 108.979 126.125 109.305 126.125C109.632 126.125 109.896 126.389 109.896 126.716Z" fill="black"/>
<path d="M110.867 128.867C112.201 131.065 112.969 133.645 112.969 136.406C112.969 141.121 110.73 145.308 107.256 147.963V147.963C104.811 149.833 101.753 150.942 98.433 150.942C95.114 150.942 92.0561 149.833 89.6104 147.963C86.1365 145.309 83.897 141.122 83.897 136.406C83.897 128.373 90.398 121.87 98.433 121.87C101.794 121.87 104.886 123.008 107.347 124.919" stroke="black" stroke-width="1.55191" stroke-miterlimit="10" stroke-linecap="round" stroke-linejoin="round"/>
</g>
<path d="M269.216 156.679C269.321 156.833 269.496 156.925 269.682 156.925C269.869 156.925 270.043 156.833 270.148 156.679L276.329 147.609L276.537 147.304C277.963 145.217 279.195 143.416 279.195 140.385C279.195 135.14 274.927 130.873 269.682 130.873C264.437 130.873 260.17 135.14 260.17 140.386C260.17 143.403 261.339 145.119 262.82 147.292L269.216 156.679ZM269.682 132.001C274.305 132.001 278.066 135.762 278.066 140.386C278.066 143.067 277.034 144.577 275.605 146.667L275.396 146.973L269.682 155.359L263.77 146.683L263.753 146.657C262.328 144.566 261.298 143.055 261.298 140.386C261.298 135.762 265.059 132.001 269.682 132.001Z" fill="black"/>
<path d="M269.682 144.106C271.734 144.106 273.403 142.437 273.403 140.385C273.403 138.334 271.734 136.665 269.682 136.665C267.631 136.665 265.961 138.334 265.961 140.386C265.961 142.437 267.631 144.106 269.682 144.106ZM269.682 137.793C271.112 137.793 272.275 138.956 272.275 140.386C272.275 141.815 271.112 142.978 269.682 142.978C268.253 142.978 267.09 141.815 267.09 140.386C267.09 138.956 268.253 137.793 269.682 137.793Z" fill="black"/>
<path d="M280.54 154.102C279.455 153.636 277.914 153.245 276.084 152.971C275.776 152.925 275.489 153.138 275.443 153.446C275.397 153.754 275.609 154.041 275.917 154.087C277.653 154.347 279.098 154.71 280.095 155.139C281.053 155.551 281.393 155.938 281.393 156.144C281.393 156.428 280.732 157.13 278.226 157.752C275.951 158.317 272.917 158.629 269.682 158.629C266.448 158.629 263.414 158.317 261.139 157.752C258.633 157.13 257.971 156.428 257.971 156.144C257.971 155.937 258.311 155.55 259.27 155.139C260.267 154.71 261.712 154.346 263.448 154.087C263.756 154.041 263.968 153.754 263.922 153.446C263.876 153.138 263.59 152.925 263.281 152.971C261.451 153.245 259.91 153.636 258.825 154.102C257.51 154.667 256.843 155.354 256.843 156.144C256.843 157.274 258.197 158.184 260.867 158.847C263.228 159.434 266.359 159.757 269.682 159.757C273.006 159.757 276.136 159.434 278.498 158.847C281.168 158.184 282.522 157.275 282.522 156.144C282.522 155.354 281.855 154.667 280.54 154.102Z" fill="black"/>
<g filter="url(#filter2_d_46_13)">
<path d="M95.3531 267.681C95.3531 264.549 97.8922 262.01 101.024 262.01H150.996C154.128 262.01 156.667 264.549 156.667 267.681V283.027C156.667 286.16 154.128 288.699 150.996 288.699H101.024C97.8922 288.699 95.3531 286.16 95.3531 283.027V267.681Z" fill="white"/>
<path d="M101.024 262.212H150.996C154.016 262.212 156.464 264.661 156.464 267.681V283.028C156.464 286.048 154.016 288.496 150.996 288.496H101.024C98.004 288.496 95.5554 286.048 95.5553 283.028V267.681C95.5555 264.661 98.004 262.212 101.024 262.212Z" stroke="#E5E7EB" stroke-width="0.405088"/>
</g>
<g filter="url(#filter3_d_46_13)">
<path d="M256.634 267.681C256.634 264.549 259.173 262.01 262.306 262.01H312.277C315.409 262.01 317.948 264.549 317.948 267.681V283.027C317.948 286.16 315.409 288.699 312.277 288.699H262.306C259.173 288.699 256.634 286.16 256.634 283.027V267.681Z" fill="white"/>
<path d="M262.305 262.212H312.277C315.297 262.212 317.746 264.661 317.746 267.681V283.028C317.746 286.048 315.297 288.496 312.277 288.496H262.305C259.285 288.496 256.837 286.048 256.837 283.028V267.681C256.837 264.661 259.285 262.212 262.305 262.212Z" stroke="#E5E7EB" stroke-width="0.405088"/>
</g>
<g filter="url(#filter4_d_46_13)">
<path d="M159.633 267.681C159.633 264.549 162.172 262.01 165.304 262.01H247.997C251.129 262.01 253.668 264.549 253.668 267.681V283.027C253.668 286.16 251.129 288.699 247.997 288.699H165.304C162.172 288.699 159.633 286.16 159.633 283.027V267.681Z" fill="white"/>
<path d="M165.304 262.212H247.997C251.017 262.212 253.466 264.661 253.466 267.681V283.028C253.466 286.048 251.017 288.496 247.997 288.496H165.304C162.284 288.496 159.835 286.048 159.835 283.028V267.681C159.835 264.661 162.284 262.212 165.304 262.212Z" stroke="#E5E7EB" stroke-width="0.405088"/>
</g>
<g filter="url(#filter5_d_46_13)">
<circle cx="139.481" cy="127.109" r="17.4603" fill="white"/>
<circle cx="139.481" cy="127.109" r="17.2577" stroke="#A5A5A5" stroke-width="0.405088"/>
</g>
<g filter="url(#filter6_d_46_13)">
<circle cx="113.003" cy="190.545" r="17.4603" fill="white"/>
<circle cx="113.003" cy="190.545" r="17.2577" stroke="#A5A5A5" stroke-width="0.405088"/>
</g>
<g filter="url(#filter7_d_46_13)">
<circle cx="162.94" cy="190.545" r="17.4603" fill="white"/>
<circle cx="162.94" cy="190.545" r="17.2577" stroke="#A5A5A5" stroke-width="0.405088"/>
</g>
<g filter="url(#filter8_d_46_13)">
<circle cx="229.18" cy="128.331" r="17.4603" fill="white"/>
<circle cx="229.18" cy="128.331" r="17.2577" stroke="#A5A5A5" stroke-width="0.405088"/>
</g>
<g filter="url(#filter9_d_46_13)">
<circle cx="205.112" cy="190.545" r="17.4603" fill="white"/>
<circle cx="205.112" cy="190.545" r="17.2577" stroke="#A5A5A5" stroke-width="0.405088"/>
</g>
<g filter="url(#filter10_d_46_13)">
<circle cx="255.05" cy="190.545" r="17.4603" fill="white"/>
<circle cx="255.05" cy="190.545" r="17.2577" stroke="#A5A5A5" stroke-width="0.405088"/>
</g>
<g filter="url(#filter11_d_46_13)">
<circle cx="323.493" cy="128.331" r="17.4603" fill="white"/>
<circle cx="323.493" cy="128.331" r="17.2577" stroke="#A5A5A5" stroke-width="0.405088"/>
</g>
<g filter="url(#filter12_d_46_13)">
<circle cx="323.493" cy="190.545" r="17.4603" fill="white"/>
<circle cx="323.493" cy="190.545" r="17.2577" stroke="#A5A5A5" stroke-width="0.405088"/>
</g>
<path d="M156.829 170.33C157.044 170.392 157.269 170.267 157.33 170.052L158.337 166.548C158.399 166.333 158.275 166.109 158.06 166.047C157.845 165.985 157.62 166.11 157.559 166.325L156.664 169.439L153.549 168.544C153.334 168.482 153.109 168.607 153.048 168.822C152.986 169.037 153.11 169.261 153.325 169.323L156.829 170.33ZM144.795 147.999L144.441 148.195L156.587 170.137L156.941 169.94L157.295 169.744L145.15 147.803L144.795 147.999Z" fill="#C6C6C6"/>
<path d="M217.776 170.073C217.849 170.284 218.08 170.396 218.291 170.323L221.736 169.129C221.947 169.056 222.059 168.825 221.986 168.614C221.912 168.402 221.682 168.29 221.47 168.364L218.408 169.425L217.347 166.363C217.274 166.152 217.043 166.04 216.831 166.113C216.62 166.186 216.508 166.417 216.581 166.628L217.776 170.073ZM229.18 147.222L228.816 147.045L217.794 169.764L218.158 169.94L218.523 170.117L229.545 147.399L229.18 147.222Z" fill="#C6C6C6"/>
<path d="M245.726 147.6C245.506 147.561 245.296 147.708 245.257 147.929L244.624 151.519C244.585 151.739 244.732 151.949 244.953 151.988C245.173 152.027 245.383 151.88 245.422 151.66L245.985 148.468L249.176 149.031C249.396 149.07 249.606 148.923 249.645 148.702C249.684 148.482 249.537 148.272 249.317 148.233L245.726 147.6ZM263.683 173.744L264.015 173.512L245.988 147.767L245.656 147.999L245.324 148.231L263.351 173.976L263.683 173.744Z" fill="#C6C6C6"/>
<path d="M156.809 142.012C156.597 142.084 156.485 142.315 156.558 142.527L157.747 145.973C157.819 146.185 158.05 146.297 158.262 146.224C158.473 146.151 158.585 145.921 158.512 145.709L157.456 142.645L160.52 141.589C160.731 141.516 160.843 141.285 160.77 141.074C160.698 140.862 160.467 140.75 160.255 140.823L156.809 142.012ZM237.59 181.683L237.767 181.319L157.118 142.03L156.941 142.394L156.764 142.759L237.413 182.047L237.59 181.683Z" fill="#C6C6C6"/>
<path d="M120.127 209.317C119.907 209.278 119.697 209.425 119.658 209.645L119.025 213.236C118.986 213.456 119.133 213.666 119.353 213.705C119.574 213.744 119.784 213.597 119.823 213.376L120.385 210.185L123.577 210.748C123.797 210.786 124.007 210.639 124.046 210.419C124.085 210.199 123.938 209.989 123.718 209.95L120.127 209.317ZM138.084 235.461L138.416 235.228L120.389 209.483L120.057 209.716L119.725 209.948L137.752 235.693L138.084 235.461Z" fill="#C6C6C6"/>
<path d="M306.432 149.751C306.468 149.53 306.318 149.322 306.098 149.286L302.499 148.702C302.278 148.666 302.07 148.816 302.034 149.037C301.998 149.257 302.148 149.465 302.369 149.501L305.568 150.021L305.048 153.22C305.012 153.441 305.162 153.649 305.383 153.685C305.604 153.72 305.812 153.57 305.848 153.35L306.432 149.751ZM269.545 175.976L269.781 176.305L306.269 150.015L306.033 149.686L305.796 149.357L269.308 175.648L269.545 175.976Z" fill="#C6C6C6"/>
<path d="M161.501 211.877C161.342 211.72 161.085 211.723 160.928 211.883L158.376 214.486C158.22 214.646 158.222 214.902 158.382 215.059C158.542 215.216 158.798 215.213 158.955 215.053L161.223 212.739L163.538 215.008C163.697 215.164 163.954 215.162 164.111 215.002C164.267 214.842 164.265 214.586 164.105 214.429L161.501 211.877ZM161.395 229.9L161.8 229.896L161.623 212.162L161.218 212.166L160.813 212.17L160.989 229.904L161.395 229.9Z" fill="#C6C6C6"/>
<path d="M298.118 191.485C298.276 191.326 298.276 191.07 298.118 190.912L295.54 188.334C295.382 188.175 295.125 188.175 294.967 188.334C294.809 188.492 294.809 188.748 294.967 188.907L297.259 191.198L294.967 193.49C294.809 193.648 294.809 193.904 294.967 194.062C295.125 194.221 295.382 194.221 295.54 194.062L298.118 191.485ZM280.712 191.198V191.603H297.832V191.198V190.793H280.712V191.198Z" fill="#C6C6C6"/>
<path d="M131.433 147.929C131.394 147.708 131.184 147.561 130.964 147.6L127.373 148.233C127.153 148.272 127.006 148.482 127.045 148.702C127.083 148.923 127.294 149.07 127.514 149.031L130.705 148.468L131.268 151.66C131.307 151.88 131.517 152.027 131.737 151.988C131.958 151.949 132.105 151.739 132.066 151.519L131.433 147.929ZM113.007 173.744L113.339 173.976L131.366 148.231L131.034 147.999L130.702 147.767L112.675 173.512L113.007 173.744Z" fill="#C6C6C6"/>
<path d="M218.546 150.104C218.482 149.89 218.256 149.768 218.042 149.833L214.55 150.883C214.336 150.947 214.215 151.173 214.279 151.387C214.343 151.602 214.569 151.723 214.784 151.659L217.887 150.725L218.82 153.829C218.885 154.043 219.11 154.165 219.325 154.1C219.539 154.036 219.66 153.81 219.596 153.596L218.546 150.104ZM205.112 174.486L205.469 174.677L218.515 150.413L218.158 150.221L217.801 150.029L204.756 174.294L205.112 174.486Z" fill="#C6C6C6"/>
<path d="M194.964 209.645C194.925 209.425 194.715 209.278 194.494 209.317L190.904 209.95C190.684 209.989 190.537 210.199 190.575 210.419C190.614 210.639 190.824 210.786 191.045 210.748L194.236 210.185L194.799 213.376C194.838 213.597 195.048 213.744 195.268 213.705C195.488 213.666 195.636 213.456 195.597 213.236L194.964 209.645ZM176.538 235.461L176.87 235.693L194.897 209.948L194.565 209.716L194.233 209.483L176.206 235.228L176.538 235.461Z" fill="#C6C6C6"/>
<path d="M244.544 208.006C244.544 207.782 244.363 207.6 244.14 207.6L240.494 207.588C240.27 207.587 240.088 207.768 240.088 207.992C240.087 208.216 240.268 208.398 240.491 208.398L243.732 208.409L243.722 211.649C243.721 211.873 243.902 212.055 244.126 212.056C244.349 212.056 244.531 211.875 244.532 211.652L244.544 208.006ZM216.509 235.461L216.794 235.748L244.424 208.292L244.138 208.005L243.853 207.717L216.223 235.173L216.509 235.461Z" fill="#C6C6C6"/>
<path d="M308.716 207.453C308.801 207.246 308.702 207.009 308.495 206.925L305.121 205.544C304.914 205.46 304.677 205.559 304.592 205.766C304.508 205.973 304.607 206.209 304.814 206.294L307.813 207.521L306.586 210.521C306.501 210.728 306.601 210.964 306.808 211.049C307.015 211.134 307.251 211.034 307.336 210.827L308.716 207.453ZM237.59 236.969L237.747 237.342L308.498 207.673L308.342 207.3L308.185 206.926L237.433 236.595L237.59 236.969Z" fill="#C6C6C6"/>
<g filter="url(#filter13_d_46_13)">
<path d="M95.3531 296.575C95.3531 293.972 97.4629 291.862 100.065 291.862H207.119C209.721 291.862 211.831 293.972 211.831 296.575C211.831 299.177 209.721 301.287 207.119 301.287H100.065C97.4629 301.287 95.3531 299.177 95.3531 296.575Z" fill="white"/>
<path d="M100.065 292.064H207.119C209.609 292.064 211.628 294.084 211.629 296.574C211.629 299.065 209.609 301.084 207.119 301.084H100.065C97.5746 301.084 95.5553 299.065 95.5553 296.574C95.5555 294.084 97.5747 292.065 100.065 292.064Z" stroke="#E5E7EB" stroke-width="0.405088"/>
</g>
<g filter="url(#filter14_d_46_13)">
<path d="M214.126 296.575C214.126 293.972 216.236 291.862 218.838 291.862H313.236C315.838 291.862 317.948 293.972 317.948 296.575C317.948 299.177 315.838 301.287 313.236 301.287H218.838C216.236 301.287 214.126 299.177 214.126 296.575Z" fill="white"/>
<path d="M218.838 292.064H313.235C315.726 292.064 317.745 294.084 317.745 296.574C317.745 299.065 315.726 301.084 313.235 301.084H218.838C216.347 301.084 214.328 299.065 214.328 296.574C214.328 294.084 216.348 292.065 218.838 292.064Z" stroke="#E5E7EB" stroke-width="0.405088"/>
</g>
<g filter="url(#filter15_d_46_13)">
<path d="M95.3531 255.289C95.3531 253.887 96.4897 252.75 97.8917 252.75H315.41C316.812 252.75 317.948 253.887 317.948 255.289C317.948 256.691 316.812 257.827 315.41 257.827H97.8917C96.4897 257.827 95.3531 256.691 95.3531 255.289Z" fill="white"/>
<path d="M97.8912 252.952H315.41C316.7 252.952 317.745 253.998 317.746 255.288C317.746 256.578 316.7 257.625 315.41 257.625H97.8912C96.6013 257.625 95.5553 256.578 95.5553 255.288C95.5555 253.998 96.6015 252.952 97.8912 252.952Z" stroke="#E5E7EB" stroke-width="0.405088"/>
</g>
<line x1="98.3283" y1="253.149" x2="98.3283" y2="255.181" stroke="black" stroke-width="0.405088"/>
<line x1="102.413" y1="253.149" x2="102.413" y2="255.181" stroke="black" stroke-width="0.405088"/>
<line x1="106.498" y1="253.149" x2="106.498" y2="255.181" stroke="black" stroke-width="0.405088"/>
<line x1="110.582" y1="253.149" x2="110.582" y2="255.181" stroke="black" stroke-width="0.405088"/>
<line x1="114.667" y1="253.149" x2="114.667" y2="255.181" stroke="black" stroke-width="0.405088"/>
<line x1="118.752" y1="253.149" x2="118.752" y2="255.181" stroke="black" stroke-width="0.405088"/>
<line x1="122.836" y1="253.149" x2="122.836" y2="255.181" stroke="black" stroke-width="0.405088"/>
<line x1="126.921" y1="253.149" x2="126.921" y2="255.181" stroke="black" stroke-width="0.405088"/>
<line x1="131.006" y1="253.149" x2="131.006" y2="255.181" stroke="black" stroke-width="0.405088"/>
<line x1="135.09" y1="253.149" x2="135.09" y2="255.181" stroke="black" stroke-width="0.405088"/>
<line x1="139.175" y1="253.149" x2="139.175" y2="255.181" stroke="black" stroke-width="0.405088"/>
<line x1="143.26" y1="253.149" x2="143.26" y2="255.181" stroke="black" stroke-width="0.405088"/>
<line x1="147.344" y1="253.149" x2="147.344" y2="255.181" stroke="black" stroke-width="0.405088"/>
<line x1="151.429" y1="253.149" x2="151.429" y2="255.181" stroke="black" stroke-width="0.405088"/>
<line x1="155.514" y1="253.149" x2="155.514" y2="255.181" stroke="black" stroke-width="0.405088"/>
<line x1="159.599" y1="253.149" x2="159.599" y2="255.181" stroke="black" stroke-width="0.405088"/>
<line x1="163.683" y1="253.149" x2="163.683" y2="255.181" stroke="black" stroke-width="0.405088"/>
<line x1="167.768" y1="253.149" x2="167.768" y2="255.181" stroke="black" stroke-width="0.405088"/>
<line x1="171.853" y1="253.149" x2="171.853" y2="255.181" stroke="black" stroke-width="0.405088"/>
<line x1="175.937" y1="253.149" x2="175.937" y2="255.181" stroke="black" stroke-width="0.405088"/>
<line x1="180.022" y1="253.149" x2="180.022" y2="255.181" stroke="black" stroke-width="0.405088"/>
<line x1="184.107" y1="253.149" x2="184.107" y2="255.181" stroke="black" stroke-width="0.405088"/>
<line x1="188.191" y1="253.149" x2="188.191" y2="255.181" stroke="black" stroke-width="0.405088"/>
<line x1="192.276" y1="253.149" x2="192.276" y2="255.181" stroke="black" stroke-width="0.405088"/>
<line x1="196.361" y1="253.149" x2="196.361" y2="255.181" stroke="black" stroke-width="0.405088"/>
<line x1="200.445" y1="253.149" x2="200.445" y2="255.181" stroke="black" stroke-width="0.405088"/>
<line x1="204.53" y1="253.149" x2="204.53" y2="255.181" stroke="black" stroke-width="0.405088"/>
<line x1="208.615" y1="253.149" x2="208.615" y2="255.181" stroke="black" stroke-width="0.405088"/>
<line x1="212.699" y1="253.149" x2="212.699" y2="255.181" stroke="black" stroke-width="0.405088"/>
<line x1="216.784" y1="253.149" x2="216.784" y2="255.181" stroke="black" stroke-width="0.405088"/>
<line x1="220.869" y1="253.149" x2="220.869" y2="255.181" stroke="black" stroke-width="0.405088"/>
<line x1="224.953" y1="253.149" x2="224.953" y2="255.181" stroke="black" stroke-width="0.405088"/>
<line x1="229.038" y1="253.149" x2="229.038" y2="255.181" stroke="black" stroke-width="0.405088"/>
<line x1="233.123" y1="253.149" x2="233.123" y2="255.181" stroke="black" stroke-width="0.405088"/>
<line x1="237.208" y1="253.149" x2="237.208" y2="255.181" stroke="black" stroke-width="0.405088"/>
<line x1="241.292" y1="253.149" x2="241.292" y2="255.181" stroke="black" stroke-width="0.405088"/>
<line x1="245.377" y1="253.149" x2="245.377" y2="255.181" stroke="black" stroke-width="0.405088"/>
<line x1="249.462" y1="253.149" x2="249.462" y2="255.181" stroke="black" stroke-width="0.405088"/>
<line x1="253.546" y1="253.149" x2="253.546" y2="255.181" stroke="black" stroke-width="0.405088"/>
<line x1="257.631" y1="253.149" x2="257.631" y2="255.181" stroke="black" stroke-width="0.405088"/>
<line x1="261.715" y1="253.149" x2="261.715" y2="255.181" stroke="black" stroke-width="0.405088"/>
<line x1="265.8" y1="253.149" x2="265.8" y2="255.181" stroke="black" stroke-width="0.405088"/>
<line x1="269.885" y1="253.149" x2="269.885" y2="255.181" stroke="black" stroke-width="0.405088"/>
<line x1="273.97" y1="253.149" x2="273.97" y2="255.181" stroke="black" stroke-width="0.405088"/>
<line x1="278.054" y1="253.149" x2="278.054" y2="255.181" stroke="black" stroke-width="0.405088"/>
<line x1="282.139" y1="253.149" x2="282.139" y2="255.181" stroke="black" stroke-width="0.405088"/>
<line x1="286.224" y1="253.149" x2="286.224" y2="255.181" stroke="black" stroke-width="0.405088"/>
<line x1="290.308" y1="253.149" x2="290.308" y2="255.181" stroke="black" stroke-width="0.405088"/>
<line x1="294.393" y1="253.149" x2="294.393" y2="255.181" stroke="black" stroke-width="0.405088"/>
<line x1="298.478" y1="253.149" x2="298.478" y2="255.181" stroke="black" stroke-width="0.405088"/>
<line x1="302.563" y1="253.149" x2="302.563" y2="255.181" stroke="black" stroke-width="0.405088"/>
<line x1="306.647" y1="253.149" x2="306.647" y2="255.181" stroke="black" stroke-width="0.405088"/>
<line x1="310.732" y1="253.149" x2="310.732" y2="255.181" stroke="black" stroke-width="0.405088"/>
<line x1="314.816" y1="253.008" x2="314.816" y2="255.04" stroke="black" stroke-width="0.405088"/>
<g filter="url(#filter16_d_46_13)">
<path d="M180.236 252.059C180.236 251.465 180.718 250.983 181.312 250.983C181.907 250.983 182.388 251.465 182.388 252.059V305.265C182.388 305.86 181.907 306.342 181.312 306.342C180.718 306.342 180.236 305.86 180.236 305.265V252.059Z" fill="#C6C6C6"/>
</g>
<g filter="url(#filter17_d_46_13)">
<path d="M181.312 254.106L175.085 247.239H187.539L181.312 254.106Z" fill="#C6C6C6"/>
</g>
<defs>
<filter id="filter0_d_46_13" x="33.9537" y="378.246" width="361.481" height="161.802" filterUnits="userSpaceOnUse" color-interpolation-filters="sRGB">
<feFlood flood-opacity="0" result="BackgroundImageFix"/>
<feColorMatrix in="SourceAlpha" type="matrix" values="0 0 0 0 0 0 0 0 0 0 0 0 0 0 0 0 0 0 127 0" result="hardAlpha"/>
<feMorphology radius="1" operator="dilate" in="SourceAlpha" result="effect1_dropShadow_46_13"/>
<feOffset dy="12"/>
<feGaussianBlur stdDeviation="13"/>
<feComposite in2="hardAlpha" operator="out"/>
<feColorMatrix type="matrix" values="0 0 0 0 0 0 0 0 0 0 0 0 0 0 0 0 0 0 0.07 0"/>
<feBlend mode="normal" in2="BackgroundImageFix" result="effect1_dropShadow_46_13"/>
<feBlend mode="normal" in="SourceGraphic" in2="effect1_dropShadow_46_13" result="shape"/>
</filter>
<filter id="filter1_d_46_13" x="50.9537" y="60.1812" width="328.385" height="310" filterUnits="userSpaceOnUse" color-interpolation-filters="sRGB">
<feFlood flood-opacity="0" result="BackgroundImageFix"/>
<feColorMatrix in="SourceAlpha" type="matrix" values="0 0 0 0 0 0 0 0 0 0 0 0 0 0 0 0 0 0 127 0" result="hardAlpha"/>
<feOffset dy="20"/>
<feGaussianBlur stdDeviation="5"/>
<feComposite in2="hardAlpha" operator="out"/>
<feColorMatrix type="matrix" values="0 0 0 0 0 0 0 0 0 0 0 0 0 0 0 0 0 0 0.1 0"/>
<feBlend mode="normal" in2="BackgroundImageFix" result="effect1_dropShadow_46_13"/>
<feBlend mode="normal" in="SourceGraphic" in2="effect1_dropShadow_46_13" result="shape"/>
</filter>
<filter id="filter2_d_46_13" x="84.4158" y="255.934" width="83.1884" height="48.5633" filterUnits="userSpaceOnUse" color-interpolation-filters="sRGB">
<feFlood flood-opacity="0" result="BackgroundImageFix"/>
<feColorMatrix in="SourceAlpha" type="matrix" values="0 0 0 0 0 0 0 0 0 0 0 0 0 0 0 0 0 0 127 0" result="hardAlpha"/>
<feMorphology radius="0.405088" operator="dilate" in="SourceAlpha" result="effect1_dropShadow_46_13"/>
<feOffset dy="4.86105"/>
<feGaussianBlur stdDeviation="5.26614"/>
<feComposite in2="hardAlpha" operator="out"/>
<feColorMatrix type="matrix" values="0 0 0 0 0 0 0 0 0 0 0 0 0 0 0 0 0 0 0.07 0"/>
<feBlend mode="normal" in2="BackgroundImageFix" result="effect1_dropShadow_46_13"/>
<feBlend mode="normal" in="SourceGraphic" in2="effect1_dropShadow_46_13" result="shape"/>
</filter>
<filter id="filter3_d_46_13" x="245.697" y="255.934" width="83.1884" height="48.5633" filterUnits="userSpaceOnUse" color-interpolation-filters="sRGB">
<feFlood flood-opacity="0" result="BackgroundImageFix"/>
<feColorMatrix in="SourceAlpha" type="matrix" values="0 0 0 0 0 0 0 0 0 0 0 0 0 0 0 0 0 0 127 0" result="hardAlpha"/>
<feMorphology radius="0.405088" operator="dilate" in="SourceAlpha" result="effect1_dropShadow_46_13"/>
<feOffset dy="4.86105"/>
<feGaussianBlur stdDeviation="5.26614"/>
<feComposite in2="hardAlpha" operator="out"/>
<feColorMatrix type="matrix" values="0 0 0 0 0 0 0 0 0 0 0 0 0 0 0 0 0 0 0.07 0"/>
<feBlend mode="normal" in2="BackgroundImageFix" result="effect1_dropShadow_46_13"/>
<feBlend mode="normal" in="SourceGraphic" in2="effect1_dropShadow_46_13" result="shape"/>
</filter>
<filter id="filter4_d_46_13" x="148.695" y="255.934" width="115.91" height="48.5633" filterUnits="userSpaceOnUse" color-interpolation-filters="sRGB">
<feFlood flood-opacity="0" result="BackgroundImageFix"/>
<feColorMatrix in="SourceAlpha" type="matrix" values="0 0 0 0 0 0 0 0 0 0 0 0 0 0 0 0 0 0 127 0" result="hardAlpha"/>
<feMorphology radius="0.405088" operator="dilate" in="SourceAlpha" result="effect1_dropShadow_46_13"/>
<feOffset dy="4.86105"/>
<feGaussianBlur stdDeviation="5.26614"/>
<feComposite in2="hardAlpha" operator="out"/>
<feColorMatrix type="matrix" values="0 0 0 0 0 0 0 0 0 0 0 0 0 0 0 0 0 0 0.07 0"/>
<feBlend mode="normal" in2="BackgroundImageFix" result="effect1_dropShadow_46_13"/>
<feBlend mode="normal" in="SourceGraphic" in2="effect1_dropShadow_46_13" result="shape"/>
</filter>
<filter id="filter5_d_46_13" x="111.083" y="103.572" width="56.7953" height="56.7953" filterUnits="userSpaceOnUse" color-interpolation-filters="sRGB">
<feFlood flood-opacity="0" result="BackgroundImageFix"/>
<feColorMatrix in="SourceAlpha" type="matrix" values="0 0 0 0 0 0 0 0 0 0 0 0 0 0 0 0 0 0 127 0" result="hardAlpha"/>
<feMorphology radius="0.405088" operator="dilate" in="SourceAlpha" result="effect1_dropShadow_46_13"/>
<feOffset dy="4.86105"/>
<feGaussianBlur stdDeviation="5.26614"/>
<feComposite in2="hardAlpha" operator="out"/>
<feColorMatrix type="matrix" values="0 0 0 0 0 0 0 0 0 0 0 0 0 0 0 0 0 0 0.07 0"/>
<feBlend mode="normal" in2="BackgroundImageFix" result="effect1_dropShadow_46_13"/>
<feBlend mode="normal" in="SourceGraphic" in2="effect1_dropShadow_46_13" result="shape"/>
</filter>
<filter id="filter6_d_46_13" x="84.6049" y="167.008" width="56.7953" height="56.7953" filterUnits="userSpaceOnUse" color-interpolation-filters="sRGB">
<feFlood flood-opacity="0" result="BackgroundImageFix"/>
<feColorMatrix in="SourceAlpha" type="matrix" values="0 0 0 0 0 0 0 0 0 0 0 0 0 0 0 0 0 0 127 0" result="hardAlpha"/>
<feMorphology radius="0.405088" operator="dilate" in="SourceAlpha" result="effect1_dropShadow_46_13"/>
<feOffset dy="4.86105"/>
<feGaussianBlur stdDeviation="5.26614"/>
<feComposite in2="hardAlpha" operator="out"/>
<feColorMatrix type="matrix" values="0 0 0 0 0 0 0 0 0 0 0 0 0 0 0 0 0 0 0.07 0"/>
<feBlend mode="normal" in2="BackgroundImageFix" result="effect1_dropShadow_46_13"/>
<feBlend mode="normal" in="SourceGraphic" in2="effect1_dropShadow_46_13" result="shape"/>
</filter>
<filter id="filter7_d_46_13" x="134.543" y="167.008" width="56.7953" height="56.7953" filterUnits="userSpaceOnUse" color-interpolation-filters="sRGB">
<feFlood flood-opacity="0" result="BackgroundImageFix"/>
<feColorMatrix in="SourceAlpha" type="matrix" values="0 0 0 0 0 0 0 0 0 0 0 0 0 0 0 0 0 0 127 0" result="hardAlpha"/>
<feMorphology radius="0.405088" operator="dilate" in="SourceAlpha" result="effect1_dropShadow_46_13"/>
<feOffset dy="4.86105"/>
<feGaussianBlur stdDeviation="5.26614"/>
<feComposite in2="hardAlpha" operator="out"/>
<feColorMatrix type="matrix" values="0 0 0 0 0 0 0 0 0 0 0 0 0 0 0 0 0 0 0.07 0"/>
<feBlend mode="normal" in2="BackgroundImageFix" result="effect1_dropShadow_46_13"/>
<feBlend mode="normal" in="SourceGraphic" in2="effect1_dropShadow_46_13" result="shape"/>
</filter>
<filter id="filter8_d_46_13" x="200.783" y="104.794" width="56.7953" height="56.7953" filterUnits="userSpaceOnUse" color-interpolation-filters="sRGB">
<feFlood flood-opacity="0" result="BackgroundImageFix"/>
<feColorMatrix in="SourceAlpha" type="matrix" values="0 0 0 0 0 0 0 0 0 0 0 0 0 0 0 0 0 0 127 0" result="hardAlpha"/>
<feMorphology radius="0.405088" operator="dilate" in="SourceAlpha" result="effect1_dropShadow_46_13"/>
<feOffset dy="4.86105"/>
<feGaussianBlur stdDeviation="5.26614"/>
<feComposite in2="hardAlpha" operator="out"/>
<feColorMatrix type="matrix" values="0 0 0 0 0 0 0 0 0 0 0 0 0 0 0 0 0 0 0.07 0"/>
<feBlend mode="normal" in2="BackgroundImageFix" result="effect1_dropShadow_46_13"/>
<feBlend mode="normal" in="SourceGraphic" in2="effect1_dropShadow_46_13" result="shape"/>
</filter>
<filter id="filter9_d_46_13" x="176.715" y="167.008" width="56.7953" height="56.7953" filterUnits="userSpaceOnUse" color-interpolation-filters="sRGB">
<feFlood flood-opacity="0" result="BackgroundImageFix"/>
<feColorMatrix in="SourceAlpha" type="matrix" values="0 0 0 0 0 0 0 0 0 0 0 0 0 0 0 0 0 0 127 0" result="hardAlpha"/>
<feMorphology radius="0.405088" operator="dilate" in="SourceAlpha" result="effect1_dropShadow_46_13"/>
<feOffset dy="4.86105"/>
<feGaussianBlur stdDeviation="5.26614"/>
<feComposite in2="hardAlpha" operator="out"/>
<feColorMatrix type="matrix" values="0 0 0 0 0 0 0 0 0 0 0 0 0 0 0 0 0 0 0.07 0"/>
<feBlend mode="normal" in2="BackgroundImageFix" result="effect1_dropShadow_46_13"/>
<feBlend mode="normal" in="SourceGraphic" in2="effect1_dropShadow_46_13" result="shape"/>
</filter>
<filter id="filter10_d_46_13" x="226.653" y="167.008" width="56.7953" height="56.7953" filterUnits="userSpaceOnUse" color-interpolation-filters="sRGB">
<feFlood flood-opacity="0" result="BackgroundImageFix"/>
<feColorMatrix in="SourceAlpha" type="matrix" values="0 0 0 0 0 0 0 0 0 0 0 0 0 0 0 0 0 0 127 0" result="hardAlpha"/>
<feMorphology radius="0.405088" operator="dilate" in="SourceAlpha" result="effect1_dropShadow_46_13"/>
<feOffset dy="4.86105"/>
<feGaussianBlur stdDeviation="5.26614"/>
<feComposite in2="hardAlpha" operator="out"/>
<feColorMatrix type="matrix" values="0 0 0 0 0 0 0 0 0 0 0 0 0 0 0 0 0 0 0.07 0"/>
<feBlend mode="normal" in2="BackgroundImageFix" result="effect1_dropShadow_46_13"/>
<feBlend mode="normal" in="SourceGraphic" in2="effect1_dropShadow_46_13" result="shape"/>
</filter>
<filter id="filter11_d_46_13" x="295.095" y="104.794" width="56.7953" height="56.7953" filterUnits="userSpaceOnUse" color-interpolation-filters="sRGB">
<feFlood flood-opacity="0" result="BackgroundImageFix"/>
<feColorMatrix in="SourceAlpha" type="matrix" values="0 0 0 0 0 0 0 0 0 0 0 0 0 0 0 0 0 0 127 0" result="hardAlpha"/>
<feMorphology radius="0.405088" operator="dilate" in="SourceAlpha" result="effect1_dropShadow_46_13"/>
<feOffset dy="4.86105"/>
<feGaussianBlur stdDeviation="5.26614"/>
<feComposite in2="hardAlpha" operator="out"/>
<feColorMatrix type="matrix" values="0 0 0 0 0 0 0 0 0 0 0 0 0 0 0 0 0 0 0.07 0"/>
<feBlend mode="normal" in2="BackgroundImageFix" result="effect1_dropShadow_46_13"/>
<feBlend mode="normal" in="SourceGraphic" in2="effect1_dropShadow_46_13" result="shape"/>
</filter>
<filter id="filter12_d_46_13" x="295.095" y="167.008" width="56.7953" height="56.7953" filterUnits="userSpaceOnUse" color-interpolation-filters="sRGB">
<feFlood flood-opacity="0" result="BackgroundImageFix"/>
<feColorMatrix in="SourceAlpha" type="matrix" values="0 0 0 0 0 0 0 0 0 0 0 0 0 0 0 0 0 0 127 0" result="hardAlpha"/>
<feMorphology radius="0.405088" operator="dilate" in="SourceAlpha" result="effect1_dropShadow_46_13"/>
<feOffset dy="4.86105"/>
<feGaussianBlur stdDeviation="5.26614"/>
<feComposite in2="hardAlpha" operator="out"/>
<feColorMatrix type="matrix" values="0 0 0 0 0 0 0 0 0 0 0 0 0 0 0 0 0 0 0.07 0"/>
<feBlend mode="normal" in2="BackgroundImageFix" result="effect1_dropShadow_46_13"/>
<feBlend mode="normal" in="SourceGraphic" in2="effect1_dropShadow_46_13" result="shape"/>
</filter>
<filter id="filter13_d_46_13" x="84.4158" y="285.786" width="138.353" height="31.2994" filterUnits="userSpaceOnUse" color-interpolation-filters="sRGB">
<feFlood flood-opacity="0" result="BackgroundImageFix"/>
<feColorMatrix in="SourceAlpha" type="matrix" values="0 0 0 0 0 0 0 0 0 0 0 0 0 0 0 0 0 0 127 0" result="hardAlpha"/>
<feMorphology radius="0.405088" operator="dilate" in="SourceAlpha" result="effect1_dropShadow_46_13"/>
<feOffset dy="4.86105"/>
<feGaussianBlur stdDeviation="5.26614"/>
<feComposite in2="hardAlpha" operator="out"/>
<feColorMatrix type="matrix" values="0 0 0 0 0 0 0 0 0 0 0 0 0 0 0 0 0 0 0.07 0"/>
<feBlend mode="normal" in2="BackgroundImageFix" result="effect1_dropShadow_46_13"/>
<feBlend mode="normal" in="SourceGraphic" in2="effect1_dropShadow_46_13" result="shape"/>
</filter>
<filter id="filter14_d_46_13" x="203.189" y="285.786" width="125.697" height="31.2994" filterUnits="userSpaceOnUse" color-interpolation-filters="sRGB">
<feFlood flood-opacity="0" result="BackgroundImageFix"/>
<feColorMatrix in="SourceAlpha" type="matrix" values="0 0 0 0 0 0 0 0 0 0 0 0 0 0 0 0 0 0 127 0" result="hardAlpha"/>
<feMorphology radius="0.405088" operator="dilate" in="SourceAlpha" result="effect1_dropShadow_46_13"/>
<feOffset dy="4.86105"/>
<feGaussianBlur stdDeviation="5.26614"/>
<feComposite in2="hardAlpha" operator="out"/>
<feColorMatrix type="matrix" values="0 0 0 0 0 0 0 0 0 0 0 0 0 0 0 0 0 0 0.07 0"/>
<feBlend mode="normal" in2="BackgroundImageFix" result="effect1_dropShadow_46_13"/>
<feBlend mode="normal" in="SourceGraphic" in2="effect1_dropShadow_46_13" result="shape"/>
</filter>
<filter id="filter15_d_46_13" x="84.4158" y="246.674" width="244.47" height="26.9518" filterUnits="userSpaceOnUse" color-interpolation-filters="sRGB">
<feFlood flood-opacity="0" result="BackgroundImageFix"/>
<feColorMatrix in="SourceAlpha" type="matrix" values="0 0 0 0 0 0 0 0 0 0 0 0 0 0 0 0 0 0 127 0" result="hardAlpha"/>
<feMorphology radius="0.405088" operator="dilate" in="SourceAlpha" result="effect1_dropShadow_46_13"/>
<feOffset dy="4.86105"/>
<feGaussianBlur stdDeviation="5.26614"/>
<feComposite in2="hardAlpha" operator="out"/>
<feColorMatrix type="matrix" values="0 0 0 0 0 0 0 0 0 0 0 0 0 0 0 0 0 0 0.07 0"/>
<feBlend mode="normal" in2="BackgroundImageFix" result="effect1_dropShadow_46_13"/>
<feBlend mode="normal" in="SourceGraphic" in2="effect1_dropShadow_46_13" result="shape"/>
</filter>
<filter id="filter16_d_46_13" x="169.298" y="244.907" width="24.0273" height="77.2335" filterUnits="userSpaceOnUse" color-interpolation-filters="sRGB">
<feFlood flood-opacity="0" result="BackgroundImageFix"/>
<feColorMatrix in="SourceAlpha" type="matrix" values="0 0 0 0 0 0 0 0 0 0 0 0 0 0 0 0 0 0 127 0" result="hardAlpha"/>
<feMorphology radius="0.405088" operator="dilate" in="SourceAlpha" result="effect1_dropShadow_46_13"/>
<feOffset dy="4.86105"/>
<feGaussianBlur stdDeviation="5.26614"/>
<feComposite in2="hardAlpha" operator="out"/>
<feColorMatrix type="matrix" values="0 0 0 0 0 0 0 0 0 0 0 0 0 0 0 0 0 0 0.07 0"/>
<feBlend mode="normal" in2="BackgroundImageFix" result="effect1_dropShadow_46_13"/>
<feBlend mode="normal" in="SourceGraphic" in2="effect1_dropShadow_46_13" result="shape"/>
</filter>
<filter id="filter17_d_46_13" x="164.148" y="241.163" width="34.3287" height="28.7422" filterUnits="userSpaceOnUse" color-interpolation-filters="sRGB">
<feFlood flood-opacity="0" result="BackgroundImageFix"/>
<feColorMatrix in="SourceAlpha" type="matrix" values="0 0 0 0 0 0 0 0 0 0 0 0 0 0 0 0 0 0 127 0" result="hardAlpha"/>
<feMorphology radius="0.405088" operator="dilate" in="SourceAlpha" result="effect1_dropShadow_46_13"/>
<feOffset dy="4.86105"/>
<feGaussianBlur stdDeviation="5.26614"/>
<feComposite in2="hardAlpha" operator="out"/>
<feColorMatrix type="matrix" values="0 0 0 0 0 0 0 0 0 0 0 0 0 0 0 0 0 0 0.07 0"/>
<feBlend mode="normal" in2="BackgroundImageFix" result="effect1_dropShadow_46_13"/>
<feBlend mode="normal" in="SourceGraphic" in2="effect1_dropShadow_46_13" result="shape"/>
</filter>
<linearGradient id="paint0_linear_46_13" x1="223.675" y1="-1.74899e-05" x2="726.715" y2="337.711" gradientUnits="userSpaceOnUse">
<stop stop-color="#01BCB2"/>
<stop offset="0.548078" stop-color="#9727FF"/>
<stop offset="1" stop-color="#002C79"/>
</linearGradient>
<linearGradient id="paint1_linear_46_13" x1="584.035" y1="227.27" x2="744.566" y2="434.849" gradientUnits="userSpaceOnUse">
<stop stop-color="#CC3C90"/>
<stop offset="0.4" stop-color="#008ED1"/>
<stop offset="0.54" stop-color="#2BA498"/>
<stop offset="1" stop-color="#20A698"/>
</linearGradient>
<linearGradient id="paint2_linear_46_13" x1="565.645" y1="241.492" x2="726.169" y2="449.079" gradientUnits="userSpaceOnUse">
<stop stop-color="#CC3C90"/>
<stop offset="0.4" stop-color="#008ED1"/>
<stop offset="0.54" stop-color="#2BA498"/>
<stop offset="1" stop-color="#20A698"/>
</linearGradient>
<linearGradient id="paint3_linear_46_13" x1="544.896" y1="257.538" x2="705.427" y2="465.116" gradientUnits="userSpaceOnUse">
<stop stop-color="#CC3C90"/>
<stop offset="0.4" stop-color="#008ED1"/>
<stop offset="0.54" stop-color="#2BA498"/>
<stop offset="1" stop-color="#20A698"/>
</linearGradient>
<linearGradient id="paint4_linear_46_13" x1="545.609" y1="256.986" x2="706.14" y2="464.565" gradientUnits="userSpaceOnUse">
<stop stop-color="#CC3C90"/>
<stop offset="0.4" stop-color="#008ED1"/>
<stop offset="0.54" stop-color="#2BA498"/>
<stop offset="1" stop-color="#20A698"/>
</linearGradient>
<linearGradient id="paint5_linear_46_13" x1="570.342" y1="237.862" x2="730.866" y2="445.448" gradientUnits="userSpaceOnUse">
<stop stop-color="#CC3C90"/>
<stop offset="0.4" stop-color="#008ED1"/>
<stop offset="0.54" stop-color="#2BA498"/>
<stop offset="1" stop-color="#20A698"/>
</linearGradient>
<linearGradient id="paint6_linear_46_13" x1="588.732" y1="223.639" x2="749.263" y2="431.218" gradientUnits="userSpaceOnUse">
<stop stop-color="#CC3C90"/>
<stop offset="0.4" stop-color="#008ED1"/>
<stop offset="0.54" stop-color="#2BA498"/>
<stop offset="1" stop-color="#20A698"/>
</linearGradient>
<linearGradient id="paint7_linear_46_13" x1="577.185" y1="232.57" x2="737.716" y2="440.148" gradientUnits="userSpaceOnUse">
<stop stop-color="#CC3C90"/>
<stop offset="0.4" stop-color="#008ED1"/>
<stop offset="0.54" stop-color="#2BA498"/>
<stop offset="1" stop-color="#20A698"/>
</linearGradient>
<linearGradient id="paint8_linear_46_13" x1="609.473" y1="207.602" x2="770.004" y2="415.18" gradientUnits="userSpaceOnUse">
<stop stop-color="#CC3C90"/>
<stop offset="0.4" stop-color="#008ED1"/>
<stop offset="0.54" stop-color="#2BA498"/>
<stop offset="1" stop-color="#20A698"/>
</linearGradient>
<linearGradient id="paint9_linear_46_13" x1="608.731" y1="208.175" x2="769.262" y2="415.754" gradientUnits="userSpaceOnUse">
<stop stop-color="#CC3C90"/>
<stop offset="0.4" stop-color="#008ED1"/>
<stop offset="0.54" stop-color="#2BA498"/>
<stop offset="1" stop-color="#20A698"/>
</linearGradient>
<linearGradient id="paint10_linear_46_13" x1="149.484" y1="60.1812" x2="368.889" y2="183.606" gradientUnits="userSpaceOnUse">
<stop stop-color="#01BCB2"/>
<stop offset="0.548078" stop-color="#9727FF"/>
<stop offset="1" stop-color="#002C79"/>
</linearGradient>
</defs>
</svg>
