<svg width="280" height="184" viewBox="0 0 280 184" fill="none" xmlns="http://www.w3.org/2000/svg">
<g filter="url(#filter0_d_44_5)">
<rect width="279.179" height="163.197" rx="14" fill="white"/>
<rect x="2" y="2" width="275.179" height="159.197" rx="12" stroke="url(#paint0_linear_44_5)" stroke-width="4"/>
</g>
<path d="M109.876 129.138H107.66L114.069 111.683H116.251L122.66 129.138H120.444L115.228 114.444H115.092L109.876 129.138ZM110.694 122.319H119.626V124.194H110.694V122.319ZM133.356 123.785V116.047H135.368V129.138H133.356V126.922H133.22C132.913 127.586 132.436 128.152 131.788 128.618C131.14 129.078 130.322 129.308 129.334 129.308C128.515 129.308 127.788 129.129 127.152 128.771C126.515 128.407 126.015 127.862 125.652 127.135C125.288 126.402 125.106 125.478 125.106 124.365V116.047H127.118V124.228C127.118 125.183 127.385 125.944 127.919 126.513C128.459 127.081 129.146 127.365 129.981 127.365C130.481 127.365 130.99 127.237 131.507 126.981C132.03 126.726 132.467 126.334 132.819 125.805C133.177 125.277 133.356 124.603 133.356 123.785ZM143.995 129.41C142.904 129.41 141.941 129.135 141.106 128.584C140.27 128.027 139.617 127.243 139.145 126.231C138.674 125.214 138.438 124.013 138.438 122.626C138.438 121.251 138.674 120.058 139.145 119.047C139.617 118.035 140.273 117.254 141.114 116.703C141.955 116.152 142.927 115.876 144.029 115.876C144.881 115.876 145.554 116.018 146.049 116.302C146.549 116.581 146.929 116.899 147.191 117.257C147.458 117.609 147.665 117.899 147.813 118.126H147.983V111.683H149.995V129.138H148.052V127.126H147.813C147.665 127.365 147.455 127.666 147.182 128.03C146.909 128.388 146.52 128.709 146.015 128.993C145.509 129.271 144.836 129.41 143.995 129.41ZM144.267 127.603C145.074 127.603 145.756 127.393 146.313 126.973C146.87 126.547 147.293 125.959 147.583 125.209C147.873 124.453 148.017 123.581 148.017 122.592C148.017 121.615 147.875 120.76 147.591 120.027C147.307 119.288 146.887 118.714 146.33 118.305C145.773 117.89 145.086 117.683 144.267 117.683C143.415 117.683 142.705 117.902 142.137 118.339C141.574 118.771 141.151 119.359 140.867 120.103C140.588 120.842 140.449 121.672 140.449 122.592C140.449 123.524 140.591 124.37 140.875 125.132C141.165 125.888 141.591 126.49 142.154 126.939C142.722 127.382 143.427 127.603 144.267 127.603ZM153.958 129.138V116.047H155.969V129.138H153.958ZM154.981 113.865C154.588 113.865 154.25 113.731 153.966 113.464C153.688 113.197 153.549 112.876 153.549 112.501C153.549 112.126 153.688 111.805 153.966 111.538C154.25 111.271 154.588 111.138 154.981 111.138C155.373 111.138 155.708 111.271 155.986 111.538C156.27 111.805 156.412 112.126 156.412 112.501C156.412 112.876 156.27 113.197 155.986 113.464C155.708 113.731 155.373 113.865 154.981 113.865ZM164.971 129.41C163.789 129.41 162.753 129.129 161.86 128.566C160.974 128.004 160.281 127.217 159.781 126.206C159.287 125.194 159.039 124.013 159.039 122.66C159.039 121.297 159.287 120.106 159.781 119.089C160.281 118.072 160.974 117.282 161.86 116.72C162.753 116.157 163.789 115.876 164.971 115.876C166.153 115.876 167.187 116.157 168.074 116.72C168.966 117.282 169.659 118.072 170.153 119.089C170.653 120.106 170.903 121.297 170.903 122.66C170.903 124.013 170.653 125.194 170.153 126.206C169.659 127.217 168.966 128.004 168.074 128.566C167.187 129.129 166.153 129.41 164.971 129.41ZM164.971 127.603C165.869 127.603 166.608 127.373 167.187 126.913C167.767 126.453 168.196 125.848 168.474 125.098C168.753 124.348 168.892 123.535 168.892 122.66C168.892 121.785 168.753 120.97 168.474 120.214C168.196 119.459 167.767 118.848 167.187 118.382C166.608 117.916 165.869 117.683 164.971 117.683C164.074 117.683 163.335 117.916 162.755 118.382C162.176 118.848 161.747 119.459 161.468 120.214C161.19 120.97 161.051 121.785 161.051 122.66C161.051 123.535 161.19 124.348 161.468 125.098C161.747 125.848 162.176 126.453 162.755 126.913C163.335 127.373 164.074 127.603 164.971 127.603Z" fill="black"/>
<path d="M160.556 71.7261V65.9636C160.556 54.3845 151.136 44.9644 139.556 44.9644C127.977 44.9644 118.556 54.3845 118.556 65.9636V71.7363C114.58 72.5385 111.576 76.0589 111.576 80.2675C111.576 85.0672 115.481 88.9714 120.28 88.9714H124.151C124.666 88.9714 125.084 88.5531 125.084 88.0376V72.4964C125.084 71.981 124.666 71.5626 124.151 71.5626H120.423V65.9627C120.423 55.4135 129.005 46.831 139.555 46.831C150.106 46.831 158.687 55.4135 158.687 65.9627V71.5626H155.029C154.513 71.5626 154.095 71.981 154.095 72.4964V88.0376C154.095 88.5531 154.513 88.9714 155.029 88.9714H158.899C163.699 88.9714 167.603 85.0663 167.603 80.2675C167.603 76.0346 164.565 72.502 160.556 71.7261ZM123.217 87.1048H120.28C116.51 87.1048 113.444 84.0382 113.444 80.2684C113.444 76.4987 116.51 73.4321 120.28 73.4321H123.217V87.1048ZM158.899 87.1048H155.962V73.4312H158.899C162.669 73.4312 165.735 76.4978 165.735 80.2675C165.735 84.0372 162.669 87.1048 158.899 87.1048Z" fill="black" stroke="black"/>
<path d="M144.372 75.0214C141.946 75.0214 139.973 76.8433 139.973 79.0825C139.973 81.3217 141.947 83.1436 144.372 83.1436C146.797 83.1436 148.772 81.3217 148.772 79.0825V65.3118C148.772 65.0195 148.635 64.744 148.401 64.5676C148.168 64.3901 147.864 64.3332 147.584 64.4135L136.528 67.5408C136.126 67.6547 135.848 68.0217 135.848 68.4391V78.8995C135.131 78.4307 134.26 78.1487 133.316 78.1487C130.89 78.1487 128.917 79.9705 128.917 82.2098C128.917 84.449 130.891 86.2709 133.316 86.2709C135.741 86.2709 137.716 84.449 137.716 82.2098V69.146L146.904 66.5472V75.7731C146.187 75.3044 145.316 75.0214 144.372 75.0214ZM133.316 84.4023C131.92 84.4023 130.784 83.4181 130.784 82.2089C130.784 80.9996 131.92 80.0154 133.316 80.0154C134.712 80.0154 135.848 80.9996 135.848 82.2089C135.848 83.4181 134.712 84.4023 133.316 84.4023ZM144.372 81.2751C142.976 81.2751 141.84 80.2908 141.84 79.0816C141.84 77.8723 142.976 76.8881 144.372 76.8881C145.768 76.8881 146.904 77.8723 146.904 79.0816C146.904 80.2908 145.768 81.2751 144.372 81.2751Z" fill="black" stroke="black"/>
<defs>
<filter id="filter0_d_44_5" x="0" y="0" width="279.179" height="183.198" filterUnits="userSpaceOnUse" color-interpolation-filters="sRGB">
<feFlood flood-opacity="0" result="BackgroundImageFix"/>
<feColorMatrix in="SourceAlpha" type="matrix" values="0 0 0 0 0 0 0 0 0 0 0 0 0 0 0 0 0 0 127 0" result="hardAlpha"/>
<feOffset dy="20"/>
<feComposite in2="hardAlpha" operator="out"/>
<feColorMatrix type="matrix" values="0 0 0 0 0 0 0 0 0 0 0 0 0 0 0 0 0 0 0.05 0"/>
<feBlend mode="normal" in2="BackgroundImageFix" result="effect1_dropShadow_44_5"/>
<feBlend mode="normal" in="SourceGraphic" in2="effect1_dropShadow_44_5" result="shape"/>
</filter>
<linearGradient id="paint0_linear_44_5" x1="80.1457" y1="-4.81507e-06" x2="228.425" y2="129.56" gradientUnits="userSpaceOnUse">
<stop stop-color="#01BCB2"/>
<stop offset="0.548078" stop-color="#9727FF"/>
<stop offset="1" stop-color="#002C79"/>
</linearGradient>
</defs>
</svg>
