<svg width="329" height="310" viewBox="0 0 329 310" fill="none" xmlns="http://www.w3.org/2000/svg">
<g filter="url(#filter0_d_46_7)">
<rect x="10" width="308.385" height="280" rx="14" fill="white"/>
<rect x="12" y="2" width="304.385" height="276" rx="12" stroke="url(#paint0_linear_46_7)" stroke-width="4"/>
</g>
<path d="M135.378 65.9138H143.934C144.085 65.9138 144.23 65.8537 144.337 65.7467C144.444 65.6398 144.504 65.4947 144.504 65.3434C144.504 65.1921 144.444 65.047 144.337 64.9401C144.23 64.8331 144.085 64.773 143.934 64.773H135.378C135.227 64.773 135.082 64.8331 134.975 64.9401C134.868 65.047 134.808 65.1921 134.808 65.3434C134.808 65.4947 134.868 65.6398 134.975 65.7467C135.082 65.8537 135.227 65.9138 135.378 65.9138Z" fill="black"/>
<path d="M145.685 69.9063C145.685 69.755 145.625 69.61 145.518 69.503C145.411 69.396 145.266 69.3359 145.115 69.3359H135.378C135.227 69.3359 135.082 69.396 134.975 69.503C134.868 69.61 134.808 69.755 134.808 69.9063C134.808 70.0576 134.868 70.2027 134.975 70.3097C135.082 70.4166 135.227 70.4767 135.378 70.4767H145.115C145.266 70.4767 145.411 70.4166 145.518 70.3096C145.625 70.2027 145.685 70.0576 145.685 69.9063Z" fill="black"/>
<path d="M141.128 73.899H135.378C135.227 73.899 135.082 73.9591 134.975 74.066C134.868 74.173 134.808 74.3181 134.808 74.4694C134.808 74.6207 134.868 74.7657 134.975 74.8727C135.082 74.9797 135.227 75.0398 135.378 75.0398H141.128C141.279 75.0398 141.424 74.9797 141.531 74.8727C141.638 74.7657 141.698 74.6207 141.698 74.4694C141.698 74.3181 141.638 74.173 141.531 74.066C141.424 73.9591 141.279 73.899 141.128 73.899Z" fill="black"/>
<path d="M135.378 79.6027H140.603C140.754 79.6016 140.898 79.5411 141.004 79.4342C141.11 79.3273 141.169 79.1829 141.169 79.0323C141.169 78.8817 141.11 78.7373 141.004 78.6304C140.898 78.5236 140.754 78.463 140.603 78.4619H135.378C135.303 78.4614 135.228 78.4758 135.159 78.5042C135.089 78.5326 135.026 78.5745 134.972 78.6276C134.919 78.6806 134.877 78.7436 134.848 78.8131C134.819 78.8826 134.804 78.9571 134.804 79.0323C134.804 79.1075 134.819 79.182 134.848 79.2515C134.877 79.321 134.919 79.384 134.972 79.4371C135.026 79.4901 135.089 79.532 135.159 79.5604C135.228 79.5888 135.303 79.6032 135.378 79.6027Z" fill="black"/>
<path d="M135.378 84.1657H142.69C142.766 84.1663 142.84 84.1519 142.91 84.1235C142.98 84.095 143.043 84.0531 143.096 84.0001C143.15 83.9471 143.192 83.884 143.221 83.8146C143.25 83.7451 143.265 83.6706 143.265 83.5954C143.265 83.5201 143.25 83.4456 143.221 83.3761C143.192 83.3067 143.15 83.2436 143.096 83.1906C143.043 83.1376 142.98 83.0957 142.91 83.0672C142.84 83.0388 142.766 83.0244 142.69 83.025H135.378C135.303 83.0244 135.228 83.0388 135.159 83.0672C135.089 83.0957 135.026 83.1376 134.972 83.1906C134.919 83.2436 134.877 83.3067 134.848 83.3761C134.819 83.4456 134.804 83.5201 134.804 83.5954C134.804 83.6706 134.819 83.7451 134.848 83.8146C134.877 83.884 134.919 83.9471 134.972 84.0001C135.026 84.0531 135.089 84.095 135.159 84.1235C135.228 84.1519 135.303 84.1663 135.378 84.1657Z" fill="black"/>
<path d="M153.544 86.6505C153.245 86.8896 152.873 87.0191 152.49 87.0176H135.378C134.925 87.0171 134.49 86.8367 134.169 86.5159C133.848 86.1951 133.668 85.7601 133.667 85.3065V59.0692C133.668 58.6156 133.848 58.1806 134.169 57.8598C134.49 57.5391 134.925 57.3586 135.378 57.3581H146.215C146.518 57.3587 146.808 57.4791 147.021 57.6929C147.235 57.9067 147.356 58.1965 147.356 58.4989V61.3508C147.357 62.1069 147.658 62.8317 148.193 63.3664C148.727 63.901 149.452 64.2018 150.208 64.2027H153.06C153.362 64.2032 153.652 64.3236 153.866 64.5374C154.08 64.7512 154.2 65.0411 154.201 65.3434V70.4938C154.2 70.569 154.215 70.6436 154.243 70.7133C154.271 70.783 154.313 70.8463 154.366 70.8997C154.419 70.9531 154.482 70.9955 154.552 71.0244C154.621 71.0533 154.696 71.0682 154.771 71.0682C154.846 71.0682 154.921 71.0533 154.99 71.0244C155.06 70.9955 155.123 70.9531 155.176 70.8997C155.229 70.8463 155.271 70.783 155.299 70.7133C155.328 70.6436 155.342 70.569 155.341 70.4938V65.3434C155.342 65.0437 155.283 64.7469 155.169 64.4701C155.054 64.1933 154.885 63.942 154.673 63.7308L147.828 56.8863C147.617 56.6737 147.366 56.5051 147.089 56.3903C146.812 56.2755 146.515 56.2167 146.215 56.2174H135.378C134.622 56.2182 133.897 56.519 133.363 57.0536C132.828 57.5883 132.527 58.3131 132.526 59.0692V85.3065C132.527 86.0626 132.828 86.7874 133.363 87.3221C133.897 87.8567 134.622 88.1575 135.378 88.1583H152.49C153.13 88.1576 153.751 87.9412 154.253 87.544C154.312 87.4974 154.361 87.4398 154.397 87.3743C154.433 87.3088 154.457 87.2368 154.465 87.1624C154.474 87.088 154.468 87.0127 154.447 86.9407C154.426 86.8686 154.392 86.8014 154.345 86.7427C154.299 86.6841 154.241 86.6351 154.176 86.5988C154.11 86.5624 154.038 86.5392 153.964 86.5307C153.889 86.5221 153.814 86.5283 153.742 86.5489C153.67 86.5694 153.603 86.604 153.544 86.6505ZM148.497 59.1684L152.39 63.0618H150.208C149.754 63.0614 149.319 62.8809 148.999 62.5601C148.678 62.2393 148.497 61.8044 148.497 61.3507V59.1684Z" fill="black"/>
<path d="M159.38 85.1069C159.38 85.1069 156.63 82.3576 155.718 81.4451C156.393 80.3261 156.75 79.0443 156.75 77.7376C156.75 76.3012 156.323 74.8973 155.525 73.7032C154.727 72.5091 153.592 71.5785 152.265 71.0291C150.938 70.4797 149.477 70.3361 148.069 70.6165C146.66 70.8968 145.366 71.5886 144.35 72.6042C143.335 73.6199 142.643 74.9139 142.362 76.3227C142.082 77.7314 142.226 79.1917 142.775 80.5188C143.325 81.846 144.255 82.9805 145.449 83.7788C146.643 84.5772 148.047 85.0036 149.484 85.0042C150.79 85.0037 152.072 84.6467 153.191 83.9718L156.853 87.6336C157.019 87.8 157.216 87.932 157.433 88.0222C157.649 88.1124 157.882 88.1589 158.117 88.1591C158.352 88.1593 158.584 88.1132 158.801 88.0234C159.019 87.9336 159.216 87.8019 159.382 87.6358C159.548 87.4697 159.68 87.2725 159.769 87.0554C159.859 86.8384 159.905 86.6057 159.905 86.3708C159.905 86.136 159.858 85.9034 159.768 85.6865C159.678 85.4696 159.546 85.2727 159.38 85.1069ZM149.484 83.8634C148.273 83.8629 147.089 83.5034 146.083 82.8303C145.076 82.1573 144.292 81.201 143.829 80.0823C143.366 78.9636 143.245 77.7327 143.481 76.5452C143.718 75.3578 144.301 74.267 145.157 73.4109C146.013 72.5547 147.104 71.9716 148.291 71.7353C149.479 71.499 150.71 71.62 151.828 72.083C152.947 72.5461 153.903 73.3305 154.576 74.337C155.249 75.3434 155.609 76.5269 155.609 77.7376C155.608 79.362 154.963 80.9196 153.814 82.0682C152.666 83.2168 151.108 83.8625 149.484 83.8634ZM158.575 86.8294C158.453 86.95 158.288 87.0176 158.116 87.0176C157.944 87.0176 157.779 86.95 157.657 86.8294C157.657 86.8294 155.108 84.2741 154.138 83.3102C154.469 83.0303 154.776 82.7231 155.056 82.3919C155.746 83.0877 158.575 85.9111 158.575 85.9111C158.696 86.0335 158.764 86.1984 158.764 86.3703C158.764 86.5421 158.696 86.707 158.575 86.8294Z" fill="black"/>
<path d="M150.386 80.6588H150.101V76.6662C150.101 76.5913 150.086 76.5171 150.057 76.4479C150.029 76.3787 149.987 76.3158 149.934 76.2628C149.881 76.2098 149.818 76.1678 149.749 76.1392C149.68 76.1105 149.605 76.0958 149.53 76.0958H148.675C148.6 76.0952 148.525 76.1096 148.455 76.138C148.386 76.1665 148.322 76.2084 148.269 76.2614C148.216 76.3144 148.173 76.3775 148.144 76.4469C148.115 76.5164 148.1 76.5909 148.1 76.6662C148.1 76.7414 148.115 76.8159 148.144 76.8854C148.173 76.9548 148.216 77.0179 148.269 77.0709C148.322 77.1239 148.386 77.1658 148.455 77.1943C148.525 77.2227 148.6 77.2371 148.675 77.2365H148.96V80.6588H148.675C148.6 80.6582 148.525 80.6726 148.455 80.701C148.386 80.7295 148.322 80.7714 148.269 80.8244C148.216 80.8774 148.173 80.9405 148.144 81.0099C148.115 81.0794 148.1 81.1539 148.1 81.2292C148.1 81.3044 148.115 81.3789 148.144 81.4484C148.173 81.5178 148.216 81.5809 148.269 81.6339C148.322 81.6869 148.386 81.7288 148.455 81.7573C148.525 81.7857 148.6 81.8001 148.675 81.7995H150.386C150.537 81.7985 150.681 81.7379 150.787 81.631C150.893 81.5242 150.952 81.3797 150.952 81.2292C150.952 81.0786 150.893 80.9341 150.787 80.8273C150.681 80.7204 150.537 80.6599 150.386 80.6588Z" fill="black"/>
<path d="M149.529 75.0967C149.923 75.0967 150.242 74.7775 150.242 74.3837C150.242 73.9899 149.923 73.6707 149.529 73.6707C149.135 73.6707 148.816 73.9899 148.816 74.3837C148.816 74.7775 149.135 75.0967 149.529 75.0967Z" fill="black"/>
<path fill-rule="evenodd" clip-rule="evenodd" d="M221.428 44.83L221.967 45.1413C222.218 45.2862 222.304 45.6078 222.159 45.859C222.014 46.1101 221.693 46.1963 221.442 46.0513L219.8 45.1036C219.549 44.9586 219.463 44.6373 219.608 44.3859L220.556 42.7446C220.701 42.4934 221.022 42.4073 221.273 42.5523C221.524 42.6973 221.611 43.0189 221.466 43.27C221.466 43.27 221.313 43.535 221.151 43.8145C224.102 42.8158 226.228 40.0222 226.228 36.7361C226.228 33.0977 223.621 30.063 220.175 29.4C219.89 29.3452 219.704 29.0696 219.758 28.7848C219.813 28.5 220.089 28.3133 220.374 28.3681C224.305 29.1244 227.279 32.5857 227.279 36.7361C227.279 40.5066 224.825 43.7083 221.428 44.83ZM216.969 29.4811C213.708 30.2832 211.287 33.2292 211.287 36.7361C211.287 40.3746 213.893 43.4093 217.339 44.0723C217.624 44.1271 217.811 44.4027 217.756 44.6875C217.701 44.9723 217.426 45.159 217.141 45.1042C213.21 44.3479 210.236 40.8867 210.236 36.7361C210.236 32.765 212.958 29.4248 216.637 28.4811L216.133 28.19C215.882 28.0451 215.795 27.7235 215.94 27.4723C216.085 27.2212 216.407 27.135 216.658 27.28L218.299 28.2276C218.551 28.3727 218.637 28.694 218.492 28.9454L217.544 30.5867C217.399 30.8378 217.078 30.924 216.826 30.779C216.575 30.634 216.489 30.3124 216.634 30.0613C216.634 30.0613 216.8 29.7733 216.969 29.4811ZM197.016 49.5784C197.038 49.6065 197.076 49.652 197.106 49.6791C197.218 49.7768 197.365 49.8631 197.522 49.9312C197.694 50.0054 197.879 50.0581 198.05 50.0716C198.282 50.0898 198.474 50.2585 198.523 50.4862C198.571 50.7138 198.464 50.9462 198.259 51.0572C197.952 51.2242 197.645 51.427 197.434 51.6478C197.376 51.708 197.326 51.7686 197.29 51.8308C197.27 51.8653 197.247 51.8959 197.251 51.9302C197.256 51.9714 197.299 51.9968 197.344 52.0316C197.77 52.3478 198.136 52.9234 198.151 54.5678C198.151 54.5779 198.151 54.5879 198.151 54.5979C198.142 54.7767 198.256 54.8747 198.449 54.9298C198.87 55.0498 199.509 55.0179 200.367 54.8698C201.982 54.507 203.261 54.6583 204.209 55.2615C205.168 55.8712 205.818 56.9551 206.102 58.5462C206.153 58.8316 205.963 59.1047 205.677 59.1557C205.392 59.2067 205.119 59.0163 205.068 58.7308C204.847 57.4935 204.391 56.6225 203.646 56.1483C202.892 55.6692 201.871 55.6073 200.587 55.8975C200.578 55.8995 200.57 55.9012 200.561 55.9027C199.486 56.0892 198.686 56.0901 198.161 55.9403C197.799 55.837 197.54 55.6626 197.367 55.4432C197.183 55.2097 197.086 54.9186 197.1 54.5638C197.094 53.9609 197.046 53.5479 196.954 53.2573C196.894 53.0669 196.819 52.9501 196.716 52.8742C196.713 52.8719 196.71 52.8696 196.707 52.8672C196.367 52.6041 196.229 52.3085 196.204 52.021C196.18 51.7435 196.267 51.454 196.462 51.1769C196.562 51.0357 196.693 50.8952 196.845 50.7601C196.564 50.6041 196.323 50.4123 196.175 50.2141C195.947 49.9077 195.893 49.58 196.009 49.2789C196.09 48.9955 196.138 48.762 196.15 48.567C196.167 48.3036 196.102 48.1545 195.928 48.0632C195.27 47.7385 194.903 47.3389 194.768 46.9266C194.62 46.4736 194.713 45.9587 195.146 45.4059C195.154 45.3949 195.163 45.3843 195.173 45.374C195.825 44.6661 196.342 43.9511 196.722 43.2192C196.722 43.2187 196.722 43.2181 196.723 43.2175C197.043 42.6056 197.16 41.9972 197.09 41.3087C197.051 40.9252 197.033 40.5372 197.033 40.1406C197.033 33.7517 202.21 28.5711 208.598 28.5711C209.856 28.5711 211.067 28.7717 212.2 29.1426C212.476 29.2328 212.627 29.5298 212.536 29.8054C212.446 30.081 212.149 30.2315 211.874 30.1414C210.843 29.8041 209.742 29.6219 208.598 29.6219C202.79 29.6219 198.084 34.3321 198.084 40.1406C198.084 40.501 198.1 40.8534 198.136 41.2018C198.136 41.2024 198.136 41.2028 198.136 41.2033C198.227 42.1054 198.074 42.9023 197.654 43.7041C197.237 44.5069 196.674 45.2932 195.96 46.0703C195.806 46.2689 195.713 46.4356 195.767 46.5998C195.835 46.8076 196.065 46.9595 196.397 47.1229C196.4 47.1245 196.403 47.126 196.406 47.1276C196.645 47.2508 196.829 47.4065 196.963 47.6037C197.219 47.9831 197.305 48.5718 197.016 49.5784ZM217.263 46.1084C217.428 45.8697 217.755 45.8095 217.994 45.9741C218.233 46.1386 218.293 46.4661 218.129 46.7048C217.911 47.0212 217.677 47.326 217.43 47.6184L217.429 47.6194C216.97 48.1585 216.718 48.7412 216.642 49.4442L216.642 49.4449C216.352 52.0756 217.072 55.1478 218.674 58.4066C218.802 58.6668 218.695 58.982 218.435 59.11C218.175 59.2379 217.859 59.1306 217.732 58.8704C216.026 55.4036 215.289 52.1291 215.597 49.3304C215.698 48.4093 216.027 47.6455 216.628 46.9391C216.853 46.6733 217.065 46.396 217.263 46.1084ZM212.375 36.3452C214.643 34.3082 216.847 33.3308 218.967 33.3397C221.102 33.3488 223.174 34.3524 225.163 36.367C225.365 36.5716 225.365 36.9007 225.163 37.1053C223.174 39.1199 221.102 40.1236 218.967 40.1326C216.847 40.1415 214.643 39.1641 212.375 37.1271C212.264 37.0275 212.2 36.8853 212.2 36.7361C212.2 36.587 212.264 36.4448 212.375 36.3452ZM216.922 34.7304C215.813 35.1 214.682 35.77 213.527 36.7361C214.682 37.7024 215.813 38.3723 216.922 38.7419C216.379 38.2446 216.038 37.5298 216.038 36.7361C216.038 35.9425 216.379 35.2277 216.922 34.7304ZM220.415 38.8914C221.651 38.5701 222.856 37.845 224.037 36.7361C222.856 35.6274 221.651 34.9022 220.415 34.5809C221.06 35.0783 221.476 35.859 221.476 36.7361C221.476 37.6133 221.06 38.394 220.415 38.8914ZM218.757 35.0679C217.836 35.0679 217.089 35.8154 217.089 36.7361C217.089 37.6569 217.836 38.4045 218.757 38.4045C219.678 38.4045 220.426 37.6569 220.426 36.7361C220.426 35.8154 219.678 35.0679 218.757 35.0679Z" fill="black"/>
<path d="M260.671 175.691L258.596 177.766C258.289 178.072 258.289 178.574 258.596 178.88L258.793 179.078L261.675 181.96L261.873 182.157C262.179 182.464 262.681 182.464 262.988 182.157L265.062 180.083" stroke="black" stroke-width="1.05052" stroke-miterlimit="10" stroke-linecap="round" stroke-linejoin="round"/>
<path d="M258.969 168.201C259.216 165.353 260.43 162.571 262.612 160.389C267.525 155.476 275.482 155.467 280.384 160.369C285.286 165.272 285.277 173.228 280.364 178.141C275.451 183.054 267.494 183.063 262.592 178.161C260.452 176.02 259.248 173.297 258.979 170.5" stroke="black" stroke-width="1.05052" stroke-miterlimit="10" stroke-linecap="round" stroke-linejoin="round"/>
<path d="M279.302 163.077C282.399 166.982 282.137 172.68 278.52 176.297C274.628 180.19 268.324 180.197 264.44 176.313C260.557 172.429 260.564 166.126 264.456 162.233C268.073 158.616 273.772 158.354 277.676 161.451" stroke="black" stroke-width="1.05052" stroke-miterlimit="10" stroke-linecap="round" stroke-linejoin="round"/>
<path d="M276.339 164.226C277.641 167.168 277.131 170.716 274.814 173.194" stroke="black" stroke-width="1.05052" stroke-miterlimit="10" stroke-linecap="round" stroke-linejoin="round"/>
<path d="M273.163 171.94C275.582 169.521 275.586 165.611 273.173 163.198C273.054 163.079 272.932 162.967 272.807 162.86" stroke="black" stroke-width="1.05052" stroke-miterlimit="10" stroke-linecap="round" stroke-linejoin="round"/>
<path d="M265.886 164.663C267.498 163.05 270.105 163.048 271.714 164.657C273.323 166.266 273.32 168.872 271.708 170.485" stroke="black" stroke-width="1.05052" stroke-miterlimit="10" stroke-linecap="round" stroke-linejoin="round"/>
<path d="M270.252 169.029C271.058 168.223 271.06 166.92 270.255 166.115C269.451 165.311 268.148 165.312 267.341 166.118" stroke="black" stroke-width="1.05052" stroke-miterlimit="10" stroke-linecap="round" stroke-linejoin="round"/>
<path d="M267.341 166.118C264.923 168.537 264.918 172.447 267.332 174.861C269.745 177.274 273.655 177.27 276.074 174.851" stroke="black" stroke-width="1.05052" stroke-miterlimit="10" stroke-linecap="round" stroke-linejoin="round"/>
<path d="M272.876 174.436C271.474 174.852 269.896 174.508 268.79 173.402C267.181 171.793 267.184 169.186 268.797 167.574" stroke="black" stroke-width="1.05052" stroke-miterlimit="10" stroke-linecap="round" stroke-linejoin="round"/>
<path d="M270.252 169.029C269.446 169.836 269.444 171.139 270.249 171.943C271.053 172.748 272.357 172.746 273.163 171.94" stroke="black" stroke-width="1.05052" stroke-miterlimit="10" stroke-linecap="round" stroke-linejoin="round"/>
<path d="M257.376 187.666L256.291 188.752C255.543 189.5 254.368 189.55 253.681 188.862L251.891 187.072C251.204 186.385 251.253 185.211 252.001 184.463L253.087 183.377L257.376 187.666Z" stroke="black" stroke-width="1.05052" stroke-miterlimit="10" stroke-linecap="round" stroke-linejoin="round"/>
<path d="M258.897 184.738L256.673 186.962" stroke="black" stroke-width="1.05052" stroke-miterlimit="10" stroke-linecap="round" stroke-linejoin="round"/>
<path d="M261.675 181.96L260.523 183.112" stroke="black" stroke-width="1.05052" stroke-miterlimit="10" stroke-linecap="round" stroke-linejoin="round"/>
<path d="M253.791 184.081L258.794 179.078" stroke="black" stroke-width="1.05052" stroke-miterlimit="10" stroke-linecap="round" stroke-linejoin="round"/>
<path d="M258.83 181.923L256.599 184.154" stroke="black" stroke-width="1.05052" stroke-miterlimit="10" stroke-linecap="round" stroke-linejoin="round"/>
<circle cx="277.358" cy="173.185" r="0.492681" fill="black"/>
<circle cx="278.303" cy="171.573" r="0.492681" fill="black"/>
<circle cx="271.133" cy="161.957" r="0.492681" fill="black"/>
<mask id="mask0_46_7" style="mask-type:luminance" maskUnits="userSpaceOnUse" x="32" y="61" width="31" height="31">
<path d="M32.3524 61.0984H62.6063V91.3523H32.3524V61.0984Z" fill="white"/>
</mask>
<g mask="url(#mask0_46_7)">
<path d="M47.4792 77.4071C44.8728 77.4071 42.7521 75.2864 42.7521 72.6799C42.7521 70.0735 44.8728 67.9528 47.4792 67.9528C50.0857 67.9528 52.2064 70.0735 52.2064 72.6799C52.2064 75.2864 50.0857 77.4071 47.4792 77.4071Z" stroke="black" stroke-width="1.55191" stroke-miterlimit="10" stroke-linecap="round" stroke-linejoin="round"/>
<path d="M38.6543 87.8051C38.6549 87.7974 38.6555 87.7898 38.6567 87.7821C39.0851 83.2865 42.8715 79.7707 47.4793 79.7707C52.0871 79.7707 55.873 83.2859 56.3026 87.7815" stroke="black" stroke-width="1.55191" stroke-miterlimit="10" stroke-linecap="round" stroke-linejoin="round"/>
<path d="M58.9427 66.5346C58.9427 66.8609 58.6781 67.1255 58.3518 67.1255C58.0255 67.1255 57.7609 66.8609 57.7609 66.5346C57.7609 66.2082 58.0255 65.9437 58.3518 65.9437C58.6781 65.9437 58.9427 66.2082 58.9427 66.5346Z" fill="black"/>
<path d="M59.913 68.6859C61.2473 70.8834 62.0153 73.4637 62.0153 76.2252C62.0153 80.94 59.7764 85.1271 56.3026 87.7814V87.782C53.8568 89.6516 50.7989 90.7613 47.4793 90.7613C44.1602 90.7613 41.1023 89.6516 38.6567 87.782C35.1827 85.1277 32.9432 80.9406 32.9432 76.2252C32.9432 68.1914 39.4443 61.6892 47.4793 61.6892C50.8398 61.6892 53.9323 62.8267 56.393 64.7381" stroke="black" stroke-width="1.55191" stroke-miterlimit="10" stroke-linecap="round" stroke-linejoin="round"/>
</g>
<path d="M218.262 96.4975C218.367 96.6517 218.542 96.744 218.728 96.744C218.915 96.744 219.09 96.6517 219.195 96.4975L225.375 87.4276L225.583 87.1225C227.009 85.0362 228.241 83.2345 228.241 80.2043C228.241 74.9591 223.974 70.6919 218.728 70.6919C213.483 70.6919 209.216 74.9591 209.216 80.2043C209.216 83.2218 210.386 84.9382 211.867 87.1112L218.262 96.4975ZM218.728 71.8202C223.352 71.8202 227.113 75.5813 227.113 80.2043C227.113 82.8857 226.08 84.3958 224.652 86.4858L224.442 86.7923L218.728 95.178L212.817 86.5018L212.799 86.4759C211.374 84.3848 210.344 82.8739 210.344 80.2044C210.344 75.5813 214.105 71.8202 218.728 71.8202Z" fill="black"/>
<path d="M218.729 83.9251C220.78 83.9251 222.449 82.256 222.449 80.2043C222.449 78.1526 220.78 76.4835 218.729 76.4835C216.677 76.4835 215.008 78.1527 215.008 80.2043C215.008 82.256 216.677 83.9251 218.729 83.9251ZM218.729 77.6118C220.158 77.6118 221.321 78.7748 221.321 80.2043C221.321 81.6339 220.158 82.7969 218.729 82.7969C217.299 82.7969 216.136 81.6339 216.136 80.2043C216.136 78.7748 217.299 77.6118 218.729 77.6118Z" fill="black"/>
<path d="M229.586 93.9208C228.502 93.4547 226.961 93.0637 225.13 92.7902C224.822 92.7441 224.535 92.9566 224.489 93.2647C224.443 93.5729 224.655 93.86 224.963 93.906C226.699 94.1654 228.144 94.529 229.141 94.9575C230.099 95.3693 230.44 95.7563 230.44 95.9626C230.44 96.2469 229.778 96.9488 227.272 97.5711C224.997 98.1362 221.963 98.4475 218.729 98.4475C215.494 98.4475 212.46 98.1362 210.185 97.5711C207.68 96.9488 207.018 96.2468 207.018 95.9626C207.018 95.7563 207.358 95.3692 208.316 94.9574C209.313 94.5289 210.758 94.1653 212.494 93.906C212.802 93.8599 213.015 93.5728 212.969 93.2647C212.923 92.9565 212.636 92.7441 212.327 92.7901C210.497 93.0635 208.956 93.4545 207.871 93.9207C206.556 94.4857 205.889 95.1726 205.889 95.9625C205.889 97.0933 207.243 98.0029 209.913 98.666C212.274 99.2527 215.405 99.5757 218.729 99.5757C222.052 99.5757 225.183 99.2526 227.544 98.6661C230.214 98.0029 231.568 97.0934 231.568 95.9626C231.568 95.1727 230.901 94.4858 229.586 93.9208Z" fill="black"/>
<g filter="url(#filter1_d_46_7)">
<path d="M44.3994 207.5C44.3994 204.368 46.9385 201.829 50.0706 201.829H100.042C103.174 201.829 105.713 204.368 105.713 207.5V222.846C105.713 225.978 103.174 228.518 100.042 228.518H50.0706C46.9385 228.518 44.3994 225.978 44.3994 222.846V207.5Z" fill="white"/>
<path d="M50.0703 202.031H100.042C103.062 202.031 105.511 204.48 105.511 207.5V222.846C105.511 225.867 103.062 228.315 100.042 228.315H50.0703C47.0503 228.315 44.6017 225.867 44.6016 222.846V207.5C44.6017 204.48 47.0503 202.031 50.0703 202.031Z" stroke="#E5E7EB" stroke-width="0.405088"/>
</g>
<g filter="url(#filter2_d_46_7)">
<path d="M205.681 207.5C205.681 204.368 208.22 201.829 211.352 201.829H261.323C264.455 201.829 266.994 204.368 266.994 207.5V222.846C266.994 225.978 264.455 228.518 261.323 228.518H211.352C208.22 228.518 205.681 225.978 205.681 222.846V207.5Z" fill="white"/>
<path d="M211.352 202.031H261.323C264.343 202.031 266.792 204.48 266.792 207.5V222.846C266.792 225.867 264.343 228.315 261.323 228.315H211.352C208.332 228.315 205.883 225.867 205.883 222.846V207.5C205.883 204.48 208.332 202.031 211.352 202.031Z" stroke="#E5E7EB" stroke-width="0.405088"/>
</g>
<g filter="url(#filter3_d_46_7)">
<path d="M108.679 207.5C108.679 204.368 111.218 201.829 114.35 201.829H197.043C200.176 201.829 202.715 204.368 202.715 207.5V222.846C202.715 225.978 200.176 228.518 197.043 228.518H114.35C111.218 228.518 108.679 225.978 108.679 222.846V207.5Z" fill="white"/>
<path d="M114.35 202.031H197.043C200.063 202.031 202.512 204.48 202.512 207.5V222.846C202.512 225.867 200.063 228.315 197.043 228.315H114.35C111.33 228.315 108.881 225.867 108.881 222.846V207.5C108.881 204.48 111.33 202.031 114.35 202.031Z" stroke="#E5E7EB" stroke-width="0.405088"/>
</g>
<g filter="url(#filter4_d_46_7)">
<circle cx="88.527" cy="66.9277" r="17.4603" fill="white"/>
<circle cx="88.527" cy="66.9277" r="17.2577" stroke="#A5A5A5" stroke-width="0.405088"/>
</g>
<g filter="url(#filter5_d_46_7)">
<circle cx="62.0488" cy="130.363" r="17.4603" fill="white"/>
<circle cx="62.0488" cy="130.363" r="17.2577" stroke="#A5A5A5" stroke-width="0.405088"/>
</g>
<g filter="url(#filter6_d_46_7)">
<circle cx="111.987" cy="130.363" r="17.4603" fill="white"/>
<circle cx="111.987" cy="130.363" r="17.2577" stroke="#A5A5A5" stroke-width="0.405088"/>
</g>
<g filter="url(#filter7_d_46_7)">
<circle cx="178.227" cy="68.1494" r="17.4603" fill="white"/>
<circle cx="178.227" cy="68.1494" r="17.2577" stroke="#A5A5A5" stroke-width="0.405088"/>
</g>
<g filter="url(#filter8_d_46_7)">
<circle cx="154.159" cy="130.363" r="17.4603" fill="white"/>
<circle cx="154.159" cy="130.363" r="17.2577" stroke="#A5A5A5" stroke-width="0.405088"/>
</g>
<g filter="url(#filter9_d_46_7)">
<circle cx="204.097" cy="130.363" r="17.4603" fill="white"/>
<circle cx="204.097" cy="130.363" r="17.2577" stroke="#A5A5A5" stroke-width="0.405088"/>
</g>
<g filter="url(#filter10_d_46_7)">
<circle cx="272.539" cy="68.1494" r="17.4603" fill="white"/>
<circle cx="272.539" cy="68.1494" r="17.2577" stroke="#A5A5A5" stroke-width="0.405088"/>
</g>
<g filter="url(#filter11_d_46_7)">
<circle cx="272.539" cy="130.363" r="17.4603" fill="white"/>
<circle cx="272.539" cy="130.363" r="17.2577" stroke="#A5A5A5" stroke-width="0.405088"/>
</g>
<path d="M105.875 110.149C106.09 110.21 106.315 110.086 106.377 109.871L107.384 106.367C107.445 106.152 107.321 105.928 107.106 105.866C106.891 105.804 106.667 105.928 106.605 106.143L105.71 109.258L102.595 108.363C102.38 108.301 102.156 108.425 102.094 108.64C102.032 108.855 102.156 109.08 102.371 109.142L105.875 110.149ZM93.8417 87.8177L93.4873 88.0139L105.633 109.955L105.987 109.759L106.342 109.563L94.1961 87.6216L93.8417 87.8177Z" fill="#C6C6C6"/>
<path d="M166.822 109.892C166.895 110.103 167.126 110.215 167.337 110.142L170.782 108.948C170.993 108.875 171.105 108.644 171.032 108.432C170.959 108.221 170.728 108.109 170.517 108.182L167.455 109.244L166.393 106.182C166.32 105.97 166.089 105.859 165.878 105.932C165.666 106.005 165.554 106.236 165.628 106.447L166.822 109.892ZM178.227 87.041L177.862 86.8641L166.84 109.582L167.205 109.759L167.569 109.936L178.591 87.2178L178.227 87.041Z" fill="#C6C6C6"/>
<path d="M194.773 87.4189C194.552 87.38 194.342 87.5272 194.303 87.7475L193.67 91.3379C193.631 91.5582 193.778 91.7683 193.999 91.8072C194.219 91.846 194.429 91.6989 194.468 91.4786L195.031 88.2871L198.222 88.8498C198.443 88.8887 198.653 88.7416 198.692 88.5212C198.73 88.3009 198.583 88.0908 198.363 88.052L194.773 87.4189ZM212.729 113.563L213.061 113.331L195.034 87.5855L194.702 87.8178L194.37 88.0502L212.397 113.795L212.729 113.563Z" fill="#C6C6C6"/>
<path d="M105.855 81.8303C105.644 81.9033 105.531 82.1339 105.604 82.3454L106.793 85.792C106.866 86.0035 107.096 86.1158 107.308 86.0429C107.519 85.9699 107.632 85.7393 107.559 85.5278L106.502 82.4642L109.566 81.4077C109.777 81.3348 109.89 81.1042 109.817 80.8927C109.744 80.6812 109.513 80.5688 109.302 80.6418L105.855 81.8303ZM186.636 121.502L186.814 121.138L106.165 81.8491L105.987 82.2133L105.81 82.5775L186.459 121.866L186.636 121.502Z" fill="#C6C6C6"/>
<path d="M69.1735 149.135C68.9531 149.097 68.743 149.244 68.7042 149.464L68.0711 153.054C68.0323 153.275 68.1794 153.485 68.3997 153.524C68.62 153.563 68.8301 153.415 68.869 153.195L69.4317 150.004L72.6232 150.566C72.8435 150.605 73.0536 150.458 73.0925 150.238C73.1313 150.018 72.9842 149.807 72.7639 149.769L69.1735 149.135ZM87.13 175.279L87.4618 175.047L69.435 149.302L69.1031 149.534L68.7713 149.767L86.7982 175.512L87.13 175.279Z" fill="#C6C6C6"/>
<path d="M255.479 89.5698C255.515 89.349 255.365 89.1409 255.144 89.105L251.545 88.5205C251.324 88.4846 251.116 88.6345 251.08 88.8554C251.044 89.0762 251.194 89.2843 251.415 89.3202L254.614 89.8398L254.094 93.0385C254.059 93.2594 254.208 93.4675 254.429 93.5033C254.65 93.5392 254.858 93.3893 254.894 93.1684L255.479 89.5698ZM218.591 115.795L218.828 116.124L255.316 89.8335L255.079 89.5049L254.842 89.1762L218.354 115.467L218.591 115.795Z" fill="#C6C6C6"/>
<path d="M110.548 151.696C110.388 151.539 110.131 151.542 109.975 151.701L107.423 154.305C107.266 154.465 107.269 154.721 107.428 154.878C107.588 155.034 107.845 155.032 108.001 154.872L110.27 152.558L112.584 154.826C112.744 154.983 113 154.98 113.157 154.821C113.313 154.661 113.311 154.404 113.151 154.248L110.548 151.696ZM110.441 169.719L110.846 169.714L110.669 151.981L110.264 151.985L109.859 151.989L110.036 169.723L110.441 169.719Z" fill="#C6C6C6"/>
<path d="M247.164 131.303C247.322 131.145 247.322 130.889 247.164 130.73L244.586 128.153C244.428 127.994 244.172 127.994 244.013 128.153C243.855 128.311 243.855 128.567 244.013 128.725L246.305 131.017L244.013 133.308C243.855 133.467 243.855 133.723 244.013 133.881C244.172 134.04 244.428 134.04 244.586 133.881L247.164 131.303ZM229.758 131.017V131.422H246.878V131.017V130.612H229.758V131.017Z" fill="#C6C6C6"/>
<path d="M80.4792 87.7475C80.4403 87.5272 80.2302 87.38 80.0099 87.4189L76.4195 88.052C76.1992 88.0908 76.052 88.3009 76.0909 88.5212C76.1297 88.7416 76.3398 88.8887 76.5602 88.8498L79.7516 88.2871L80.3144 91.4786C80.3532 91.6989 80.5633 91.846 80.7836 91.8072C81.004 91.7683 81.1511 91.5582 81.1122 91.3379L80.4792 87.7475ZM62.0533 113.563L62.3852 113.795L80.412 88.0502L80.0802 87.8178L79.7484 87.5855L61.7215 113.331L62.0533 113.563Z" fill="#C6C6C6"/>
<path d="M167.592 89.923C167.528 89.7088 167.302 89.5873 167.088 89.6517L163.597 90.7015C163.382 90.7659 163.261 90.9919 163.325 91.2061C163.39 91.4204 163.616 91.5418 163.83 91.4774L166.933 90.5442L167.866 93.6477C167.931 93.8619 168.157 93.9834 168.371 93.9189C168.585 93.8545 168.707 93.6286 168.642 93.4144L167.592 89.923ZM154.159 114.304L154.515 114.496L167.561 90.2315L167.205 90.0396L166.848 89.8478L153.802 114.112L154.159 114.304Z" fill="#C6C6C6"/>
<path d="M144.01 149.464C143.971 149.244 143.761 149.097 143.541 149.135L139.95 149.769C139.73 149.807 139.583 150.018 139.622 150.238C139.66 150.458 139.871 150.605 140.091 150.566L143.282 150.004L143.845 153.195C143.884 153.415 144.094 153.563 144.314 153.524C144.535 153.485 144.682 153.275 144.643 153.054L144.01 149.464ZM125.584 175.279L125.916 175.512L143.943 149.767L143.611 149.534L143.279 149.302L125.252 175.047L125.584 175.279Z" fill="#C6C6C6"/>
<path d="M193.59 147.825C193.59 147.601 193.41 147.419 193.186 147.418L189.54 147.407C189.316 147.406 189.135 147.587 189.134 147.811C189.133 148.034 189.314 148.216 189.538 148.217L192.778 148.227L192.768 151.468C192.767 151.692 192.948 151.874 193.172 151.874C193.396 151.875 193.578 151.694 193.578 151.471L193.59 147.825ZM165.555 175.279L165.84 175.567L193.47 148.111L193.185 147.824L192.899 147.536L165.269 174.992L165.555 175.279Z" fill="#C6C6C6"/>
<path d="M257.763 147.272C257.847 147.065 257.748 146.828 257.541 146.744L254.167 145.363C253.96 145.278 253.723 145.378 253.639 145.585C253.554 145.792 253.653 146.028 253.86 146.113L256.859 147.34L255.632 150.339C255.548 150.546 255.647 150.783 255.854 150.868C256.061 150.952 256.298 150.853 256.382 150.646L257.763 147.272ZM186.636 176.788L186.793 177.161L257.544 147.492L257.388 147.118L257.231 146.745L186.48 176.414L186.636 176.788Z" fill="#C6C6C6"/>
<g filter="url(#filter12_d_46_7)">
<path d="M44.3994 236.393C44.3994 233.791 46.5092 231.681 49.1117 231.681H156.165C158.768 231.681 160.877 233.791 160.877 236.393C160.877 238.996 158.768 241.106 156.165 241.106H49.1117C46.5092 241.106 44.3994 238.996 44.3994 236.393Z" fill="white"/>
<path d="M49.1113 231.883H156.165C158.656 231.883 160.675 233.903 160.675 236.393C160.675 238.884 158.656 240.903 156.165 240.903H49.1113C46.6208 240.903 44.6016 238.884 44.6016 236.393C44.6018 233.903 46.621 231.884 49.1113 231.883Z" stroke="#E5E7EB" stroke-width="0.405088"/>
</g>
<g filter="url(#filter13_d_46_7)">
<path d="M163.172 236.393C163.172 233.791 165.282 231.681 167.885 231.681H262.282C264.885 231.681 266.994 233.791 266.994 236.393C266.994 238.996 264.885 241.106 262.282 241.106H167.885C165.282 241.106 163.172 238.996 163.172 236.393Z" fill="white"/>
<path d="M167.884 231.883H262.282C264.772 231.883 266.791 233.903 266.791 236.393C266.791 238.884 264.772 240.903 262.282 240.903H167.884C165.394 240.903 163.374 238.884 163.374 236.393C163.375 233.903 165.394 231.884 167.884 231.883Z" stroke="#E5E7EB" stroke-width="0.405088"/>
</g>
<g filter="url(#filter14_d_46_7)">
<path d="M44.3994 195.107C44.3994 193.705 45.536 192.569 46.9379 192.569H264.456C265.858 192.569 266.994 193.705 266.994 195.107C266.994 196.509 265.858 197.646 264.456 197.646H46.9379C45.536 197.646 44.3994 196.509 44.3994 195.107Z" fill="white"/>
<path d="M46.9375 192.771H264.456C265.746 192.771 266.792 193.817 266.792 195.107C266.792 196.397 265.746 197.444 264.456 197.444H46.9375C45.6476 197.444 44.6016 196.397 44.6016 195.107C44.6018 193.817 45.6477 192.771 46.9375 192.771Z" stroke="#E5E7EB" stroke-width="0.405088"/>
</g>
<line x1="47.3745" y1="192.968" x2="47.3745" y2="194.999" stroke="black" stroke-width="0.405088"/>
<line x1="51.4591" y1="192.968" x2="51.4591" y2="194.999" stroke="black" stroke-width="0.405088"/>
<line x1="55.5439" y1="192.968" x2="55.5439" y2="194.999" stroke="black" stroke-width="0.405088"/>
<line x1="59.6286" y1="192.968" x2="59.6286" y2="194.999" stroke="black" stroke-width="0.405088"/>
<line x1="63.7133" y1="192.968" x2="63.7133" y2="194.999" stroke="black" stroke-width="0.405088"/>
<line x1="67.7979" y1="192.968" x2="67.7979" y2="194.999" stroke="black" stroke-width="0.405088"/>
<line x1="71.8827" y1="192.968" x2="71.8827" y2="194.999" stroke="black" stroke-width="0.405088"/>
<line x1="75.9673" y1="192.968" x2="75.9673" y2="194.999" stroke="black" stroke-width="0.405088"/>
<line x1="80.0522" y1="192.968" x2="80.0522" y2="194.999" stroke="black" stroke-width="0.405088"/>
<line x1="84.1367" y1="192.968" x2="84.1367" y2="194.999" stroke="black" stroke-width="0.405088"/>
<line x1="88.2215" y1="192.968" x2="88.2215" y2="194.999" stroke="black" stroke-width="0.405088"/>
<line x1="92.3062" y1="192.968" x2="92.3062" y2="194.999" stroke="black" stroke-width="0.405088"/>
<line x1="96.3907" y1="192.968" x2="96.3907" y2="194.999" stroke="black" stroke-width="0.405088"/>
<line x1="100.475" y1="192.968" x2="100.475" y2="194.999" stroke="black" stroke-width="0.405088"/>
<line x1="104.56" y1="192.968" x2="104.56" y2="194.999" stroke="black" stroke-width="0.405088"/>
<line x1="108.645" y1="192.968" x2="108.645" y2="194.999" stroke="black" stroke-width="0.405088"/>
<line x1="112.729" y1="192.968" x2="112.729" y2="194.999" stroke="black" stroke-width="0.405088"/>
<line x1="116.814" y1="192.968" x2="116.814" y2="194.999" stroke="black" stroke-width="0.405088"/>
<line x1="120.899" y1="192.968" x2="120.899" y2="194.999" stroke="black" stroke-width="0.405088"/>
<line x1="124.984" y1="192.968" x2="124.984" y2="194.999" stroke="black" stroke-width="0.405088"/>
<line x1="129.068" y1="192.968" x2="129.068" y2="194.999" stroke="black" stroke-width="0.405088"/>
<line x1="133.153" y1="192.968" x2="133.153" y2="194.999" stroke="black" stroke-width="0.405088"/>
<line x1="137.238" y1="192.968" x2="137.238" y2="194.999" stroke="black" stroke-width="0.405088"/>
<line x1="141.322" y1="192.968" x2="141.322" y2="194.999" stroke="black" stroke-width="0.405088"/>
<line x1="145.407" y1="192.968" x2="145.407" y2="194.999" stroke="black" stroke-width="0.405088"/>
<line x1="149.491" y1="192.968" x2="149.491" y2="194.999" stroke="black" stroke-width="0.405088"/>
<line x1="153.576" y1="192.968" x2="153.576" y2="194.999" stroke="black" stroke-width="0.405088"/>
<line x1="157.661" y1="192.968" x2="157.661" y2="194.999" stroke="black" stroke-width="0.405088"/>
<line x1="161.746" y1="192.968" x2="161.746" y2="194.999" stroke="black" stroke-width="0.405088"/>
<line x1="165.83" y1="192.968" x2="165.83" y2="194.999" stroke="black" stroke-width="0.405088"/>
<line x1="169.915" y1="192.968" x2="169.915" y2="194.999" stroke="black" stroke-width="0.405088"/>
<line x1="174" y1="192.968" x2="174" y2="194.999" stroke="black" stroke-width="0.405088"/>
<line x1="178.085" y1="192.968" x2="178.085" y2="194.999" stroke="black" stroke-width="0.405088"/>
<line x1="182.169" y1="192.968" x2="182.169" y2="194.999" stroke="black" stroke-width="0.405088"/>
<line x1="186.254" y1="192.968" x2="186.254" y2="194.999" stroke="black" stroke-width="0.405088"/>
<line x1="190.339" y1="192.968" x2="190.339" y2="194.999" stroke="black" stroke-width="0.405088"/>
<line x1="194.423" y1="192.968" x2="194.423" y2="194.999" stroke="black" stroke-width="0.405088"/>
<line x1="198.508" y1="192.968" x2="198.508" y2="194.999" stroke="black" stroke-width="0.405088"/>
<line x1="202.593" y1="192.968" x2="202.593" y2="194.999" stroke="black" stroke-width="0.405088"/>
<line x1="206.677" y1="192.968" x2="206.677" y2="194.999" stroke="black" stroke-width="0.405088"/>
<line x1="210.762" y1="192.968" x2="210.762" y2="194.999" stroke="black" stroke-width="0.405088"/>
<line x1="214.847" y1="192.968" x2="214.847" y2="194.999" stroke="black" stroke-width="0.405088"/>
<line x1="218.931" y1="192.968" x2="218.931" y2="194.999" stroke="black" stroke-width="0.405088"/>
<line x1="223.016" y1="192.968" x2="223.016" y2="194.999" stroke="black" stroke-width="0.405088"/>
<line x1="227.101" y1="192.968" x2="227.101" y2="194.999" stroke="black" stroke-width="0.405088"/>
<line x1="231.185" y1="192.968" x2="231.185" y2="194.999" stroke="black" stroke-width="0.405088"/>
<line x1="235.27" y1="192.968" x2="235.27" y2="194.999" stroke="black" stroke-width="0.405088"/>
<line x1="239.355" y1="192.968" x2="239.355" y2="194.999" stroke="black" stroke-width="0.405088"/>
<line x1="243.439" y1="192.968" x2="243.439" y2="194.999" stroke="black" stroke-width="0.405088"/>
<line x1="247.524" y1="192.968" x2="247.524" y2="194.999" stroke="black" stroke-width="0.405088"/>
<line x1="251.609" y1="192.968" x2="251.609" y2="194.999" stroke="black" stroke-width="0.405088"/>
<line x1="255.693" y1="192.968" x2="255.693" y2="194.999" stroke="black" stroke-width="0.405088"/>
<line x1="259.778" y1="192.968" x2="259.778" y2="194.999" stroke="black" stroke-width="0.405088"/>
<line x1="263.863" y1="192.827" x2="263.863" y2="194.859" stroke="black" stroke-width="0.405088"/>
<g filter="url(#filter15_d_46_7)">
<path d="M129.282 191.878C129.282 191.284 129.764 190.802 130.358 190.802C130.953 190.802 131.435 191.283 131.435 191.878V245.084C131.435 245.679 130.953 246.16 130.358 246.16C129.764 246.16 129.282 245.679 129.282 245.084V191.878Z" fill="#C6C6C6"/>
</g>
<g filter="url(#filter16_d_46_7)">
<path d="M130.358 193.925L124.131 187.058H136.585L130.358 193.925Z" fill="#C6C6C6"/>
</g>
<defs>
<filter id="filter0_d_46_7" x="0" y="0" width="328.385" height="310" filterUnits="userSpaceOnUse" color-interpolation-filters="sRGB">
<feFlood flood-opacity="0" result="BackgroundImageFix"/>
<feColorMatrix in="SourceAlpha" type="matrix" values="0 0 0 0 0 0 0 0 0 0 0 0 0 0 0 0 0 0 127 0" result="hardAlpha"/>
<feOffset dy="20"/>
<feGaussianBlur stdDeviation="5"/>
<feComposite in2="hardAlpha" operator="out"/>
<feColorMatrix type="matrix" values="0 0 0 0 0 0 0 0 0 0 0 0 0 0 0 0 0 0 0.1 0"/>
<feBlend mode="normal" in2="BackgroundImageFix" result="effect1_dropShadow_46_7"/>
<feBlend mode="normal" in="SourceGraphic" in2="effect1_dropShadow_46_7" result="shape"/>
</filter>
<filter id="filter1_d_46_7" x="33.4621" y="195.753" width="83.1884" height="48.5633" filterUnits="userSpaceOnUse" color-interpolation-filters="sRGB">
<feFlood flood-opacity="0" result="BackgroundImageFix"/>
<feColorMatrix in="SourceAlpha" type="matrix" values="0 0 0 0 0 0 0 0 0 0 0 0 0 0 0 0 0 0 127 0" result="hardAlpha"/>
<feMorphology radius="0.405088" operator="dilate" in="SourceAlpha" result="effect1_dropShadow_46_7"/>
<feOffset dy="4.86105"/>
<feGaussianBlur stdDeviation="5.26614"/>
<feComposite in2="hardAlpha" operator="out"/>
<feColorMatrix type="matrix" values="0 0 0 0 0 0 0 0 0 0 0 0 0 0 0 0 0 0 0.07 0"/>
<feBlend mode="normal" in2="BackgroundImageFix" result="effect1_dropShadow_46_7"/>
<feBlend mode="normal" in="SourceGraphic" in2="effect1_dropShadow_46_7" result="shape"/>
</filter>
<filter id="filter2_d_46_7" x="194.743" y="195.753" width="83.1884" height="48.5633" filterUnits="userSpaceOnUse" color-interpolation-filters="sRGB">
<feFlood flood-opacity="0" result="BackgroundImageFix"/>
<feColorMatrix in="SourceAlpha" type="matrix" values="0 0 0 0 0 0 0 0 0 0 0 0 0 0 0 0 0 0 127 0" result="hardAlpha"/>
<feMorphology radius="0.405088" operator="dilate" in="SourceAlpha" result="effect1_dropShadow_46_7"/>
<feOffset dy="4.86105"/>
<feGaussianBlur stdDeviation="5.26614"/>
<feComposite in2="hardAlpha" operator="out"/>
<feColorMatrix type="matrix" values="0 0 0 0 0 0 0 0 0 0 0 0 0 0 0 0 0 0 0.07 0"/>
<feBlend mode="normal" in2="BackgroundImageFix" result="effect1_dropShadow_46_7"/>
<feBlend mode="normal" in="SourceGraphic" in2="effect1_dropShadow_46_7" result="shape"/>
</filter>
<filter id="filter3_d_46_7" x="97.7416" y="195.753" width="115.91" height="48.5633" filterUnits="userSpaceOnUse" color-interpolation-filters="sRGB">
<feFlood flood-opacity="0" result="BackgroundImageFix"/>
<feColorMatrix in="SourceAlpha" type="matrix" values="0 0 0 0 0 0 0 0 0 0 0 0 0 0 0 0 0 0 127 0" result="hardAlpha"/>
<feMorphology radius="0.405088" operator="dilate" in="SourceAlpha" result="effect1_dropShadow_46_7"/>
<feOffset dy="4.86105"/>
<feGaussianBlur stdDeviation="5.26614"/>
<feComposite in2="hardAlpha" operator="out"/>
<feColorMatrix type="matrix" values="0 0 0 0 0 0 0 0 0 0 0 0 0 0 0 0 0 0 0.07 0"/>
<feBlend mode="normal" in2="BackgroundImageFix" result="effect1_dropShadow_46_7"/>
<feBlend mode="normal" in="SourceGraphic" in2="effect1_dropShadow_46_7" result="shape"/>
</filter>
<filter id="filter4_d_46_7" x="60.1294" y="43.3911" width="56.7953" height="56.7953" filterUnits="userSpaceOnUse" color-interpolation-filters="sRGB">
<feFlood flood-opacity="0" result="BackgroundImageFix"/>
<feColorMatrix in="SourceAlpha" type="matrix" values="0 0 0 0 0 0 0 0 0 0 0 0 0 0 0 0 0 0 127 0" result="hardAlpha"/>
<feMorphology radius="0.405088" operator="dilate" in="SourceAlpha" result="effect1_dropShadow_46_7"/>
<feOffset dy="4.86105"/>
<feGaussianBlur stdDeviation="5.26614"/>
<feComposite in2="hardAlpha" operator="out"/>
<feColorMatrix type="matrix" values="0 0 0 0 0 0 0 0 0 0 0 0 0 0 0 0 0 0 0.07 0"/>
<feBlend mode="normal" in2="BackgroundImageFix" result="effect1_dropShadow_46_7"/>
<feBlend mode="normal" in="SourceGraphic" in2="effect1_dropShadow_46_7" result="shape"/>
</filter>
<filter id="filter5_d_46_7" x="33.6511" y="106.827" width="56.7953" height="56.7953" filterUnits="userSpaceOnUse" color-interpolation-filters="sRGB">
<feFlood flood-opacity="0" result="BackgroundImageFix"/>
<feColorMatrix in="SourceAlpha" type="matrix" values="0 0 0 0 0 0 0 0 0 0 0 0 0 0 0 0 0 0 127 0" result="hardAlpha"/>
<feMorphology radius="0.405088" operator="dilate" in="SourceAlpha" result="effect1_dropShadow_46_7"/>
<feOffset dy="4.86105"/>
<feGaussianBlur stdDeviation="5.26614"/>
<feComposite in2="hardAlpha" operator="out"/>
<feColorMatrix type="matrix" values="0 0 0 0 0 0 0 0 0 0 0 0 0 0 0 0 0 0 0.07 0"/>
<feBlend mode="normal" in2="BackgroundImageFix" result="effect1_dropShadow_46_7"/>
<feBlend mode="normal" in="SourceGraphic" in2="effect1_dropShadow_46_7" result="shape"/>
</filter>
<filter id="filter6_d_46_7" x="83.5889" y="106.827" width="56.7953" height="56.7953" filterUnits="userSpaceOnUse" color-interpolation-filters="sRGB">
<feFlood flood-opacity="0" result="BackgroundImageFix"/>
<feColorMatrix in="SourceAlpha" type="matrix" values="0 0 0 0 0 0 0 0 0 0 0 0 0 0 0 0 0 0 127 0" result="hardAlpha"/>
<feMorphology radius="0.405088" operator="dilate" in="SourceAlpha" result="effect1_dropShadow_46_7"/>
<feOffset dy="4.86105"/>
<feGaussianBlur stdDeviation="5.26614"/>
<feComposite in2="hardAlpha" operator="out"/>
<feColorMatrix type="matrix" values="0 0 0 0 0 0 0 0 0 0 0 0 0 0 0 0 0 0 0.07 0"/>
<feBlend mode="normal" in2="BackgroundImageFix" result="effect1_dropShadow_46_7"/>
<feBlend mode="normal" in="SourceGraphic" in2="effect1_dropShadow_46_7" result="shape"/>
</filter>
<filter id="filter7_d_46_7" x="149.829" y="44.6128" width="56.7953" height="56.7953" filterUnits="userSpaceOnUse" color-interpolation-filters="sRGB">
<feFlood flood-opacity="0" result="BackgroundImageFix"/>
<feColorMatrix in="SourceAlpha" type="matrix" values="0 0 0 0 0 0 0 0 0 0 0 0 0 0 0 0 0 0 127 0" result="hardAlpha"/>
<feMorphology radius="0.405088" operator="dilate" in="SourceAlpha" result="effect1_dropShadow_46_7"/>
<feOffset dy="4.86105"/>
<feGaussianBlur stdDeviation="5.26614"/>
<feComposite in2="hardAlpha" operator="out"/>
<feColorMatrix type="matrix" values="0 0 0 0 0 0 0 0 0 0 0 0 0 0 0 0 0 0 0.07 0"/>
<feBlend mode="normal" in2="BackgroundImageFix" result="effect1_dropShadow_46_7"/>
<feBlend mode="normal" in="SourceGraphic" in2="effect1_dropShadow_46_7" result="shape"/>
</filter>
<filter id="filter8_d_46_7" x="125.761" y="106.827" width="56.7953" height="56.7953" filterUnits="userSpaceOnUse" color-interpolation-filters="sRGB">
<feFlood flood-opacity="0" result="BackgroundImageFix"/>
<feColorMatrix in="SourceAlpha" type="matrix" values="0 0 0 0 0 0 0 0 0 0 0 0 0 0 0 0 0 0 127 0" result="hardAlpha"/>
<feMorphology radius="0.405088" operator="dilate" in="SourceAlpha" result="effect1_dropShadow_46_7"/>
<feOffset dy="4.86105"/>
<feGaussianBlur stdDeviation="5.26614"/>
<feComposite in2="hardAlpha" operator="out"/>
<feColorMatrix type="matrix" values="0 0 0 0 0 0 0 0 0 0 0 0 0 0 0 0 0 0 0.07 0"/>
<feBlend mode="normal" in2="BackgroundImageFix" result="effect1_dropShadow_46_7"/>
<feBlend mode="normal" in="SourceGraphic" in2="effect1_dropShadow_46_7" result="shape"/>
</filter>
<filter id="filter9_d_46_7" x="175.699" y="106.827" width="56.7953" height="56.7953" filterUnits="userSpaceOnUse" color-interpolation-filters="sRGB">
<feFlood flood-opacity="0" result="BackgroundImageFix"/>
<feColorMatrix in="SourceAlpha" type="matrix" values="0 0 0 0 0 0 0 0 0 0 0 0 0 0 0 0 0 0 127 0" result="hardAlpha"/>
<feMorphology radius="0.405088" operator="dilate" in="SourceAlpha" result="effect1_dropShadow_46_7"/>
<feOffset dy="4.86105"/>
<feGaussianBlur stdDeviation="5.26614"/>
<feComposite in2="hardAlpha" operator="out"/>
<feColorMatrix type="matrix" values="0 0 0 0 0 0 0 0 0 0 0 0 0 0 0 0 0 0 0.07 0"/>
<feBlend mode="normal" in2="BackgroundImageFix" result="effect1_dropShadow_46_7"/>
<feBlend mode="normal" in="SourceGraphic" in2="effect1_dropShadow_46_7" result="shape"/>
</filter>
<filter id="filter10_d_46_7" x="244.142" y="44.6128" width="56.7953" height="56.7953" filterUnits="userSpaceOnUse" color-interpolation-filters="sRGB">
<feFlood flood-opacity="0" result="BackgroundImageFix"/>
<feColorMatrix in="SourceAlpha" type="matrix" values="0 0 0 0 0 0 0 0 0 0 0 0 0 0 0 0 0 0 127 0" result="hardAlpha"/>
<feMorphology radius="0.405088" operator="dilate" in="SourceAlpha" result="effect1_dropShadow_46_7"/>
<feOffset dy="4.86105"/>
<feGaussianBlur stdDeviation="5.26614"/>
<feComposite in2="hardAlpha" operator="out"/>
<feColorMatrix type="matrix" values="0 0 0 0 0 0 0 0 0 0 0 0 0 0 0 0 0 0 0.07 0"/>
<feBlend mode="normal" in2="BackgroundImageFix" result="effect1_dropShadow_46_7"/>
<feBlend mode="normal" in="SourceGraphic" in2="effect1_dropShadow_46_7" result="shape"/>
</filter>
<filter id="filter11_d_46_7" x="244.142" y="106.827" width="56.7953" height="56.7953" filterUnits="userSpaceOnUse" color-interpolation-filters="sRGB">
<feFlood flood-opacity="0" result="BackgroundImageFix"/>
<feColorMatrix in="SourceAlpha" type="matrix" values="0 0 0 0 0 0 0 0 0 0 0 0 0 0 0 0 0 0 127 0" result="hardAlpha"/>
<feMorphology radius="0.405088" operator="dilate" in="SourceAlpha" result="effect1_dropShadow_46_7"/>
<feOffset dy="4.86105"/>
<feGaussianBlur stdDeviation="5.26614"/>
<feComposite in2="hardAlpha" operator="out"/>
<feColorMatrix type="matrix" values="0 0 0 0 0 0 0 0 0 0 0 0 0 0 0 0 0 0 0.07 0"/>
<feBlend mode="normal" in2="BackgroundImageFix" result="effect1_dropShadow_46_7"/>
<feBlend mode="normal" in="SourceGraphic" in2="effect1_dropShadow_46_7" result="shape"/>
</filter>
<filter id="filter12_d_46_7" x="33.4621" y="225.605" width="138.353" height="31.2994" filterUnits="userSpaceOnUse" color-interpolation-filters="sRGB">
<feFlood flood-opacity="0" result="BackgroundImageFix"/>
<feColorMatrix in="SourceAlpha" type="matrix" values="0 0 0 0 0 0 0 0 0 0 0 0 0 0 0 0 0 0 127 0" result="hardAlpha"/>
<feMorphology radius="0.405088" operator="dilate" in="SourceAlpha" result="effect1_dropShadow_46_7"/>
<feOffset dy="4.86105"/>
<feGaussianBlur stdDeviation="5.26614"/>
<feComposite in2="hardAlpha" operator="out"/>
<feColorMatrix type="matrix" values="0 0 0 0 0 0 0 0 0 0 0 0 0 0 0 0 0 0 0.07 0"/>
<feBlend mode="normal" in2="BackgroundImageFix" result="effect1_dropShadow_46_7"/>
<feBlend mode="normal" in="SourceGraphic" in2="effect1_dropShadow_46_7" result="shape"/>
</filter>
<filter id="filter13_d_46_7" x="152.235" y="225.605" width="125.697" height="31.2994" filterUnits="userSpaceOnUse" color-interpolation-filters="sRGB">
<feFlood flood-opacity="0" result="BackgroundImageFix"/>
<feColorMatrix in="SourceAlpha" type="matrix" values="0 0 0 0 0 0 0 0 0 0 0 0 0 0 0 0 0 0 127 0" result="hardAlpha"/>
<feMorphology radius="0.405088" operator="dilate" in="SourceAlpha" result="effect1_dropShadow_46_7"/>
<feOffset dy="4.86105"/>
<feGaussianBlur stdDeviation="5.26614"/>
<feComposite in2="hardAlpha" operator="out"/>
<feColorMatrix type="matrix" values="0 0 0 0 0 0 0 0 0 0 0 0 0 0 0 0 0 0 0.07 0"/>
<feBlend mode="normal" in2="BackgroundImageFix" result="effect1_dropShadow_46_7"/>
<feBlend mode="normal" in="SourceGraphic" in2="effect1_dropShadow_46_7" result="shape"/>
</filter>
<filter id="filter14_d_46_7" x="33.4621" y="186.493" width="244.47" height="26.9518" filterUnits="userSpaceOnUse" color-interpolation-filters="sRGB">
<feFlood flood-opacity="0" result="BackgroundImageFix"/>
<feColorMatrix in="SourceAlpha" type="matrix" values="0 0 0 0 0 0 0 0 0 0 0 0 0 0 0 0 0 0 127 0" result="hardAlpha"/>
<feMorphology radius="0.405088" operator="dilate" in="SourceAlpha" result="effect1_dropShadow_46_7"/>
<feOffset dy="4.86105"/>
<feGaussianBlur stdDeviation="5.26614"/>
<feComposite in2="hardAlpha" operator="out"/>
<feColorMatrix type="matrix" values="0 0 0 0 0 0 0 0 0 0 0 0 0 0 0 0 0 0 0.07 0"/>
<feBlend mode="normal" in2="BackgroundImageFix" result="effect1_dropShadow_46_7"/>
<feBlend mode="normal" in="SourceGraphic" in2="effect1_dropShadow_46_7" result="shape"/>
</filter>
<filter id="filter15_d_46_7" x="118.345" y="184.725" width="24.0273" height="77.2335" filterUnits="userSpaceOnUse" color-interpolation-filters="sRGB">
<feFlood flood-opacity="0" result="BackgroundImageFix"/>
<feColorMatrix in="SourceAlpha" type="matrix" values="0 0 0 0 0 0 0 0 0 0 0 0 0 0 0 0 0 0 127 0" result="hardAlpha"/>
<feMorphology radius="0.405088" operator="dilate" in="SourceAlpha" result="effect1_dropShadow_46_7"/>
<feOffset dy="4.86105"/>
<feGaussianBlur stdDeviation="5.26614"/>
<feComposite in2="hardAlpha" operator="out"/>
<feColorMatrix type="matrix" values="0 0 0 0 0 0 0 0 0 0 0 0 0 0 0 0 0 0 0.07 0"/>
<feBlend mode="normal" in2="BackgroundImageFix" result="effect1_dropShadow_46_7"/>
<feBlend mode="normal" in="SourceGraphic" in2="effect1_dropShadow_46_7" result="shape"/>
</filter>
<filter id="filter16_d_46_7" x="113.194" y="180.981" width="34.3287" height="28.7422" filterUnits="userSpaceOnUse" color-interpolation-filters="sRGB">
<feFlood flood-opacity="0" result="BackgroundImageFix"/>
<feColorMatrix in="SourceAlpha" type="matrix" values="0 0 0 0 0 0 0 0 0 0 0 0 0 0 0 0 0 0 127 0" result="hardAlpha"/>
<feMorphology radius="0.405088" operator="dilate" in="SourceAlpha" result="effect1_dropShadow_46_7"/>
<feOffset dy="4.86105"/>
<feGaussianBlur stdDeviation="5.26614"/>
<feComposite in2="hardAlpha" operator="out"/>
<feColorMatrix type="matrix" values="0 0 0 0 0 0 0 0 0 0 0 0 0 0 0 0 0 0 0.07 0"/>
<feBlend mode="normal" in2="BackgroundImageFix" result="effect1_dropShadow_46_7"/>
<feBlend mode="normal" in="SourceGraphic" in2="effect1_dropShadow_46_7" result="shape"/>
</filter>
<linearGradient id="paint0_linear_46_7" x1="98.5301" y1="-8.26127e-06" x2="317.935" y2="123.425" gradientUnits="userSpaceOnUse">
<stop stop-color="#01BCB2"/>
<stop offset="0.548078" stop-color="#9727FF"/>
<stop offset="1" stop-color="#002C79"/>
</linearGradient>
</defs>
</svg>
