<svg width="366" height="231" viewBox="0 0 366 231" fill="none" xmlns="http://www.w3.org/2000/svg">
<g filter="url(#filter0_d_46_10)">
<path d="M21.8748 124.279C11.6338 120.116 11.6338 110.657 21.8748 106.493L173.578 44.8202C179.095 42.5775 186.177 42.5775 191.693 44.8202L343.397 106.493C353.638 110.657 353.638 120.116 343.397 124.279L191.693 185.952C186.177 188.195 179.095 188.195 173.578 185.952L21.8748 124.279Z" fill="#F6F9FA"/>
<path d="M23.1687 123.008C14.3911 119.44 14.3911 111.333 23.1687 107.764L174.872 46.0904C179.601 44.1681 185.671 44.1686 190.399 46.0909L342.102 107.764C350.88 111.332 350.88 119.44 342.102 123.009L190.399 184.682C185.671 186.604 179.601 186.604 174.872 184.682L23.1687 123.008Z" stroke="url(#paint0_linear_46_10)" stroke-width="4"/>
</g>
<path d="M89.019 120.829V103.374H94.9167C96.286 103.374 97.4053 103.621 98.2747 104.115C99.1497 104.604 99.7974 105.266 100.218 106.101C100.638 106.937 100.849 107.868 100.849 108.897C100.849 109.925 100.638 110.86 100.218 111.701C99.8031 112.542 99.161 113.212 98.2917 113.712C97.4224 114.206 96.3087 114.454 94.9508 114.454H90.7235V112.579H94.8826C95.8201 112.579 96.5729 112.417 97.1411 112.093C97.7093 111.769 98.1212 111.331 98.3769 110.78C98.6383 110.223 98.769 109.596 98.769 108.897C98.769 108.198 98.6383 107.573 98.3769 107.022C98.1212 106.471 97.7065 106.039 97.1326 105.726C96.5587 105.408 95.7974 105.249 94.8485 105.249H91.1326V120.829H89.019ZM109.329 121.101C108.067 121.101 106.979 120.823 106.064 120.266C105.155 119.704 104.454 118.919 103.959 117.914C103.471 116.902 103.226 115.726 103.226 114.385C103.226 113.044 103.471 111.863 103.959 110.84C104.454 109.812 105.141 109.01 106.022 108.437C106.908 107.857 107.942 107.567 109.124 107.567C109.806 107.567 110.479 107.681 111.144 107.908C111.809 108.135 112.414 108.505 112.959 109.016C113.505 109.522 113.939 110.192 114.263 111.027C114.587 111.863 114.749 112.891 114.749 114.113V114.965H104.658V113.226H112.704C112.704 112.488 112.556 111.829 112.26 111.249C111.971 110.669 111.556 110.212 111.016 109.877C110.482 109.542 109.851 109.374 109.124 109.374C108.323 109.374 107.63 109.573 107.045 109.971C106.465 110.363 106.019 110.874 105.706 111.505C105.394 112.135 105.238 112.812 105.238 113.533V114.692C105.238 115.681 105.408 116.519 105.749 117.206C106.096 117.888 106.576 118.408 107.189 118.766C107.803 119.118 108.516 119.294 109.329 119.294C109.857 119.294 110.334 119.221 110.76 119.073C111.192 118.919 111.564 118.692 111.877 118.391C112.189 118.084 112.431 117.704 112.601 117.249L114.545 117.794C114.34 118.454 113.996 119.033 113.513 119.533C113.03 120.027 112.434 120.414 111.724 120.692C111.013 120.965 110.215 121.101 109.329 121.101ZM117.809 120.829V107.738H119.752V109.715H119.888C120.127 109.067 120.559 108.542 121.184 108.138C121.809 107.735 122.513 107.533 123.297 107.533C123.445 107.533 123.63 107.536 123.851 107.542C124.073 107.547 124.241 107.556 124.354 107.567V109.613C124.286 109.596 124.13 109.57 123.885 109.536C123.647 109.496 123.394 109.476 123.127 109.476C122.491 109.476 121.922 109.61 121.422 109.877C120.928 110.138 120.536 110.502 120.246 110.968C119.962 111.428 119.82 111.954 119.82 112.544V120.829H117.809ZM131.658 121.101C130.431 121.101 129.374 120.812 128.488 120.232C127.601 119.652 126.92 118.854 126.442 117.837C125.965 116.82 125.726 115.658 125.726 114.351C125.726 113.022 125.971 111.848 126.459 110.831C126.954 109.809 127.641 109.01 128.522 108.437C129.408 107.857 130.442 107.567 131.624 107.567C132.545 107.567 133.374 107.738 134.113 108.079C134.851 108.419 135.456 108.897 135.928 109.51C136.4 110.124 136.692 110.84 136.806 111.658H134.795C134.641 111.062 134.3 110.533 133.772 110.073C133.249 109.607 132.545 109.374 131.658 109.374C130.874 109.374 130.187 109.579 129.596 109.988C129.01 110.391 128.553 110.962 128.224 111.701C127.9 112.434 127.738 113.294 127.738 114.283C127.738 115.294 127.897 116.175 128.215 116.925C128.539 117.675 128.993 118.258 129.579 118.672C130.17 119.087 130.863 119.294 131.658 119.294C132.181 119.294 132.655 119.204 133.081 119.022C133.508 118.84 133.868 118.579 134.164 118.238C134.459 117.897 134.67 117.488 134.795 117.01H136.806C136.692 117.783 136.411 118.479 135.962 119.098C135.519 119.712 134.931 120.201 134.198 120.564C133.471 120.922 132.624 121.101 131.658 121.101ZM145.235 121.101C143.974 121.101 142.885 120.823 141.971 120.266C141.062 119.704 140.36 118.919 139.866 117.914C139.377 116.902 139.133 115.726 139.133 114.385C139.133 113.044 139.377 111.863 139.866 110.84C140.36 109.812 141.047 109.01 141.928 108.437C142.814 107.857 143.849 107.567 145.03 107.567C145.712 107.567 146.385 107.681 147.05 107.908C147.715 108.135 148.32 108.505 148.866 109.016C149.411 109.522 149.846 110.192 150.17 111.027C150.493 111.863 150.655 112.891 150.655 114.113V114.965H140.564V113.226H148.61C148.61 112.488 148.462 111.829 148.167 111.249C147.877 110.669 147.462 110.212 146.922 109.877C146.388 109.542 145.758 109.374 145.03 109.374C144.229 109.374 143.536 109.573 142.951 109.971C142.371 110.363 141.925 110.874 141.613 111.505C141.3 112.135 141.144 112.812 141.144 113.533V114.692C141.144 115.681 141.314 116.519 141.655 117.206C142.002 117.888 142.482 118.408 143.096 118.766C143.709 119.118 144.422 119.294 145.235 119.294C145.763 119.294 146.241 119.221 146.667 119.073C147.099 118.919 147.471 118.692 147.783 118.391C148.096 118.084 148.337 117.704 148.508 117.249L150.451 117.794C150.246 118.454 149.902 119.033 149.42 119.533C148.937 120.027 148.34 120.414 147.63 120.692C146.92 120.965 146.121 121.101 145.235 121.101ZM153.715 125.738V107.738H155.658V109.817H155.897C156.045 109.59 156.249 109.3 156.51 108.948C156.777 108.59 157.158 108.272 157.652 107.993C158.152 107.709 158.829 107.567 159.681 107.567C160.783 107.567 161.755 107.843 162.596 108.394C163.437 108.945 164.093 109.726 164.564 110.738C165.036 111.749 165.272 112.942 165.272 114.317C165.272 115.704 165.036 116.905 164.564 117.922C164.093 118.934 163.439 119.718 162.604 120.275C161.769 120.826 160.806 121.101 159.715 121.101C158.874 121.101 158.201 120.962 157.695 120.684C157.189 120.4 156.8 120.079 156.527 119.721C156.255 119.357 156.045 119.056 155.897 118.817H155.726V125.738H153.715ZM155.692 114.283C155.692 115.272 155.837 116.144 156.127 116.9C156.417 117.65 156.84 118.238 157.397 118.664C157.954 119.084 158.635 119.294 159.442 119.294C160.283 119.294 160.985 119.073 161.547 118.63C162.116 118.181 162.542 117.579 162.826 116.823C163.116 116.062 163.26 115.215 163.26 114.283C163.26 113.363 163.118 112.533 162.834 111.794C162.556 111.05 162.133 110.462 161.564 110.03C161.002 109.593 160.295 109.374 159.442 109.374C158.624 109.374 157.937 109.581 157.38 109.996C156.823 110.405 156.402 110.979 156.118 111.718C155.834 112.451 155.692 113.306 155.692 114.283ZM174.033 107.738V109.442H167.249V107.738H174.033ZM169.226 104.601H171.238V117.079C171.238 117.647 171.32 118.073 171.485 118.357C171.655 118.635 171.871 118.823 172.133 118.919C172.4 119.01 172.681 119.056 172.976 119.056C173.198 119.056 173.38 119.044 173.522 119.022C173.664 118.993 173.777 118.971 173.863 118.954L174.272 120.76C174.135 120.812 173.945 120.863 173.701 120.914C173.456 120.971 173.147 120.999 172.772 120.999C172.204 120.999 171.647 120.877 171.101 120.633C170.562 120.388 170.113 120.016 169.755 119.516C169.402 119.016 169.226 118.385 169.226 117.624V104.601ZM177.059 120.829V107.738H179.07V120.829H177.059ZM178.081 105.556C177.689 105.556 177.351 105.422 177.067 105.155C176.789 104.888 176.65 104.567 176.65 104.192C176.65 103.817 176.789 103.496 177.067 103.229C177.351 102.962 177.689 102.829 178.081 102.829C178.474 102.829 178.809 102.962 179.087 103.229C179.371 103.496 179.513 103.817 179.513 104.192C179.513 104.567 179.371 104.888 179.087 105.155C178.809 105.422 178.474 105.556 178.081 105.556ZM188.072 121.101C186.89 121.101 185.853 120.82 184.961 120.258C184.075 119.695 183.382 118.908 182.882 117.897C182.388 116.885 182.14 115.704 182.14 114.351C182.14 112.988 182.388 111.797 182.882 110.78C183.382 109.763 184.075 108.973 184.961 108.411C185.853 107.848 186.89 107.567 188.072 107.567C189.254 107.567 190.288 107.848 191.175 108.411C192.067 108.973 192.76 109.763 193.254 110.78C193.754 111.797 194.004 112.988 194.004 114.351C194.004 115.704 193.754 116.885 193.254 117.897C192.76 118.908 192.067 119.695 191.175 120.258C190.288 120.82 189.254 121.101 188.072 121.101ZM188.072 119.294C188.97 119.294 189.709 119.064 190.288 118.604C190.868 118.144 191.297 117.539 191.575 116.789C191.853 116.039 191.993 115.226 191.993 114.351C191.993 113.476 191.853 112.661 191.575 111.905C191.297 111.15 190.868 110.539 190.288 110.073C189.709 109.607 188.97 109.374 188.072 109.374C187.175 109.374 186.436 109.607 185.856 110.073C185.277 110.539 184.848 111.15 184.569 111.905C184.291 112.661 184.152 113.476 184.152 114.351C184.152 115.226 184.291 116.039 184.569 116.789C184.848 117.539 185.277 118.144 185.856 118.604C186.436 119.064 187.175 119.294 188.072 119.294ZM199.086 112.954V120.829H197.074V107.738H199.018V109.783H199.188C199.495 109.118 199.961 108.584 200.586 108.181C201.211 107.772 202.018 107.567 203.006 107.567C203.893 107.567 204.668 107.749 205.333 108.113C205.998 108.471 206.515 109.016 206.884 109.749C207.253 110.476 207.438 111.397 207.438 112.51V120.829H205.427V112.647C205.427 111.618 205.16 110.817 204.626 110.243C204.091 109.664 203.358 109.374 202.427 109.374C201.785 109.374 201.211 109.513 200.705 109.792C200.205 110.07 199.81 110.476 199.52 111.01C199.231 111.544 199.086 112.192 199.086 112.954ZM218.136 120.829V103.374H220.25V118.954H228.363V120.829H218.136ZM235.216 121.135C234.386 121.135 233.633 120.979 232.957 120.667C232.281 120.348 231.744 119.891 231.346 119.294C230.949 118.692 230.75 117.965 230.75 117.113C230.75 116.363 230.898 115.755 231.193 115.289C231.488 114.817 231.883 114.448 232.378 114.181C232.872 113.914 233.417 113.715 234.014 113.584C234.616 113.448 235.221 113.34 235.829 113.26C236.625 113.158 237.27 113.081 237.764 113.03C238.264 112.973 238.628 112.88 238.855 112.749C239.088 112.618 239.204 112.391 239.204 112.067V111.999C239.204 111.158 238.974 110.505 238.514 110.039C238.059 109.573 237.369 109.34 236.443 109.34C235.483 109.34 234.73 109.55 234.184 109.971C233.639 110.391 233.255 110.84 233.034 111.317L231.125 110.635C231.466 109.84 231.92 109.221 232.488 108.777C233.062 108.329 233.687 108.016 234.363 107.84C235.045 107.658 235.716 107.567 236.375 107.567C236.795 107.567 237.278 107.618 237.824 107.721C238.375 107.817 238.906 108.019 239.417 108.326C239.934 108.633 240.363 109.096 240.704 109.715C241.045 110.334 241.216 111.164 241.216 112.204V120.829H239.204V119.056H239.102C238.966 119.34 238.738 119.644 238.42 119.968C238.102 120.292 237.679 120.567 237.15 120.794C236.622 121.022 235.977 121.135 235.216 121.135ZM235.523 119.329C236.318 119.329 236.988 119.172 237.534 118.86C238.085 118.547 238.5 118.144 238.778 117.65C239.062 117.155 239.204 116.635 239.204 116.09V114.249C239.119 114.351 238.932 114.445 238.642 114.53C238.358 114.61 238.028 114.681 237.653 114.743C237.284 114.8 236.923 114.851 236.571 114.897C236.224 114.937 235.943 114.971 235.727 114.999C235.204 115.067 234.716 115.178 234.261 115.331C233.812 115.479 233.449 115.704 233.17 116.005C232.898 116.3 232.761 116.704 232.761 117.215C232.761 117.914 233.02 118.442 233.537 118.8C234.059 119.152 234.721 119.329 235.523 119.329ZM245.714 125.738C245.373 125.738 245.069 125.709 244.802 125.652C244.535 125.601 244.35 125.55 244.248 125.499L244.759 123.726C245.248 123.851 245.679 123.897 246.054 123.863C246.429 123.829 246.762 123.661 247.052 123.36C247.347 123.064 247.617 122.584 247.861 121.919L248.236 120.897L243.395 107.738H245.577L249.191 118.169H249.327L252.941 107.738H255.123L249.566 122.738C249.316 123.414 249.006 123.973 248.637 124.417C248.268 124.865 247.839 125.198 247.35 125.414C246.867 125.63 246.322 125.738 245.714 125.738ZM262.797 121.101C261.536 121.101 260.448 120.823 259.533 120.266C258.624 119.704 257.922 118.919 257.428 117.914C256.939 116.902 256.695 115.726 256.695 114.385C256.695 113.044 256.939 111.863 257.428 110.84C257.922 109.812 258.61 109.01 259.491 108.437C260.377 107.857 261.411 107.567 262.593 107.567C263.275 107.567 263.948 107.681 264.613 107.908C265.277 108.135 265.883 108.505 266.428 109.016C266.974 109.522 267.408 110.192 267.732 111.027C268.056 111.863 268.218 112.891 268.218 114.113V114.965H258.127V113.226H266.172C266.172 112.488 266.025 111.829 265.729 111.249C265.439 110.669 265.025 110.212 264.485 109.877C263.951 109.542 263.32 109.374 262.593 109.374C261.792 109.374 261.099 109.573 260.513 109.971C259.934 110.363 259.488 110.874 259.175 111.505C258.863 112.135 258.706 112.812 258.706 113.533V114.692C258.706 115.681 258.877 116.519 259.218 117.206C259.564 117.888 260.045 118.408 260.658 118.766C261.272 119.118 261.985 119.294 262.797 119.294C263.326 119.294 263.803 119.221 264.229 119.073C264.661 118.919 265.033 118.692 265.346 118.391C265.658 118.084 265.9 117.704 266.07 117.249L268.013 117.794C267.809 118.454 267.465 119.033 266.982 119.533C266.499 120.027 265.902 120.414 265.192 120.692C264.482 120.965 263.684 121.101 262.797 121.101ZM271.277 120.829V107.738H273.221V109.715H273.357C273.596 109.067 274.027 108.542 274.652 108.138C275.277 107.735 275.982 107.533 276.766 107.533C276.914 107.533 277.099 107.536 277.32 107.542C277.542 107.547 277.709 107.556 277.823 107.567V109.613C277.755 109.596 277.599 109.57 277.354 109.536C277.116 109.496 276.863 109.476 276.596 109.476C275.959 109.476 275.391 109.61 274.891 109.877C274.397 110.138 274.005 110.502 273.715 110.968C273.431 111.428 273.289 111.954 273.289 112.544V120.829H271.277Z" fill="black"/>
<defs>
<filter id="filter0_d_46_10" x="14.194" y="43.1382" width="336.884" height="164.496" filterUnits="userSpaceOnUse" color-interpolation-filters="sRGB">
<feFlood flood-opacity="0" result="BackgroundImageFix"/>
<feColorMatrix in="SourceAlpha" type="matrix" values="0 0 0 0 0 0 0 0 0 0 0 0 0 0 0 0 0 0 127 0" result="hardAlpha"/>
<feOffset dy="20"/>
<feComposite in2="hardAlpha" operator="out"/>
<feColorMatrix type="matrix" values="0 0 0 0 0 0 0 0 0 0 0 0 0 0 0 0 0 0 0.05 0"/>
<feBlend mode="normal" in2="BackgroundImageFix" result="effect1_dropShadow_46_10"/>
<feBlend mode="normal" in="SourceGraphic" in2="effect1_dropShadow_46_10" result="shape"/>
</filter>
<linearGradient id="paint0_linear_46_10" x1="52.4304" y1="82.2616" x2="231.767" y2="-9.66082" gradientUnits="userSpaceOnUse">
<stop stop-color="#01BCB2"/>
<stop offset="0.548078" stop-color="#9727FF"/>
<stop offset="1" stop-color="#002C79"/>
</linearGradient>
</defs>
</svg>
