<svg width="280" height="184" viewBox="0 0 280 184" fill="none" xmlns="http://www.w3.org/2000/svg">
<g filter="url(#filter0_d_44_2)">
<rect width="279.179" height="163.197" rx="14" fill="white"/>
<rect x="2" y="2" width="275.179" height="159.197" rx="12" stroke="url(#paint0_linear_44_2)" stroke-width="4"/>
</g>
<path d="M109.864 108.424L115.046 123.117H115.251L120.433 108.424H122.648L116.239 125.879H114.058L107.648 108.424H109.864ZM125.095 125.879V112.788H127.106V125.879H125.095ZM126.117 110.606C125.725 110.606 125.387 110.473 125.103 110.205C124.825 109.938 124.685 109.617 124.685 109.242C124.685 108.867 124.825 108.546 125.103 108.279C125.387 108.012 125.725 107.879 126.117 107.879C126.509 107.879 126.845 108.012 127.123 108.279C127.407 108.546 127.549 108.867 127.549 109.242C127.549 109.617 127.407 109.938 127.123 110.205C126.845 110.473 126.509 110.606 126.117 110.606ZM135.733 126.151C134.642 126.151 133.679 125.876 132.844 125.325C132.009 124.768 131.355 123.984 130.884 122.973C130.412 121.955 130.176 120.754 130.176 119.367C130.176 117.992 130.412 116.799 130.884 115.788C131.355 114.776 132.011 113.995 132.852 113.444C133.693 112.893 134.665 112.617 135.767 112.617C136.619 112.617 137.293 112.759 137.787 113.044C138.287 113.322 138.668 113.64 138.929 113.998C139.196 114.35 139.403 114.64 139.551 114.867H139.722V108.424H141.733V125.879H139.79V123.867H139.551C139.403 124.106 139.193 124.407 138.921 124.771C138.648 125.129 138.259 125.45 137.753 125.734C137.247 126.012 136.574 126.151 135.733 126.151ZM136.006 124.345C136.813 124.345 137.494 124.134 138.051 123.714C138.608 123.288 139.031 122.7 139.321 121.95C139.611 121.194 139.756 120.322 139.756 119.333C139.756 118.356 139.614 117.501 139.33 116.768C139.046 116.029 138.625 115.455 138.068 115.046C137.511 114.632 136.824 114.424 136.006 114.424C135.153 114.424 134.443 114.643 133.875 115.08C133.313 115.512 132.889 116.1 132.605 116.845C132.327 117.583 132.188 118.413 132.188 119.333C132.188 120.265 132.33 121.112 132.614 121.873C132.903 122.629 133.33 123.231 133.892 123.68C134.46 124.123 135.165 124.345 136.006 124.345ZM151.185 126.151C149.923 126.151 148.835 125.873 147.921 125.316C147.011 124.754 146.31 123.97 145.815 122.964C145.327 121.953 145.082 120.776 145.082 119.436C145.082 118.095 145.327 116.913 145.815 115.89C146.31 114.862 146.997 114.061 147.878 113.487C148.764 112.907 149.798 112.617 150.98 112.617C151.662 112.617 152.335 112.731 153 112.958C153.665 113.186 154.27 113.555 154.815 114.066C155.361 114.572 155.796 115.242 156.119 116.078C156.443 116.913 156.605 117.941 156.605 119.163V120.015H146.514V118.276H154.56C154.56 117.538 154.412 116.879 154.117 116.299C153.827 115.72 153.412 115.262 152.872 114.927C152.338 114.592 151.707 114.424 150.98 114.424C150.179 114.424 149.486 114.623 148.901 115.021C148.321 115.413 147.875 115.924 147.563 116.555C147.25 117.186 147.094 117.862 147.094 118.583V119.742C147.094 120.731 147.264 121.569 147.605 122.257C147.952 122.938 148.432 123.458 149.046 123.816C149.659 124.169 150.372 124.345 151.185 124.345C151.713 124.345 152.19 124.271 152.617 124.123C153.048 123.97 153.421 123.742 153.733 123.441C154.046 123.134 154.287 122.754 154.457 122.299L156.401 122.845C156.196 123.504 155.852 124.083 155.369 124.583C154.886 125.078 154.29 125.464 153.58 125.742C152.869 126.015 152.071 126.151 151.185 126.151ZM164.983 126.151C163.801 126.151 162.764 125.87 161.872 125.308C160.986 124.745 160.293 123.958 159.793 122.947C159.298 121.936 159.051 120.754 159.051 119.401C159.051 118.038 159.298 116.848 159.793 115.83C160.293 114.813 160.986 114.024 161.872 113.461C162.764 112.899 163.801 112.617 164.983 112.617C166.165 112.617 167.199 112.899 168.085 113.461C168.977 114.024 169.671 114.813 170.165 115.83C170.665 116.848 170.915 118.038 170.915 119.401C170.915 120.754 170.665 121.936 170.165 122.947C169.671 123.958 168.977 124.745 168.085 125.308C167.199 125.87 166.165 126.151 164.983 126.151ZM164.983 124.345C165.881 124.345 166.619 124.115 167.199 123.654C167.778 123.194 168.207 122.589 168.486 121.839C168.764 121.089 168.903 120.276 168.903 119.401C168.903 118.526 168.764 117.711 168.486 116.955C168.207 116.2 167.778 115.589 167.199 115.123C166.619 114.657 165.881 114.424 164.983 114.424C164.085 114.424 163.347 114.657 162.767 115.123C162.188 115.589 161.759 116.2 161.48 116.955C161.202 117.711 161.063 118.526 161.063 119.401C161.063 120.276 161.202 121.089 161.48 121.839C161.759 122.589 162.188 123.194 162.767 123.654C163.347 124.115 164.085 124.345 164.983 124.345Z" fill="black"/>
<path d="M161.233 58.7241H130.751L160.085 49.7558C160.903 49.5059 161.363 48.6402 161.113 47.8224L158.669 39.8268C158.549 39.4341 158.277 39.1051 157.915 38.9124C157.552 38.7195 157.128 38.6786 156.735 38.7987H156.735L117.493 50.7962C117.101 50.9163 116.772 51.1874 116.579 51.5501C116.386 51.9127 116.345 52.337 116.465 52.7297L118.842 60.5039V83.6768C118.842 86.2153 120.907 88.2806 123.446 88.2806H158.178C160.716 88.2806 162.781 86.2153 162.781 83.6768V60.2725C162.781 59.4174 162.088 58.7241 161.233 58.7241ZM136.816 48.1269L144.383 45.8135L149.386 49.7886L141.819 52.1019L136.816 48.1269ZM138.224 53.2011L130.658 55.5144L125.655 51.5393L133.222 49.2259L138.224 53.2011ZM122.06 52.6384L127.063 56.6135L121.419 58.3391L119.879 53.3051L122.06 52.6384ZM152.981 48.6896L147.978 44.7145L156.16 42.213L157.699 47.2471L152.981 48.6896ZM159.685 83.6768C159.685 84.5077 159.009 85.1837 158.178 85.1837H123.446C122.615 85.1837 121.939 84.5077 121.939 83.6768V61.8209H159.685V83.6768ZM135.272 80.3457C135.512 80.484 135.779 80.5532 136.047 80.5532C136.314 80.5532 136.581 80.484 136.821 80.3457L146.351 74.8434C146.83 74.5668 147.125 74.0555 147.125 73.5024C147.125 72.9492 146.83 72.4381 146.351 72.1615L136.821 66.6592C136.342 66.3827 135.752 66.3826 135.272 66.6592C134.793 66.9358 134.498 67.447 134.498 68.0001V79.0048C134.498 79.5578 134.793 80.069 135.272 80.3457ZM137.595 70.6819L142.48 73.5023L137.595 76.3228V70.6819Z" fill="black"/>
<defs>
<filter id="filter0_d_44_2" x="0" y="0" width="279.179" height="183.197" filterUnits="userSpaceOnUse" color-interpolation-filters="sRGB">
<feFlood flood-opacity="0" result="BackgroundImageFix"/>
<feColorMatrix in="SourceAlpha" type="matrix" values="0 0 0 0 0 0 0 0 0 0 0 0 0 0 0 0 0 0 127 0" result="hardAlpha"/>
<feOffset dy="20"/>
<feComposite in2="hardAlpha" operator="out"/>
<feColorMatrix type="matrix" values="0 0 0 0 0 0 0 0 0 0 0 0 0 0 0 0 0 0 0.05 0"/>
<feBlend mode="normal" in2="BackgroundImageFix" result="effect1_dropShadow_44_2"/>
<feBlend mode="normal" in="SourceGraphic" in2="effect1_dropShadow_44_2" result="shape"/>
</filter>
<linearGradient id="paint0_linear_44_2" x1="80.1457" y1="-4.81507e-06" x2="228.425" y2="129.56" gradientUnits="userSpaceOnUse">
<stop stop-color="#01BCB2"/>
<stop offset="0.548078" stop-color="#9727FF"/>
<stop offset="1" stop-color="#002C79"/>
</linearGradient>
</defs>
</svg>
