<svg width="280" height="184" viewBox="0 0 280 184" fill="none" xmlns="http://www.w3.org/2000/svg">
<g filter="url(#filter0_d_44_3)">
<rect width="279.179" height="163.197" rx="14" fill="white"/>
<rect x="2" y="2" width="275.179" height="159.197" rx="12" stroke="url(#paint0_linear_44_3)" stroke-width="4"/>
</g>
<path d="M116.35 117.558V115.683H129.441V117.558H123.952V133.137H121.839V117.558H116.35ZM136.021 133.41C134.759 133.41 133.671 133.131 132.756 132.575C131.847 132.012 131.146 131.228 130.651 130.222C130.163 129.211 129.918 128.035 129.918 126.694C129.918 125.353 130.163 124.171 130.651 123.148C131.146 122.12 131.833 121.319 132.714 120.745C133.6 120.165 134.634 119.876 135.816 119.876C136.498 119.876 137.171 119.989 137.836 120.217C138.501 120.444 139.106 120.813 139.651 121.325C140.197 121.83 140.631 122.501 140.955 123.336C141.279 124.171 141.441 125.2 141.441 126.421V127.273H131.35V125.535H139.396C139.396 124.796 139.248 124.137 138.952 123.558C138.663 122.978 138.248 122.521 137.708 122.185C137.174 121.85 136.543 121.683 135.816 121.683C135.015 121.683 134.322 121.881 133.737 122.279C133.157 122.671 132.711 123.183 132.398 123.813C132.086 124.444 131.93 125.12 131.93 125.842V127.001C131.93 127.989 132.1 128.827 132.441 129.515C132.788 130.197 133.268 130.717 133.881 131.075C134.495 131.427 135.208 131.603 136.021 131.603C136.549 131.603 137.026 131.529 137.452 131.381C137.884 131.228 138.256 131.001 138.569 130.7C138.881 130.393 139.123 130.012 139.293 129.558L141.237 130.103C141.032 130.762 140.688 131.342 140.205 131.842C139.722 132.336 139.126 132.722 138.416 133.001C137.705 133.273 136.907 133.41 136.021 133.41ZM145.649 120.046L148.786 125.398L151.922 120.046H154.24L150.013 126.592L154.24 133.137H151.922L148.786 128.058L145.649 133.137H143.331L147.49 126.592L143.331 120.046H145.649ZM162.803 120.046V121.751H156.019V120.046H162.803ZM157.996 116.91H160.008V129.387C160.008 129.955 160.09 130.381 160.255 130.665C160.425 130.944 160.641 131.131 160.903 131.228C161.17 131.319 161.451 131.364 161.746 131.364C161.968 131.364 162.15 131.353 162.292 131.33C162.434 131.302 162.548 131.279 162.633 131.262L163.042 133.069C162.906 133.12 162.715 133.171 162.471 133.222C162.227 133.279 161.917 133.308 161.542 133.308C160.974 133.308 160.417 133.185 159.871 132.941C159.332 132.697 158.883 132.325 158.525 131.825C158.173 131.325 157.996 130.694 157.996 129.933V116.91Z" fill="black"/>
<path d="M155.151 95.9213H124.028C122.554 95.9196 121.142 95.3335 120.1 94.2916C119.058 93.2497 118.472 91.837 118.47 90.3636V54.7939C118.472 53.3204 119.058 51.9078 120.1 50.8659C121.142 49.824 122.554 49.2378 124.028 49.2361H155.151C156.625 49.2378 158.037 49.824 159.079 50.8659C160.121 51.9078 160.707 53.3204 160.709 54.7939V90.3636C160.707 91.837 160.121 93.2497 159.079 94.2916C158.037 95.3335 156.625 95.9196 155.151 95.9213ZM124.028 51.4592C123.143 51.4592 122.295 51.8105 121.67 52.4359C121.044 53.0613 120.693 53.9094 120.693 54.7939V90.3636C120.693 91.248 121.044 92.0962 121.67 92.7215C122.295 93.3469 123.143 93.6982 124.028 93.6982H155.151C156.036 93.6982 156.884 93.3469 157.509 92.7215C158.135 92.0962 158.486 91.248 158.486 90.3636V54.7939C158.486 53.9094 158.135 53.0613 157.509 52.4359C156.884 51.8105 156.036 51.4592 155.151 51.4592H124.028Z" fill="black"/>
<path d="M142.924 60.3516H126.251C125.956 60.3516 125.673 60.2345 125.465 60.026C125.256 59.8176 125.139 59.5348 125.139 59.24C125.139 58.9452 125.256 58.6625 125.465 58.454C125.673 58.2456 125.956 58.1285 126.251 58.1285H142.924C143.219 58.1285 143.502 58.2456 143.71 58.454C143.919 58.6625 144.036 58.9452 144.036 59.24C144.036 59.5348 143.919 59.8176 143.71 60.026C143.502 60.2345 143.219 60.3516 142.924 60.3516Z" fill="black"/>
<path d="M134.032 77.025H126.251C125.956 77.025 125.673 76.9079 125.465 76.6994C125.256 76.491 125.139 76.2082 125.139 75.9134C125.139 75.6186 125.256 75.3359 125.465 75.1274C125.673 74.919 125.956 74.8019 126.251 74.8019H134.032C134.327 74.8019 134.609 74.919 134.818 75.1274C135.026 75.3359 135.143 75.6186 135.143 75.9134C135.143 76.2082 135.026 76.491 134.818 76.6994C134.609 76.9079 134.327 77.025 134.032 77.025Z" fill="black"/>
<path d="M152.928 77.025H137.366C137.072 77.025 136.789 76.9079 136.58 76.6994C136.372 76.491 136.255 76.2082 136.255 75.9134C136.255 75.6186 136.372 75.3359 136.58 75.1274C136.789 74.919 137.072 74.8019 137.366 74.8019H152.928C153.223 74.8019 153.506 74.919 153.714 75.1274C153.923 75.3359 154.04 75.6186 154.04 75.9134C154.04 76.2082 153.923 76.491 153.714 76.6994C153.506 76.9079 153.223 77.025 152.928 77.025Z" fill="black"/>
<path d="M140.701 82.5827H126.251C125.956 82.5827 125.673 82.4656 125.465 82.2572C125.256 82.0487 125.139 81.766 125.139 81.4712C125.139 81.1764 125.256 80.8936 125.465 80.6852C125.673 80.4767 125.956 80.3596 126.251 80.3596H140.701C140.996 80.3596 141.279 80.4767 141.487 80.6852C141.696 80.8936 141.813 81.1764 141.813 81.4712C141.813 81.766 141.696 82.0487 141.487 82.2572C141.279 82.4656 140.996 82.5827 140.701 82.5827Z" fill="black"/>
<path d="M152.928 82.5827H144.036C143.741 82.5827 143.458 82.4656 143.25 82.2572C143.041 82.0487 142.924 81.766 142.924 81.4712C142.924 81.1764 143.041 80.8936 143.25 80.6852C143.458 80.4767 143.741 80.3596 144.036 80.3596H152.928C153.223 80.3596 153.506 80.4767 153.714 80.6852C153.923 80.8936 154.04 81.1764 154.04 81.4712C154.04 81.766 153.923 82.0487 153.714 82.2572C153.506 82.4656 153.223 82.5827 152.928 82.5827Z" fill="black"/>
<path d="M131.809 65.9094H126.251C125.956 65.9094 125.673 65.7923 125.465 65.5839C125.256 65.3754 125.139 65.0927 125.139 64.7979C125.139 64.5031 125.256 64.2204 125.465 64.0119C125.673 63.8034 125.956 63.6863 126.251 63.6863H131.809C132.103 63.6863 132.386 63.8034 132.595 64.0119C132.803 64.2204 132.92 64.5031 132.92 64.7979C132.92 65.0927 132.803 65.3754 132.595 65.5839C132.386 65.7923 132.103 65.9094 131.809 65.9094Z" fill="black"/>
<path d="M152.928 65.9094H135.143C134.849 65.9094 134.566 65.7923 134.357 65.5839C134.149 65.3754 134.032 65.0927 134.032 64.7979C134.032 64.5031 134.149 64.2204 134.357 64.0119C134.566 63.8034 134.849 63.6863 135.143 63.6863H152.928C153.223 63.6863 153.506 63.8034 153.714 64.0119C153.923 64.2204 154.04 64.5031 154.04 64.7979C154.04 65.0927 153.923 65.3754 153.714 65.5839C153.506 65.7923 153.223 65.9094 152.928 65.9094Z" fill="black"/>
<path d="M145.147 71.4672H126.251C125.956 71.4672 125.673 71.3501 125.465 71.1416C125.256 70.9332 125.139 70.6504 125.139 70.3556C125.139 70.0608 125.256 69.7781 125.465 69.5696C125.673 69.3612 125.956 69.2441 126.251 69.2441H145.147C145.442 69.2441 145.725 69.3612 145.933 69.5696C146.142 69.7781 146.259 70.0608 146.259 70.3556C146.259 70.6504 146.142 70.9332 145.933 71.1416C145.725 71.3501 145.442 71.4672 145.147 71.4672Z" fill="black"/>
<path d="M152.928 71.4672H148.482C148.187 71.4672 147.904 71.3501 147.696 71.1416C147.488 70.9332 147.37 70.6504 147.37 70.3556C147.37 70.0608 147.488 69.7781 147.696 69.5696C147.904 69.3612 148.187 69.2441 148.482 69.2441H152.928C153.223 69.2441 153.506 69.3612 153.714 69.5696C153.923 69.7781 154.04 70.0608 154.04 70.3556C154.04 70.6504 153.923 70.9332 153.714 71.1416C153.506 71.3501 153.223 71.4672 152.928 71.4672Z" fill="black"/>
<path d="M136.255 88.1405H126.251C125.956 88.1405 125.673 88.0234 125.465 87.8149C125.256 87.6064 125.139 87.3237 125.139 87.0289C125.139 86.7341 125.256 86.4514 125.465 86.2429C125.673 86.0345 125.956 85.9174 126.251 85.9174H136.255C136.55 85.9174 136.832 86.0345 137.041 86.2429C137.249 86.4514 137.366 86.7341 137.366 87.0289C137.366 87.3237 137.249 87.6064 137.041 87.8149C136.832 88.0234 136.55 88.1405 136.255 88.1405Z" fill="black"/>
<path d="M152.928 88.1405H139.59C139.295 88.1405 139.012 88.0234 138.804 87.8149C138.595 87.6064 138.478 87.3237 138.478 87.0289C138.478 86.7341 138.595 86.4514 138.804 86.2429C139.012 86.0345 139.295 85.9174 139.59 85.9174H152.928C153.223 85.9174 153.506 86.0345 153.714 86.2429C153.923 86.4514 154.04 86.7341 154.04 87.0289C154.04 87.3237 153.923 87.6064 153.714 87.8149C153.506 88.0234 153.223 88.1405 152.928 88.1405Z" fill="black"/>
<defs>
<filter id="filter0_d_44_3" x="0" y="0" width="279.179" height="183.198" filterUnits="userSpaceOnUse" color-interpolation-filters="sRGB">
<feFlood flood-opacity="0" result="BackgroundImageFix"/>
<feColorMatrix in="SourceAlpha" type="matrix" values="0 0 0 0 0 0 0 0 0 0 0 0 0 0 0 0 0 0 127 0" result="hardAlpha"/>
<feOffset dy="20"/>
<feComposite in2="hardAlpha" operator="out"/>
<feColorMatrix type="matrix" values="0 0 0 0 0 0 0 0 0 0 0 0 0 0 0 0 0 0 0.05 0"/>
<feBlend mode="normal" in2="BackgroundImageFix" result="effect1_dropShadow_44_3"/>
<feBlend mode="normal" in="SourceGraphic" in2="effect1_dropShadow_44_3" result="shape"/>
</filter>
<linearGradient id="paint0_linear_44_3" x1="80.1457" y1="-4.81507e-06" x2="228.425" y2="129.56" gradientUnits="userSpaceOnUse">
<stop stop-color="#01BCB2"/>
<stop offset="0.548078" stop-color="#9727FF"/>
<stop offset="1" stop-color="#002C79"/>
</linearGradient>
</defs>
</svg>
