<svg width="706" height="593" viewBox="0 0 706 593" fill="none" xmlns="http://www.w3.org/2000/svg">
<path d="M14 2H692C698.627 2 704 7.37258 704 14V578.787C704 585.414 698.627 590.787 692 590.787H14C7.37275 590.787 2.00026 585.414 2 578.787V14C2 7.37258 7.37258 2 14 2Z" fill="white" stroke="url(#paint0_linear_46_14)" stroke-width="4"/>
<g filter="url(#filter0_d_46_14)">
<path d="M71.7515 81.9424C71.7515 74.2104 78.0195 67.9424 85.7515 67.9424H336.931C344.663 67.9424 350.931 74.2104 350.931 81.9424V217.14C350.931 224.872 344.663 231.14 336.931 231.14H85.7515C78.0195 231.14 71.7515 224.872 71.7515 217.14V81.9424Z" fill="white"/>
<path d="M85.7515 68.4424H336.93C344.386 68.4424 350.43 74.4866 350.43 81.9424V217.14C350.43 224.596 344.386 230.64 336.93 230.64H85.7515C78.2956 230.64 72.2515 224.596 72.2515 217.14V81.9424C72.2515 74.4866 78.2956 68.4424 85.7515 68.4424Z" stroke="#E5E7EB"/>
</g>
<g filter="url(#filter1_d_46_14)">
<path d="M59.2397 94.888C59.2397 87.156 65.5078 80.888 73.2397 80.888H324.419C332.151 80.888 338.419 87.156 338.419 94.888V230.085C338.419 237.817 332.151 244.085 324.419 244.085H73.2398C65.5078 244.085 59.2397 237.817 59.2397 230.085V94.888Z" fill="white"/>
<path d="M73.2397 81.388H324.418C331.874 81.388 337.918 87.4321 337.918 94.888V230.085C337.918 237.541 331.874 243.585 324.418 243.585H73.2397C65.7839 243.585 59.7397 237.541 59.7397 230.085V94.888C59.7398 87.4321 65.7839 81.388 73.2397 81.388Z" stroke="#E5E7EB"/>
</g>
<g filter="url(#filter2_d_46_14)">
<rect x="373.801" y="66.4286" width="279.179" height="163.197" rx="14" fill="white"/>
<rect x="375.801" y="68.4286" width="275.179" height="159.197" rx="12" stroke="url(#paint1_linear_46_14)" stroke-width="4"/>
</g>
<path d="M490.151 183.986V182.111H503.242V183.986H497.753V199.566H495.64V183.986H490.151ZM509.821 199.838C508.56 199.838 507.472 199.56 506.557 199.003C505.648 198.441 504.946 197.657 504.452 196.651C503.964 195.64 503.719 194.463 503.719 193.122C503.719 191.782 503.964 190.6 504.452 189.577C504.946 188.549 505.634 187.747 506.515 187.174C507.401 186.594 508.435 186.304 509.617 186.304C510.299 186.304 510.972 186.418 511.637 186.645C512.302 186.872 512.907 187.242 513.452 187.753C513.998 188.259 514.432 188.929 514.756 189.765C515.08 190.6 515.242 191.628 515.242 192.85V193.702H505.151V191.963H513.196C513.196 191.225 513.049 190.566 512.753 189.986C512.464 189.407 512.049 188.949 511.509 188.614C510.975 188.279 510.344 188.111 509.617 188.111C508.816 188.111 508.123 188.31 507.537 188.708C506.958 189.1 506.512 189.611 506.199 190.242C505.887 190.872 505.731 191.549 505.731 192.27V193.429C505.731 194.418 505.901 195.256 506.242 195.943C506.589 196.625 507.069 197.145 507.682 197.503C508.296 197.855 509.009 198.032 509.821 198.032C510.35 198.032 510.827 197.958 511.253 197.81C511.685 197.657 512.057 197.429 512.37 197.128C512.682 196.821 512.924 196.441 513.094 195.986L515.037 196.532C514.833 197.191 514.489 197.77 514.006 198.27C513.523 198.765 512.927 199.151 512.216 199.429C511.506 199.702 510.708 199.838 509.821 199.838ZM519.45 186.475L522.586 191.827L525.723 186.475H528.041L523.814 193.02L528.041 199.566H525.723L522.586 194.486L519.45 199.566H517.132L521.291 193.02L517.132 186.475H519.45ZM536.604 186.475V188.179H529.82V186.475H536.604ZM531.797 183.338H533.809V195.816C533.809 196.384 533.891 196.81 534.056 197.094C534.226 197.372 534.442 197.56 534.704 197.657C534.971 197.747 535.252 197.793 535.547 197.793C535.769 197.793 535.951 197.782 536.093 197.759C536.235 197.73 536.348 197.708 536.434 197.691L536.843 199.497C536.706 199.549 536.516 199.6 536.272 199.651C536.027 199.708 535.718 199.736 535.343 199.736C534.775 199.736 534.218 199.614 533.672 199.37C533.133 199.125 532.684 198.753 532.326 198.253C531.973 197.753 531.797 197.122 531.797 196.361V183.338Z" fill="black"/>
<path d="M528.952 162.35H497.829C496.355 162.348 494.943 161.762 493.901 160.72C492.859 159.678 492.273 158.266 492.271 156.792V121.222C492.273 119.749 492.859 118.336 493.901 117.294C494.943 116.253 496.355 115.666 497.829 115.665H528.952C530.426 115.666 531.838 116.253 532.88 117.294C533.922 118.336 534.508 119.749 534.51 121.222V156.792C534.508 158.266 533.922 159.678 532.88 160.72C531.838 161.762 530.426 162.348 528.952 162.35ZM497.829 117.888C496.944 117.888 496.096 118.239 495.471 118.864C494.845 119.49 494.494 120.338 494.494 121.222V156.792C494.494 157.677 494.845 158.525 495.471 159.15C496.096 159.775 496.944 160.127 497.829 160.127H528.952C529.837 160.127 530.685 159.775 531.31 159.15C531.935 158.525 532.287 157.677 532.287 156.792V121.222C532.287 120.338 531.935 119.49 531.31 118.864C530.685 118.239 529.837 117.888 528.952 117.888H497.829Z" fill="black"/>
<path d="M516.725 126.78H500.052C499.757 126.78 499.474 126.663 499.266 126.455C499.057 126.246 498.94 125.963 498.94 125.669C498.94 125.374 499.057 125.091 499.266 124.883C499.474 124.674 499.757 124.557 500.052 124.557H516.725C517.02 124.557 517.303 124.674 517.511 124.883C517.719 125.091 517.837 125.374 517.837 125.669C517.837 125.963 517.719 126.246 517.511 126.455C517.303 126.663 517.02 126.78 516.725 126.78Z" fill="black"/>
<path d="M507.833 143.454H500.052C499.757 143.454 499.474 143.336 499.266 143.128C499.057 142.92 498.94 142.637 498.94 142.342C498.94 142.047 499.057 141.764 499.266 141.556C499.474 141.348 499.757 141.23 500.052 141.23H507.833C508.127 141.23 508.41 141.348 508.619 141.556C508.827 141.764 508.944 142.047 508.944 142.342C508.944 142.637 508.827 142.92 508.619 143.128C508.41 143.336 508.127 143.454 507.833 143.454Z" fill="black"/>
<path d="M526.729 143.454H511.167C510.872 143.454 510.59 143.336 510.381 143.128C510.173 142.92 510.056 142.637 510.056 142.342C510.056 142.047 510.173 141.764 510.381 141.556C510.59 141.348 510.872 141.23 511.167 141.23H526.729C527.024 141.23 527.307 141.348 527.515 141.556C527.723 141.764 527.841 142.047 527.841 142.342C527.841 142.637 527.723 142.92 527.515 143.128C527.307 143.336 527.024 143.454 526.729 143.454Z" fill="black"/>
<path d="M514.502 149.011H500.052C499.757 149.011 499.474 148.894 499.266 148.686C499.057 148.477 498.94 148.195 498.94 147.9C498.94 147.605 499.057 147.322 499.266 147.114C499.474 146.905 499.757 146.788 500.052 146.788H514.502C514.797 146.788 515.079 146.905 515.288 147.114C515.496 147.322 515.613 147.605 515.613 147.9C515.613 148.195 515.496 148.477 515.288 148.686C515.079 148.894 514.797 149.011 514.502 149.011Z" fill="black"/>
<path d="M526.729 149.011H517.837C517.542 149.011 517.259 148.894 517.051 148.686C516.842 148.477 516.725 148.195 516.725 147.9C516.725 147.605 516.842 147.322 517.051 147.114C517.259 146.905 517.542 146.788 517.837 146.788H526.729C527.024 146.788 527.307 146.905 527.515 147.114C527.723 147.322 527.841 147.605 527.841 147.9C527.841 148.195 527.723 148.477 527.515 148.686C527.307 148.894 527.024 149.011 526.729 149.011Z" fill="black"/>
<path d="M505.61 132.338H500.052C499.757 132.338 499.474 132.221 499.266 132.012C499.057 131.804 498.94 131.521 498.94 131.226C498.94 130.932 499.057 130.649 499.266 130.44C499.474 130.232 499.757 130.115 500.052 130.115H505.61C505.904 130.115 506.187 130.232 506.395 130.44C506.604 130.649 506.721 130.932 506.721 131.226C506.721 131.521 506.604 131.804 506.395 132.012C506.187 132.221 505.904 132.338 505.61 132.338Z" fill="black"/>
<path d="M526.729 132.338H508.944C508.649 132.338 508.367 132.221 508.158 132.012C507.95 131.804 507.833 131.521 507.833 131.226C507.833 130.932 507.95 130.649 508.158 130.44C508.367 130.232 508.649 130.115 508.944 130.115H526.729C527.024 130.115 527.307 130.232 527.515 130.44C527.723 130.649 527.841 130.932 527.841 131.226C527.841 131.521 527.723 131.804 527.515 132.012C527.307 132.221 527.024 132.338 526.729 132.338Z" fill="black"/>
<path d="M518.948 137.896H500.052C499.757 137.896 499.474 137.779 499.266 137.57C499.057 137.362 498.94 137.079 498.94 136.784C498.94 136.489 499.057 136.207 499.266 135.998C499.474 135.79 499.757 135.673 500.052 135.673H518.948C519.243 135.673 519.526 135.79 519.734 135.998C519.943 136.207 520.06 136.489 520.06 136.784C520.06 137.079 519.943 137.362 519.734 137.57C519.526 137.779 519.243 137.896 518.948 137.896Z" fill="black"/>
<path d="M526.729 137.896H522.283C521.988 137.896 521.705 137.779 521.497 137.57C521.288 137.362 521.171 137.079 521.171 136.784C521.171 136.489 521.288 136.207 521.497 135.998C521.705 135.79 521.988 135.673 522.283 135.673H526.729C527.024 135.673 527.307 135.79 527.515 135.998C527.724 136.207 527.841 136.489 527.841 136.784C527.841 137.079 527.724 137.362 527.515 137.57C527.307 137.779 527.024 137.896 526.729 137.896Z" fill="black"/>
<path d="M510.056 154.569H500.052C499.757 154.569 499.474 154.452 499.266 154.243C499.057 154.035 498.94 153.752 498.94 153.457C498.94 153.163 499.057 152.88 499.266 152.671C499.474 152.463 499.757 152.346 500.052 152.346H510.056C510.351 152.346 510.633 152.463 510.842 152.671C511.05 152.88 511.167 153.163 511.167 153.457C511.167 153.752 511.05 154.035 510.842 154.243C510.633 154.452 510.351 154.569 510.056 154.569Z" fill="black"/>
<path d="M526.729 154.569H513.39C513.096 154.569 512.813 154.452 512.604 154.243C512.396 154.035 512.279 153.752 512.279 153.457C512.279 153.163 512.396 152.88 512.604 152.671C512.813 152.463 513.096 152.346 513.39 152.346H526.729C527.024 152.346 527.307 152.463 527.515 152.671C527.723 152.88 527.841 153.163 527.841 153.457C527.841 153.752 527.723 154.035 527.515 154.243C527.307 154.452 527.024 154.569 526.729 154.569Z" fill="black"/>
<g filter="url(#filter3_d_46_14)">
<rect x="46.6528" y="94.2503" width="279.179" height="163.197" rx="14" fill="white"/>
<rect x="48.6528" y="96.2503" width="275.179" height="159.197" rx="12" stroke="url(#paint2_linear_46_14)" stroke-width="4"/>
</g>
<path d="M156.517 202.675L161.699 217.368H161.904L167.085 202.675H169.301L162.892 220.129H160.71L154.301 202.675H156.517ZM171.747 220.129V207.038H173.759V220.129H171.747ZM172.77 204.856C172.378 204.856 172.04 204.723 171.756 204.456C171.477 204.189 171.338 203.868 171.338 203.493C171.338 203.118 171.477 202.797 171.756 202.53C172.04 202.263 172.378 202.129 172.77 202.129C173.162 202.129 173.497 202.263 173.776 202.53C174.06 202.797 174.202 203.118 174.202 203.493C174.202 203.868 174.06 204.189 173.776 204.456C173.497 204.723 173.162 204.856 172.77 204.856ZM182.386 220.402C181.295 220.402 180.332 220.126 179.497 219.575C178.661 219.018 178.008 218.234 177.536 217.223C177.065 216.206 176.829 215.004 176.829 213.618C176.829 212.243 177.065 211.05 177.536 210.038C178.008 209.027 178.664 208.246 179.505 207.694C180.346 207.143 181.318 206.868 182.42 206.868C183.272 206.868 183.945 207.01 184.44 207.294C184.94 207.572 185.32 207.89 185.582 208.248C185.849 208.601 186.056 208.89 186.204 209.118H186.374V202.675H188.386V220.129H186.443V218.118H186.204C186.056 218.356 185.846 218.657 185.573 219.021C185.301 219.379 184.911 219.7 184.406 219.984C183.9 220.263 183.227 220.402 182.386 220.402ZM182.659 218.595C183.465 218.595 184.147 218.385 184.704 217.964C185.261 217.538 185.684 216.95 185.974 216.2C186.264 215.444 186.409 214.572 186.409 213.584C186.409 212.606 186.266 211.751 185.982 211.018C185.698 210.28 185.278 209.706 184.721 209.297C184.164 208.882 183.477 208.675 182.659 208.675C181.806 208.675 181.096 208.893 180.528 209.331C179.965 209.763 179.542 210.351 179.258 211.095C178.98 211.834 178.84 212.663 178.84 213.584C178.84 214.515 178.982 215.362 179.266 216.123C179.556 216.879 179.982 217.481 180.545 217.93C181.113 218.373 181.818 218.595 182.659 218.595ZM197.837 220.402C196.576 220.402 195.488 220.123 194.573 219.567C193.664 219.004 192.962 218.22 192.468 217.214C191.98 216.203 191.735 215.027 191.735 213.686C191.735 212.345 191.98 211.163 192.468 210.14C192.962 209.112 193.65 208.311 194.531 207.737C195.417 207.157 196.451 206.868 197.633 206.868C198.315 206.868 198.988 206.981 199.653 207.209C200.318 207.436 200.923 207.805 201.468 208.317C202.014 208.822 202.448 209.493 202.772 210.328C203.096 211.163 203.258 212.192 203.258 213.413V214.265H193.167V212.527H201.212C201.212 211.788 201.065 211.129 200.769 210.55C200.48 209.97 200.065 209.513 199.525 209.177C198.991 208.842 198.36 208.675 197.633 208.675C196.832 208.675 196.139 208.873 195.553 209.271C194.974 209.663 194.528 210.175 194.215 210.805C193.903 211.436 193.747 212.112 193.747 212.834V213.993C193.747 214.981 193.917 215.819 194.258 216.507C194.605 217.189 195.085 217.709 195.698 218.067C196.312 218.419 197.025 218.595 197.837 218.595C198.366 218.595 198.843 218.521 199.269 218.373C199.701 218.22 200.073 217.993 200.386 217.692C200.698 217.385 200.94 217.004 201.11 216.55L203.053 217.095C202.849 217.754 202.505 218.334 202.022 218.834C201.539 219.328 200.943 219.714 200.232 219.993C199.522 220.265 198.724 220.402 197.837 220.402ZM211.636 220.402C210.454 220.402 209.417 220.121 208.525 219.558C207.639 218.996 206.945 218.209 206.445 217.197C205.951 216.186 205.704 215.004 205.704 213.652C205.704 212.288 205.951 211.098 206.445 210.081C206.945 209.064 207.639 208.274 208.525 207.711C209.417 207.149 210.454 206.868 211.636 206.868C212.818 206.868 213.852 207.149 214.738 207.711C215.63 208.274 216.323 209.064 216.818 210.081C217.318 211.098 217.568 212.288 217.568 213.652C217.568 215.004 217.318 216.186 216.818 217.197C216.323 218.209 215.63 218.996 214.738 219.558C213.852 220.121 212.818 220.402 211.636 220.402ZM211.636 218.595C212.534 218.595 213.272 218.365 213.852 217.905C214.431 217.444 214.86 216.839 215.139 216.089C215.417 215.339 215.556 214.527 215.556 213.652C215.556 212.777 215.417 211.961 215.139 211.206C214.86 210.45 214.431 209.839 213.852 209.373C213.272 208.907 212.534 208.675 211.636 208.675C210.738 208.675 209.999 208.907 209.42 209.373C208.84 209.839 208.411 210.45 208.133 211.206C207.855 211.961 207.715 212.777 207.715 213.652C207.715 214.527 207.855 215.339 208.133 216.089C208.411 216.839 208.84 217.444 209.42 217.905C209.999 218.365 210.738 218.595 211.636 218.595Z" fill="black"/>
<path d="M207.886 152.974H177.404L206.738 144.006C207.556 143.756 208.016 142.891 207.766 142.073L205.322 134.077C205.201 133.684 204.93 133.355 204.568 133.163C204.205 132.97 203.781 132.929 203.388 133.049H203.388L164.146 145.046C163.753 145.167 163.424 145.438 163.232 145.8C163.039 146.163 162.998 146.587 163.118 146.98L165.495 154.754V177.927C165.495 180.466 167.56 182.531 170.099 182.531H204.83C207.369 182.531 209.434 180.466 209.434 177.927V154.523C209.434 153.668 208.741 152.974 207.886 152.974ZM183.469 142.377L191.036 140.064L196.039 144.039L188.472 146.352L183.469 142.377ZM184.877 147.451L177.31 149.765L172.308 145.79L179.874 143.476L184.877 147.451ZM168.713 146.889L173.716 150.864L168.071 152.589L166.532 147.555L168.713 146.889ZM199.634 142.94L194.631 138.965L202.813 136.463L204.352 141.497L199.634 142.94ZM206.337 177.927C206.337 178.758 205.661 179.434 204.83 179.434H170.099C169.268 179.434 168.592 178.758 168.592 177.927V156.071H206.337V177.927ZM181.925 174.596C182.165 174.734 182.432 174.803 182.699 174.803C182.967 174.803 183.234 174.734 183.474 174.596L193.004 169.094C193.483 168.817 193.778 168.306 193.778 167.753C193.778 167.199 193.483 166.688 193.004 166.412L183.474 160.909C182.994 160.633 182.404 160.633 181.925 160.909C181.446 161.186 181.151 161.697 181.151 162.25V173.255C181.151 173.808 181.446 174.319 181.925 174.596ZM184.248 164.932L189.133 167.753L184.248 170.573V164.932Z" fill="black"/>
<g filter="url(#filter4_d_46_14)">
<rect x="42.7515" y="359.248" width="279.179" height="163.197" rx="14" fill="white"/>
<rect x="44.7515" y="361.248" width="275.179" height="159.197" rx="12" stroke="url(#paint3_linear_46_14)" stroke-width="4"/>
</g>
<path d="M152.628 488.386H150.412L156.821 470.931H159.003L165.412 488.386H163.196L157.98 473.692H157.843L152.628 488.386ZM153.446 481.567H162.378V483.442H153.446V481.567ZM176.108 483.033V475.295H178.119V488.386H176.108V486.17H175.971C175.665 486.834 175.187 487.4 174.54 487.866C173.892 488.326 173.074 488.556 172.085 488.556C171.267 488.556 170.54 488.377 169.903 488.019C169.267 487.655 168.767 487.11 168.403 486.383C168.04 485.65 167.858 484.726 167.858 483.613V475.295H169.869V483.476C169.869 484.431 170.136 485.192 170.67 485.761C171.21 486.329 171.897 486.613 172.733 486.613C173.233 486.613 173.741 486.485 174.258 486.229C174.781 485.974 175.218 485.582 175.571 485.053C175.929 484.525 176.108 483.851 176.108 483.033ZM186.746 488.658C185.655 488.658 184.692 488.383 183.857 487.832C183.022 487.275 182.368 486.491 181.897 485.479C181.425 484.462 181.189 483.261 181.189 481.874C181.189 480.499 181.425 479.306 181.897 478.295C182.368 477.283 183.025 476.502 183.866 475.951C184.706 475.4 185.678 475.124 186.78 475.124C187.633 475.124 188.306 475.266 188.8 475.55C189.3 475.829 189.681 476.147 189.942 476.505C190.209 476.857 190.417 477.147 190.564 477.374H190.735V470.931H192.746V488.386H190.803V486.374H190.564C190.417 486.613 190.206 486.914 189.934 487.278C189.661 487.636 189.272 487.957 188.766 488.241C188.26 488.519 187.587 488.658 186.746 488.658ZM187.019 486.851C187.826 486.851 188.508 486.641 189.064 486.221C189.621 485.795 190.044 485.207 190.334 484.457C190.624 483.701 190.769 482.829 190.769 481.84C190.769 480.863 190.627 480.008 190.343 479.275C190.059 478.536 189.638 477.962 189.081 477.553C188.525 477.138 187.837 476.931 187.019 476.931C186.167 476.931 185.456 477.15 184.888 477.587C184.326 478.019 183.902 478.607 183.618 479.351C183.34 480.09 183.201 480.92 183.201 481.84C183.201 482.772 183.343 483.618 183.627 484.38C183.917 485.136 184.343 485.738 184.905 486.187C185.473 486.63 186.178 486.851 187.019 486.851ZM196.709 488.386V475.295H198.721V488.386H196.709ZM197.732 473.113C197.34 473.113 197.002 472.979 196.718 472.712C196.439 472.445 196.3 472.124 196.3 471.749C196.3 471.374 196.439 471.053 196.718 470.786C197.002 470.519 197.34 470.386 197.732 470.386C198.124 470.386 198.459 470.519 198.738 470.786C199.022 471.053 199.164 471.374 199.164 471.749C199.164 472.124 199.022 472.445 198.738 472.712C198.459 472.979 198.124 473.113 197.732 473.113ZM207.723 488.658C206.541 488.658 205.504 488.377 204.612 487.815C203.726 487.252 203.032 486.465 202.532 485.454C202.038 484.442 201.791 483.261 201.791 481.908C201.791 480.545 202.038 479.354 202.532 478.337C203.032 477.32 203.726 476.53 204.612 475.968C205.504 475.405 206.541 475.124 207.723 475.124C208.905 475.124 209.939 475.405 210.825 475.968C211.717 476.53 212.41 477.32 212.905 478.337C213.405 479.354 213.655 480.545 213.655 481.908C213.655 483.261 213.405 484.442 212.905 485.454C212.41 486.465 211.717 487.252 210.825 487.815C209.939 488.377 208.905 488.658 207.723 488.658ZM207.723 486.851C208.62 486.851 209.359 486.621 209.939 486.161C210.518 485.701 210.947 485.096 211.226 484.346C211.504 483.596 211.643 482.783 211.643 481.908C211.643 481.033 211.504 480.218 211.226 479.462C210.947 478.707 210.518 478.096 209.939 477.63C209.359 477.164 208.62 476.931 207.723 476.931C206.825 476.931 206.086 477.164 205.507 477.63C204.927 478.096 204.498 478.707 204.22 479.462C203.942 480.218 203.802 481.033 203.802 481.908C203.802 482.783 203.942 483.596 204.22 484.346C204.498 485.096 204.927 485.701 205.507 486.161C206.086 486.621 206.825 486.851 207.723 486.851Z" fill="black"/>
<path d="M203.307 430.974V425.212C203.307 413.633 193.887 404.212 182.308 404.212C170.729 404.212 161.308 413.633 161.308 425.212V430.984C157.332 431.786 154.328 435.307 154.328 439.516C154.328 444.315 158.233 448.219 163.032 448.219H166.902C167.418 448.219 167.836 447.801 167.836 447.286V431.744C167.836 431.229 167.418 430.811 166.902 430.811H163.174V425.211C163.174 414.662 171.757 406.079 182.307 406.079C192.857 406.079 201.439 414.662 201.439 425.211V430.811H197.78C197.265 430.811 196.846 431.229 196.846 431.744V447.286C196.846 447.801 197.265 448.219 197.78 448.219H201.651C206.45 448.219 210.354 444.314 210.354 439.516C210.354 435.283 207.317 431.75 203.307 430.974ZM165.968 446.353H163.032C159.262 446.353 156.195 443.286 156.195 439.516C156.195 435.747 159.262 432.68 163.032 432.68H165.968V446.353ZM201.651 446.353H198.714V432.679H201.651C205.42 432.679 208.487 435.746 208.487 439.516C208.487 443.285 205.42 446.353 201.651 446.353Z" fill="black" stroke="black"/>
<path d="M187.123 434.269C184.697 434.269 182.724 436.091 182.724 438.331C182.724 440.57 184.698 442.392 187.123 442.392C189.549 442.392 191.523 440.57 191.523 438.331V424.56C191.523 424.268 191.386 423.992 191.153 423.816C190.919 423.638 190.616 423.581 190.336 423.661L179.28 426.789C178.877 426.903 178.6 427.27 178.6 427.687V438.147C177.883 437.679 177.011 437.397 176.067 437.397C173.641 437.397 171.668 439.219 171.668 441.458C171.668 443.697 173.642 445.519 176.067 445.519C178.492 445.519 180.467 443.697 180.467 441.458V428.394L189.656 425.795V435.021C188.939 434.552 188.068 434.269 187.123 434.269ZM176.067 443.65C174.671 443.65 173.536 442.666 173.536 441.457C173.536 440.248 174.671 439.263 176.067 439.263C177.463 439.263 178.6 440.248 178.6 441.457C178.6 442.666 177.463 443.65 176.067 443.65ZM187.123 440.523C185.727 440.523 184.592 439.539 184.592 438.33C184.592 437.12 185.727 436.136 187.123 436.136C188.519 436.136 189.656 437.12 189.656 438.33C189.656 439.539 188.519 440.523 187.123 440.523Z" fill="black" stroke="black"/>
<g filter="url(#filter5_d_46_14)">
<rect x="373.801" y="359.248" width="279.179" height="163.197" rx="14" fill="white"/>
<rect x="375.801" y="361.248" width="275.179" height="159.197" rx="12" stroke="url(#paint4_linear_46_14)" stroke-width="4"/>
</g>
<path d="M473.751 488.386H471.535L477.944 470.931H480.126L486.535 488.386H484.319L479.103 473.692H478.967L473.751 488.386ZM474.569 481.567H483.501V483.442H474.569V481.567ZM494.299 488.658C493.072 488.658 492.015 488.368 491.129 487.789C490.243 487.209 489.561 486.411 489.084 485.394C488.606 484.377 488.368 483.215 488.368 481.908C488.368 480.579 488.612 479.405 489.101 478.388C489.595 477.366 490.282 476.567 491.163 475.993C492.049 475.414 493.084 475.124 494.265 475.124C495.186 475.124 496.015 475.295 496.754 475.636C497.493 475.976 498.098 476.454 498.569 477.067C499.041 477.681 499.334 478.397 499.447 479.215H497.436C497.282 478.618 496.942 478.09 496.413 477.63C495.89 477.164 495.186 476.931 494.299 476.931C493.515 476.931 492.828 477.136 492.237 477.545C491.652 477.948 491.194 478.519 490.865 479.258C490.541 479.991 490.379 480.851 490.379 481.84C490.379 482.851 490.538 483.732 490.856 484.482C491.18 485.232 491.635 485.815 492.22 486.229C492.811 486.644 493.504 486.851 494.299 486.851C494.822 486.851 495.297 486.761 495.723 486.579C496.149 486.397 496.51 486.136 496.805 485.795C497.101 485.454 497.311 485.045 497.436 484.567H499.447C499.334 485.34 499.052 486.036 498.603 486.655C498.16 487.269 497.572 487.758 496.839 488.121C496.112 488.479 495.265 488.658 494.299 488.658ZM508.081 475.295V476.999H501.297V475.295H508.081ZM503.274 472.158H505.285V484.636C505.285 485.204 505.368 485.63 505.532 485.914C505.703 486.192 505.919 486.38 506.18 486.476C506.447 486.567 506.728 486.613 507.024 486.613C507.245 486.613 507.427 486.601 507.569 486.579C507.711 486.55 507.825 486.528 507.91 486.511L508.319 488.317C508.183 488.368 507.993 488.42 507.748 488.471C507.504 488.528 507.194 488.556 506.819 488.556C506.251 488.556 505.694 488.434 505.149 488.19C504.609 487.945 504.16 487.573 503.802 487.073C503.45 486.573 503.274 485.942 503.274 485.181V472.158ZM511.106 488.386V475.295H513.118V488.386H511.106ZM512.129 473.113C511.737 473.113 511.399 472.979 511.115 472.712C510.836 472.445 510.697 472.124 510.697 471.749C510.697 471.374 510.836 471.053 511.115 470.786C511.399 470.519 511.737 470.386 512.129 470.386C512.521 470.386 512.856 470.519 513.135 470.786C513.419 471.053 513.561 471.374 513.561 471.749C513.561 472.124 513.419 472.445 513.135 472.712C512.856 472.979 512.521 473.113 512.129 473.113ZM522.12 488.658C520.938 488.658 519.901 488.377 519.009 487.815C518.123 487.252 517.429 486.465 516.929 485.454C516.435 484.442 516.188 483.261 516.188 481.908C516.188 480.545 516.435 479.354 516.929 478.337C517.429 477.32 518.123 476.53 519.009 475.968C519.901 475.405 520.938 475.124 522.12 475.124C523.302 475.124 524.336 475.405 525.222 475.968C526.114 476.53 526.807 477.32 527.302 478.337C527.802 479.354 528.052 480.545 528.052 481.908C528.052 483.261 527.802 484.442 527.302 485.454C526.807 486.465 526.114 487.252 525.222 487.815C524.336 488.377 523.302 488.658 522.12 488.658ZM522.12 486.851C523.018 486.851 523.756 486.621 524.336 486.161C524.915 485.701 525.344 485.096 525.623 484.346C525.901 483.596 526.04 482.783 526.04 481.908C526.04 481.033 525.901 480.218 525.623 479.462C525.344 478.707 524.915 478.096 524.336 477.63C523.756 477.164 523.018 476.931 522.12 476.931C521.222 476.931 520.483 477.164 519.904 477.63C519.324 478.096 518.895 478.707 518.617 479.462C518.339 480.218 518.199 481.033 518.199 481.908C518.199 482.783 518.339 483.596 518.617 484.346C518.895 485.096 519.324 485.701 519.904 486.161C520.483 486.621 521.222 486.851 522.12 486.851ZM533.133 480.511V488.386H531.122V475.295H533.065V477.34H533.236C533.542 476.675 534.008 476.141 534.633 475.738C535.258 475.329 536.065 475.124 537.054 475.124C537.94 475.124 538.716 475.306 539.38 475.67C540.045 476.028 540.562 476.573 540.932 477.306C541.301 478.033 541.486 478.954 541.486 480.067V488.386H539.474V480.204C539.474 479.175 539.207 478.374 538.673 477.8C538.139 477.221 537.406 476.931 536.474 476.931C535.832 476.931 535.258 477.07 534.753 477.349C534.253 477.627 533.858 478.033 533.568 478.567C533.278 479.101 533.133 479.749 533.133 480.511ZM554.434 478.226L552.627 478.738C552.513 478.437 552.346 478.144 552.124 477.86C551.908 477.57 551.613 477.332 551.238 477.144C550.863 476.957 550.383 476.863 549.797 476.863C548.996 476.863 548.329 477.047 547.795 477.417C547.266 477.78 547.002 478.243 547.002 478.806C547.002 479.306 547.184 479.701 547.547 479.991C547.911 480.28 548.479 480.522 549.252 480.715L551.195 481.192C552.366 481.476 553.238 481.911 553.812 482.496C554.385 483.076 554.672 483.823 554.672 484.738C554.672 485.488 554.456 486.158 554.025 486.749C553.598 487.34 553.002 487.806 552.235 488.147C551.468 488.488 550.576 488.658 549.559 488.658C548.223 488.658 547.118 488.368 546.243 487.789C545.368 487.209 544.814 486.363 544.581 485.249L546.491 484.772C546.672 485.476 547.016 486.005 547.522 486.357C548.033 486.709 548.701 486.886 549.525 486.886C550.462 486.886 551.206 486.687 551.758 486.289C552.314 485.886 552.593 485.403 552.593 484.84C552.593 484.386 552.434 484.005 552.116 483.698C551.797 483.386 551.309 483.153 550.65 482.999L548.468 482.488C547.269 482.204 546.388 481.763 545.826 481.167C545.269 480.565 544.991 479.812 544.991 478.908C544.991 478.17 545.198 477.516 545.613 476.948C546.033 476.38 546.604 475.934 547.326 475.61C548.053 475.286 548.877 475.124 549.797 475.124C551.093 475.124 552.11 475.408 552.848 475.976C553.593 476.545 554.121 477.295 554.434 478.226Z" fill="black"/>
<path fill-rule="evenodd" clip-rule="evenodd" d="M548.262 428.141C547.941 429.341 547.155 430.365 546.079 430.986C545.003 431.607 543.723 431.776 542.523 431.454L534.599 429.331C534.401 429.278 534.221 429.172 534.078 429.024L530.743 425.563L527.628 430.958L530.802 432.791C532.96 434.037 534.289 436.339 534.289 438.831V452.613C534.289 453.856 533.795 455.048 532.917 455.927C532.038 456.806 530.846 457.3 529.603 457.3H529.603C528.36 457.3 527.168 456.806 526.289 455.927C525.41 455.048 524.916 453.856 524.916 452.613V440.65C524.916 440.381 524.773 440.133 524.54 439.998L519.957 437.352L515.704 441.605C514.137 443.172 511.711 443.492 509.791 442.383L500.47 437.001C499.393 436.38 498.608 435.357 498.286 434.156C497.965 432.956 498.133 431.676 498.755 430.6H498.755L498.755 430.6C499.376 429.523 500.4 428.738 501.6 428.416C502.801 428.095 504.08 428.263 505.156 428.884L510.837 432.164C511.231 432.392 511.728 432.326 512.049 432.005L514.942 429.112C515.087 428.43 515.339 427.768 515.694 427.153L520.976 418.005L518.964 417.64L513.358 420.876C512.282 421.498 511.003 421.666 509.802 421.344C508.602 421.022 507.578 420.237 506.957 419.161L506.957 419.16C506.335 418.084 506.167 416.805 506.489 415.604C506.81 414.404 507.596 413.38 508.672 412.759L517.187 407.842C517.43 407.703 517.715 407.658 517.988 407.716L526.741 409.583C526.856 409.608 526.967 409.651 527.07 409.71L532.698 412.959C534.028 413.727 534.831 415.059 534.978 416.479L539.171 420.853L544.949 422.401C546.149 422.722 547.173 423.508 547.794 424.584C548.416 425.661 548.584 426.94 548.262 428.14V428.141ZM546.081 427.556L546.079 427.555C546.246 426.934 546.159 426.272 545.837 425.714C545.515 425.157 544.985 424.751 544.364 424.584L538.281 422.954C538.082 422.901 537.901 422.794 537.758 422.645L534.43 419.173C534.415 419.201 534.4 419.228 534.385 419.255L531.918 423.526L535.488 427.229L543.108 429.271C543.729 429.438 544.392 429.35 544.949 429.029C545.506 428.707 545.913 428.177 546.079 427.556H546.081ZM508.914 418.031C509.236 418.588 509.766 418.995 510.387 419.161C511.009 419.328 511.671 419.24 512.228 418.919L518.192 415.475C518.424 415.342 518.696 415.294 518.959 415.342L522.959 416.068C523.321 416.134 523.628 416.371 523.782 416.705C523.937 417.038 523.92 417.426 523.736 417.745L517.651 428.283C517.062 429.303 516.903 430.515 517.208 431.653C517.513 432.791 518.257 433.761 519.277 434.35L525.671 438.041C526.602 438.579 527.176 439.573 527.176 440.65V452.613C527.176 453.257 527.432 453.874 527.887 454.329C528.342 454.784 528.959 455.04 529.603 455.04H529.607C530.249 455.038 530.864 454.783 531.318 454.329C531.773 453.874 532.029 453.257 532.029 452.613V438.831C532.029 437.147 531.13 435.59 529.672 434.748L525.519 432.35C524.978 432.038 524.793 431.347 525.105 430.807L532.427 418.125C533.076 417.001 532.691 415.565 531.568 414.916L526.094 411.756L517.942 410.017L509.802 414.716C509.245 415.038 508.838 415.568 508.672 416.189C508.505 416.811 508.592 417.473 508.914 418.03L508.914 418.031ZM500.711 431.73L500.712 431.73C500.39 432.287 500.303 432.949 500.469 433.571C500.636 434.193 501.043 434.722 501.6 435.044L510.921 440.426C511.955 441.023 513.262 440.851 514.106 440.006L517.934 436.179C516.504 435.281 515.463 433.875 515.025 432.238C515.024 432.235 515.023 432.232 515.022 432.228L513.647 433.603C512.603 434.648 510.986 434.86 509.707 434.122L504.026 430.842C503.469 430.52 502.807 430.433 502.185 430.599C501.564 430.766 501.034 431.173 500.712 431.73H500.711ZM537.388 401.336C540.135 402.923 541.077 406.441 539.491 409.188C537.905 411.935 534.387 412.878 531.64 411.291C528.893 409.705 527.95 406.187 529.536 403.44C531.122 400.693 534.64 399.75 537.388 401.336ZM536.257 403.294C534.591 402.331 532.456 402.903 531.494 404.57C530.531 406.237 531.103 408.372 532.77 409.334C534.437 410.297 536.572 409.725 537.534 408.058C538.496 406.391 537.924 404.256 536.257 403.294ZM479.489 410.177C478.865 410.177 478.359 409.671 478.359 409.047C478.359 408.424 478.865 407.917 479.489 407.917H498.967C499.591 407.917 500.097 408.424 500.097 409.047C500.097 409.671 499.591 410.177 498.967 410.177H479.489ZM483.201 418.132C482.578 418.132 482.071 417.625 482.071 417.002C482.071 416.378 482.578 415.872 483.201 415.872H501.345C501.969 415.872 502.475 416.378 502.475 417.002C502.475 417.625 501.969 418.132 501.345 418.132H483.201ZM479.489 426.086C478.865 426.086 478.359 425.58 478.359 424.956C478.359 424.332 478.865 423.826 479.489 423.826H498.967C499.591 423.826 500.097 424.332 500.097 424.956C500.097 425.58 499.591 426.086 498.967 426.086H479.489ZM483.201 434.04C482.578 434.04 482.071 433.534 482.071 432.91C482.071 432.286 482.578 431.78 483.201 431.78H494.657C495.28 431.78 495.787 432.286 495.787 432.91C495.787 433.534 495.28 434.04 494.657 434.04H483.201ZM479.489 441.994C478.865 441.994 478.359 441.488 478.359 440.864C478.359 440.241 478.865 439.734 479.489 439.734H499.257C499.88 439.734 500.387 440.241 500.387 440.864C500.387 441.488 499.88 441.994 499.257 441.994H479.489ZM483.201 449.949C482.578 449.949 482.071 449.442 482.071 448.819C482.071 448.195 482.578 447.689 483.201 447.689H510.466C511.09 447.689 511.596 448.195 511.596 448.819C511.596 449.442 511.09 449.949 510.466 449.949H483.201Z" fill="black"/>
<defs>
<filter id="filter0_d_46_14" x="44.7515" y="52.9424" width="333.179" height="217.197" filterUnits="userSpaceOnUse" color-interpolation-filters="sRGB">
<feFlood flood-opacity="0" result="BackgroundImageFix"/>
<feColorMatrix in="SourceAlpha" type="matrix" values="0 0 0 0 0 0 0 0 0 0 0 0 0 0 0 0 0 0 127 0" result="hardAlpha"/>
<feMorphology radius="1" operator="dilate" in="SourceAlpha" result="effect1_dropShadow_46_14"/>
<feOffset dy="12"/>
<feGaussianBlur stdDeviation="13"/>
<feComposite in2="hardAlpha" operator="out"/>
<feColorMatrix type="matrix" values="0 0 0 0 0 0 0 0 0 0 0 0 0 0 0 0 0 0 0.07 0"/>
<feBlend mode="normal" in2="BackgroundImageFix" result="effect1_dropShadow_46_14"/>
<feBlend mode="normal" in="SourceGraphic" in2="effect1_dropShadow_46_14" result="shape"/>
</filter>
<filter id="filter1_d_46_14" x="32.2397" y="65.888" width="333.179" height="217.197" filterUnits="userSpaceOnUse" color-interpolation-filters="sRGB">
<feFlood flood-opacity="0" result="BackgroundImageFix"/>
<feColorMatrix in="SourceAlpha" type="matrix" values="0 0 0 0 0 0 0 0 0 0 0 0 0 0 0 0 0 0 127 0" result="hardAlpha"/>
<feMorphology radius="1" operator="dilate" in="SourceAlpha" result="effect1_dropShadow_46_14"/>
<feOffset dy="12"/>
<feGaussianBlur stdDeviation="13"/>
<feComposite in2="hardAlpha" operator="out"/>
<feColorMatrix type="matrix" values="0 0 0 0 0 0 0 0 0 0 0 0 0 0 0 0 0 0 0.07 0"/>
<feBlend mode="normal" in2="BackgroundImageFix" result="effect1_dropShadow_46_14"/>
<feBlend mode="normal" in="SourceGraphic" in2="effect1_dropShadow_46_14" result="shape"/>
</filter>
<filter id="filter2_d_46_14" x="373.801" y="66.4286" width="279.179" height="183.198" filterUnits="userSpaceOnUse" color-interpolation-filters="sRGB">
<feFlood flood-opacity="0" result="BackgroundImageFix"/>
<feColorMatrix in="SourceAlpha" type="matrix" values="0 0 0 0 0 0 0 0 0 0 0 0 0 0 0 0 0 0 127 0" result="hardAlpha"/>
<feOffset dy="20"/>
<feComposite in2="hardAlpha" operator="out"/>
<feColorMatrix type="matrix" values="0 0 0 0 0 0 0 0 0 0 0 0 0 0 0 0 0 0 0.05 0"/>
<feBlend mode="normal" in2="BackgroundImageFix" result="effect1_dropShadow_46_14"/>
<feBlend mode="normal" in="SourceGraphic" in2="effect1_dropShadow_46_14" result="shape"/>
</filter>
<filter id="filter3_d_46_14" x="46.6528" y="94.2503" width="279.179" height="183.197" filterUnits="userSpaceOnUse" color-interpolation-filters="sRGB">
<feFlood flood-opacity="0" result="BackgroundImageFix"/>
<feColorMatrix in="SourceAlpha" type="matrix" values="0 0 0 0 0 0 0 0 0 0 0 0 0 0 0 0 0 0 127 0" result="hardAlpha"/>
<feOffset dy="20"/>
<feComposite in2="hardAlpha" operator="out"/>
<feColorMatrix type="matrix" values="0 0 0 0 0 0 0 0 0 0 0 0 0 0 0 0 0 0 0.05 0"/>
<feBlend mode="normal" in2="BackgroundImageFix" result="effect1_dropShadow_46_14"/>
<feBlend mode="normal" in="SourceGraphic" in2="effect1_dropShadow_46_14" result="shape"/>
</filter>
<filter id="filter4_d_46_14" x="42.7515" y="359.248" width="279.179" height="183.198" filterUnits="userSpaceOnUse" color-interpolation-filters="sRGB">
<feFlood flood-opacity="0" result="BackgroundImageFix"/>
<feColorMatrix in="SourceAlpha" type="matrix" values="0 0 0 0 0 0 0 0 0 0 0 0 0 0 0 0 0 0 127 0" result="hardAlpha"/>
<feOffset dy="20"/>
<feComposite in2="hardAlpha" operator="out"/>
<feColorMatrix type="matrix" values="0 0 0 0 0 0 0 0 0 0 0 0 0 0 0 0 0 0 0.05 0"/>
<feBlend mode="normal" in2="BackgroundImageFix" result="effect1_dropShadow_46_14"/>
<feBlend mode="normal" in="SourceGraphic" in2="effect1_dropShadow_46_14" result="shape"/>
</filter>
<filter id="filter5_d_46_14" x="373.801" y="359.248" width="279.179" height="183.198" filterUnits="userSpaceOnUse" color-interpolation-filters="sRGB">
<feFlood flood-opacity="0" result="BackgroundImageFix"/>
<feColorMatrix in="SourceAlpha" type="matrix" values="0 0 0 0 0 0 0 0 0 0 0 0 0 0 0 0 0 0 127 0" result="hardAlpha"/>
<feOffset dy="20"/>
<feComposite in2="hardAlpha" operator="out"/>
<feColorMatrix type="matrix" values="0 0 0 0 0 0 0 0 0 0 0 0 0 0 0 0 0 0 0.05 0"/>
<feBlend mode="normal" in2="BackgroundImageFix" result="effect1_dropShadow_46_14"/>
<feBlend mode="normal" in="SourceGraphic" in2="effect1_dropShadow_46_14" result="shape"/>
</filter>
<linearGradient id="paint0_linear_46_14" x1="202.676" y1="-1.74899e-05" x2="685.323" y2="293.601" gradientUnits="userSpaceOnUse">
<stop stop-color="#01BCB2"/>
<stop offset="0.548078" stop-color="#9727FF"/>
<stop offset="1" stop-color="#002C79"/>
</linearGradient>
<linearGradient id="paint1_linear_46_14" x1="453.947" y1="66.4286" x2="602.225" y2="195.988" gradientUnits="userSpaceOnUse">
<stop stop-color="#01BCB2"/>
<stop offset="0.548078" stop-color="#9727FF"/>
<stop offset="1" stop-color="#002C79"/>
</linearGradient>
<linearGradient id="paint2_linear_46_14" x1="126.799" y1="94.2503" x2="275.077" y2="223.81" gradientUnits="userSpaceOnUse">
<stop stop-color="#01BCB2"/>
<stop offset="0.548078" stop-color="#9727FF"/>
<stop offset="1" stop-color="#002C79"/>
</linearGradient>
<linearGradient id="paint3_linear_46_14" x1="122.897" y1="359.248" x2="271.176" y2="488.808" gradientUnits="userSpaceOnUse">
<stop stop-color="#01BCB2"/>
<stop offset="0.548078" stop-color="#9727FF"/>
<stop offset="1" stop-color="#002C79"/>
</linearGradient>
<linearGradient id="paint4_linear_46_14" x1="453.947" y1="359.248" x2="602.225" y2="488.808" gradientUnits="userSpaceOnUse">
<stop stop-color="#01BCB2"/>
<stop offset="0.548078" stop-color="#9727FF"/>
<stop offset="1" stop-color="#002C79"/>
</linearGradient>
</defs>
</svg>
