<svg width="362" height="162" viewBox="0 0 362 162" fill="none" xmlns="http://www.w3.org/2000/svg">
<g filter="url(#filter0_d_46_8)">
<path d="M27 29C27 21.268 33.268 15 41 15H320.481C328.213 15 334.481 21.268 334.481 29V108.802C334.481 116.534 328.213 122.802 320.481 122.802H41C33.268 122.802 27 116.534 27 108.802V29Z" fill="white"/>
<path d="M41 15.5H320.481C327.937 15.5002 333.981 21.5443 333.981 29V108.802C333.981 116.257 327.937 122.302 320.481 122.302H41C33.5442 122.302 27.5 116.258 27.5 108.802V29C27.5 21.5442 33.5442 15.5 41 15.5Z" stroke="#E5E7EB"/>
</g>
<path d="M123.137 77.231V59.7764H125.251V67.5491H134.558V59.7764H136.671V77.231H134.558V69.4241H125.251V77.231H123.137ZM148.88 71.8787V64.14H150.891V77.231H148.88V75.015H148.744C148.437 75.6798 147.96 76.2452 147.312 76.7111C146.664 77.1713 145.846 77.4014 144.857 77.4014C144.039 77.4014 143.312 77.2224 142.675 76.8645C142.039 76.5008 141.539 75.9554 141.175 75.2281C140.812 74.4952 140.63 73.5719 140.63 72.4582V64.14H142.641V72.3219C142.641 73.2764 142.908 74.0378 143.442 74.606C143.982 75.1741 144.67 75.4582 145.505 75.4582C146.005 75.4582 146.513 75.3304 147.031 75.0747C147.553 74.819 147.991 74.427 148.343 73.8986C148.701 73.3702 148.88 72.6969 148.88 71.8787ZM154.575 77.231V64.14H156.518V66.1855H156.689C156.962 65.4866 157.402 64.944 158.01 64.5577C158.618 64.1656 159.348 63.9696 160.2 63.9696C161.064 63.9696 161.783 64.1656 162.357 64.5577C162.936 64.944 163.388 65.4866 163.712 66.1855H163.848C164.183 65.5094 164.686 64.9724 165.357 64.5747C166.027 64.1713 166.831 63.9696 167.768 63.9696C168.939 63.9696 169.896 64.3361 170.641 65.069C171.385 65.7963 171.757 66.9298 171.757 68.4696V77.231H169.746V68.4696C169.746 67.5037 169.482 66.8133 168.953 66.3986C168.425 65.9838 167.803 65.7764 167.087 65.7764C166.166 65.7764 165.453 66.0548 164.947 66.6116C164.442 67.1628 164.189 67.8616 164.189 68.7082V77.231H162.143V68.265C162.143 67.5207 161.902 66.9213 161.419 66.4668C160.936 66.0065 160.314 65.7764 159.553 65.7764C159.03 65.7764 158.541 65.9156 158.087 66.194C157.638 66.4724 157.274 66.8588 156.996 67.3531C156.723 67.8418 156.587 68.4071 156.587 69.0491V77.231H154.575ZM179.287 77.5378C178.457 77.5378 177.705 77.3815 177.028 77.069C176.352 76.7508 175.815 76.2935 175.418 75.6969C175.02 75.0946 174.821 74.3673 174.821 73.515C174.821 72.765 174.969 72.1571 175.264 71.6912C175.56 71.2196 175.955 70.8503 176.449 70.5832C176.943 70.3162 177.489 70.1173 178.085 69.9866C178.688 69.8503 179.293 69.7423 179.901 69.6628C180.696 69.5605 181.341 69.4838 181.835 69.4327C182.335 69.3758 182.699 69.2821 182.926 69.1514C183.159 69.0207 183.276 68.7935 183.276 68.4696V68.4014C183.276 67.5605 183.045 66.9071 182.585 66.4412C182.131 65.9753 181.44 65.7423 180.514 65.7423C179.554 65.7423 178.801 65.9525 178.256 66.373C177.71 66.7935 177.327 67.2423 177.105 67.7196L175.196 67.0378C175.537 66.2423 175.991 65.623 176.56 65.1798C177.134 64.731 177.759 64.4185 178.435 64.2423C179.116 64.0605 179.787 63.9696 180.446 63.9696C180.866 63.9696 181.349 64.0207 181.895 64.123C182.446 64.2196 182.977 64.4213 183.489 64.7281C184.006 65.0349 184.435 65.498 184.776 66.1173C185.116 66.7366 185.287 67.5662 185.287 68.606V77.231H183.276V75.4582H183.173C183.037 75.7423 182.81 76.0463 182.491 76.3702C182.173 76.694 181.75 76.9696 181.222 77.1969C180.693 77.4241 180.048 77.5378 179.287 77.5378ZM179.594 75.731C180.389 75.731 181.06 75.5747 181.605 75.2622C182.156 74.9497 182.571 74.5463 182.849 74.052C183.134 73.5577 183.276 73.0378 183.276 72.4923V70.6514C183.19 70.7537 183.003 70.8474 182.713 70.9327C182.429 71.0122 182.099 71.0832 181.724 71.1457C181.355 71.2025 180.994 71.2537 180.642 71.2991C180.295 71.3389 180.014 71.373 179.798 71.4014C179.276 71.4696 178.787 71.5804 178.332 71.7338C177.884 71.8815 177.52 72.106 177.241 72.4071C176.969 72.7025 176.832 73.106 176.832 73.6173C176.832 74.3162 177.091 74.8446 177.608 75.2025C178.131 75.5548 178.793 75.731 179.594 75.731ZM190.969 69.356V77.231H188.958V64.14H190.901V66.1855H191.072C191.379 65.5207 191.844 64.9866 192.469 64.5832C193.094 64.1741 193.901 63.9696 194.89 63.9696C195.776 63.9696 196.552 64.1514 197.217 64.515C197.881 64.873 198.398 65.4185 198.768 66.1514C199.137 66.8787 199.322 67.7991 199.322 68.9128V77.231H197.31V69.0491C197.31 68.0207 197.043 67.2196 196.509 66.6457C195.975 66.0662 195.242 65.7764 194.31 65.7764C193.668 65.7764 193.094 65.9156 192.589 66.194C192.089 66.4724 191.694 66.8787 191.404 67.4128C191.114 67.9469 190.969 68.5946 190.969 69.356ZM210.02 77.231V59.7764H215.918C217.287 59.7764 218.406 60.0236 219.276 60.5179C220.151 61.0065 220.798 61.6685 221.219 62.5037C221.639 63.3389 221.849 64.2707 221.849 65.2991C221.849 66.3275 221.639 67.2622 221.219 68.1031C220.804 68.944 220.162 69.6145 219.293 70.1145C218.423 70.6088 217.31 70.856 215.952 70.856H211.724V68.981H215.884C216.821 68.981 217.574 68.819 218.142 68.4952C218.71 68.1713 219.122 67.7338 219.378 67.1827C219.639 66.6258 219.77 65.998 219.77 65.2991C219.77 64.6003 219.639 63.9753 219.378 63.4241C219.122 62.873 218.707 62.4412 218.134 62.1287C217.56 61.8105 216.798 61.6514 215.849 61.6514H212.134V77.231H210.02ZM224.982 77.231V64.14H226.925V66.1173H227.061C227.3 65.4696 227.732 64.944 228.357 64.5406C228.982 64.1372 229.686 63.9355 230.47 63.9355C230.618 63.9355 230.803 63.9383 231.024 63.944C231.246 63.9497 231.413 63.9582 231.527 63.9696V66.015C231.459 65.998 231.303 65.9724 231.058 65.9383C230.82 65.8986 230.567 65.8787 230.3 65.8787C229.663 65.8787 229.095 66.0122 228.595 66.2793C228.101 66.5406 227.709 66.9043 227.419 67.3702C227.135 67.8304 226.993 68.356 226.993 68.9469V77.231H224.982ZM238.831 77.5037C237.649 77.5037 236.612 77.2224 235.72 76.6599C234.834 76.0974 234.141 75.3105 233.641 74.2991C233.146 73.2878 232.899 72.106 232.899 70.7537C232.899 69.39 233.146 68.1997 233.641 67.1827C234.141 66.1656 234.834 65.3758 235.72 64.8133C236.612 64.2508 237.649 63.9696 238.831 63.9696C240.013 63.9696 241.047 64.2508 241.933 64.8133C242.825 65.3758 243.518 66.1656 244.013 67.1827C244.513 68.1997 244.763 69.39 244.763 70.7537C244.763 72.106 244.513 73.2878 244.013 74.2991C243.518 75.3105 242.825 76.0974 241.933 76.6599C241.047 77.2224 240.013 77.5037 238.831 77.5037ZM238.831 75.6969C239.729 75.6969 240.467 75.4668 241.047 75.0065C241.626 74.5463 242.055 73.9412 242.334 73.1912C242.612 72.4412 242.751 71.6287 242.751 70.7537C242.751 69.8787 242.612 69.0633 242.334 68.3077C242.055 67.552 241.626 66.9412 241.047 66.4753C240.467 66.0094 239.729 65.7764 238.831 65.7764C237.933 65.7764 237.195 66.0094 236.615 66.4753C236.036 66.9412 235.607 67.552 235.328 68.3077C235.05 69.0633 234.911 69.8787 234.911 70.7537C234.911 71.6287 235.05 72.4412 235.328 73.1912C235.607 73.9412 236.036 74.5463 236.615 75.0065C237.195 75.4668 237.933 75.6969 238.831 75.6969ZM253.663 64.14V65.8446H246.606V64.14H253.663ZM248.719 77.231V62.3332C248.719 61.5832 248.896 60.9582 249.248 60.4582C249.6 59.9582 250.058 59.5832 250.62 59.3332C251.183 59.0832 251.776 58.9582 252.401 58.9582C252.896 58.9582 253.299 58.998 253.612 59.0775C253.924 59.1571 254.157 59.231 254.31 59.2991L253.731 61.0378C253.629 61.0037 253.487 60.9611 253.305 60.9099C253.129 60.8588 252.896 60.8332 252.606 60.8332C251.941 60.8332 251.461 61.0008 251.165 61.3361C250.876 61.6713 250.731 62.1628 250.731 62.8105V77.231H248.719ZM256.482 77.231V64.14H258.493V77.231H256.482ZM257.504 61.9582C257.112 61.9582 256.774 61.8247 256.49 61.5577C256.212 61.2906 256.072 60.9696 256.072 60.5946C256.072 60.2196 256.212 59.8986 256.49 59.6315C256.774 59.3645 257.112 59.231 257.504 59.231C257.896 59.231 258.232 59.3645 258.51 59.6315C258.794 59.8986 258.936 60.2196 258.936 60.5946C258.936 60.9696 258.794 61.2906 258.51 61.5577C258.232 61.8247 257.896 61.9582 257.504 61.9582ZM264.188 59.7764V77.231H262.177V59.7764H264.188ZM273.361 77.5037C272.099 77.5037 271.011 77.2253 270.097 76.6685C269.188 76.106 268.486 75.3219 267.991 74.3162C267.503 73.3048 267.259 72.1287 267.259 70.7878C267.259 69.4469 267.503 68.265 267.991 67.2423C268.486 66.2139 269.173 65.4128 270.054 64.8389C270.94 64.2594 271.974 63.9696 273.156 63.9696C273.838 63.9696 274.511 64.0832 275.176 64.3105C275.841 64.5378 276.446 64.9071 276.991 65.4185C277.537 65.9241 277.972 66.5946 278.295 67.4298C278.619 68.265 278.781 69.2935 278.781 70.515V71.3673H268.69V69.6287H276.736C276.736 68.89 276.588 68.231 276.293 67.6514C276.003 67.0719 275.588 66.6145 275.048 66.2793C274.514 65.944 273.884 65.7764 273.156 65.7764C272.355 65.7764 271.662 65.9753 271.077 66.373C270.497 66.765 270.051 67.2764 269.739 67.9071C269.426 68.5378 269.27 69.2139 269.27 69.9355V71.0946C269.27 72.0832 269.44 72.9213 269.781 73.6088C270.128 74.2906 270.608 74.8105 271.222 75.1685C271.835 75.5207 272.548 75.6969 273.361 75.6969C273.889 75.6969 274.366 75.623 274.793 75.4753C275.224 75.3219 275.597 75.0946 275.909 74.7935C276.222 74.4866 276.463 74.106 276.634 73.6514L278.577 74.1969C278.372 74.856 278.028 75.4355 277.545 75.9355C277.063 76.4298 276.466 76.8162 275.756 77.0946C275.045 77.3673 274.247 77.5037 273.361 77.5037ZM291.114 67.0719L289.307 67.5832C289.193 67.2821 289.026 66.9895 288.804 66.7054C288.588 66.4156 288.293 66.177 287.918 65.9895C287.543 65.802 287.062 65.7082 286.477 65.7082C285.676 65.7082 285.009 65.8929 284.474 66.2622C283.946 66.6258 283.682 67.0889 283.682 67.6514C283.682 68.1514 283.864 68.5463 284.227 68.8361C284.591 69.1258 285.159 69.3673 285.932 69.5605L287.875 70.0378C289.045 70.3219 289.918 70.7565 290.491 71.3418C291.065 71.9213 291.352 72.6685 291.352 73.5832C291.352 74.3332 291.136 75.0037 290.705 75.5946C290.278 76.1855 289.682 76.6514 288.915 76.9923C288.148 77.3332 287.256 77.5037 286.239 77.5037C284.903 77.5037 283.798 77.2139 282.923 76.6344C282.048 76.0548 281.494 75.2082 281.261 74.0946L283.17 73.6173C283.352 74.3219 283.696 74.8503 284.202 75.2025C284.713 75.5548 285.381 75.731 286.205 75.731C287.142 75.731 287.886 75.5321 288.438 75.1344C288.994 74.731 289.273 74.248 289.273 73.6855C289.273 73.231 289.114 72.8503 288.795 72.5435C288.477 72.231 287.989 71.998 287.33 71.8446L285.148 71.3332C283.949 71.0491 283.068 70.6088 282.506 70.0122C281.949 69.4099 281.67 68.6571 281.67 67.7537C281.67 67.015 281.878 66.3616 282.293 65.7935C282.713 65.2253 283.284 64.7793 284.006 64.4554C284.733 64.1315 285.557 63.9696 286.477 63.9696C287.773 63.9696 288.79 64.2537 289.528 64.8219C290.273 65.39 290.801 66.14 291.114 67.0719Z" fill="black"/>
<mask id="mask0_46_8" style="mask-type:luminance" maskUnits="userSpaceOnUse" x="65" y="49" width="40" height="40">
<path d="M65.5593 49.4063H104.548V88.3955H65.5593V49.4063Z" fill="white"/>
</mask>
<g mask="url(#mask0_46_8)">
<path d="M85.0538 70.424C81.6948 70.424 78.9618 67.6909 78.9618 64.3319C78.9618 60.9729 81.6948 58.2398 85.0538 58.2398C88.4129 58.2398 91.1459 60.9729 91.1459 64.3319C91.1459 67.6909 88.4129 70.424 85.0538 70.424Z" stroke="black" stroke-width="2" stroke-miterlimit="10" stroke-linecap="round" stroke-linejoin="round"/>
<path d="M73.6808 83.8242C73.6815 83.8143 73.6823 83.8044 73.6838 83.7945C74.2359 78.001 79.1156 73.47 85.0539 73.47C90.9921 73.47 95.871 78.0002 96.4247 83.7938" stroke="black" stroke-width="2" stroke-miterlimit="10" stroke-linecap="round" stroke-linejoin="round"/>
<path d="M99.8271 56.4122C99.8271 56.8328 99.4861 57.1737 99.0656 57.1737C98.6451 57.1737 98.3041 56.8328 98.3041 56.4122C98.3041 55.9916 98.6451 55.6507 99.0656 55.6507C99.4861 55.6507 99.8271 55.9916 99.8271 56.4122Z" fill="black"/>
<path d="M101.078 59.1846C102.797 62.0166 103.787 65.3419 103.787 68.9008C103.787 74.9769 100.902 80.3729 96.4247 83.7936V83.7944C93.2728 86.2038 89.332 87.6339 85.0539 87.6339C80.7765 87.6339 76.8357 86.2038 73.6839 83.7944C69.2069 80.3737 66.3208 74.9777 66.3208 68.9008C66.3208 58.5474 74.6989 50.1678 85.0539 50.1678C89.3846 50.1678 93.3701 51.6337 96.5413 54.097" stroke="black" stroke-width="2" stroke-miterlimit="10" stroke-linecap="round" stroke-linejoin="round"/>
</g>
<defs>
<filter id="filter0_d_46_8" x="0" y="0" width="361.481" height="161.802" filterUnits="userSpaceOnUse" color-interpolation-filters="sRGB">
<feFlood flood-opacity="0" result="BackgroundImageFix"/>
<feColorMatrix in="SourceAlpha" type="matrix" values="0 0 0 0 0 0 0 0 0 0 0 0 0 0 0 0 0 0 127 0" result="hardAlpha"/>
<feMorphology radius="1" operator="dilate" in="SourceAlpha" result="effect1_dropShadow_46_8"/>
<feOffset dy="12"/>
<feGaussianBlur stdDeviation="13"/>
<feComposite in2="hardAlpha" operator="out"/>
<feColorMatrix type="matrix" values="0 0 0 0 0 0 0 0 0 0 0 0 0 0 0 0 0 0 0.07 0"/>
<feBlend mode="normal" in2="BackgroundImageFix" result="effect1_dropShadow_46_8"/>
<feBlend mode="normal" in="SourceGraphic" in2="effect1_dropShadow_46_8" result="shape"/>
</filter>
</defs>
</svg>
