<svg width="366" height="231" viewBox="0 0 366 231" fill="none" xmlns="http://www.w3.org/2000/svg">
<g filter="url(#filter0_d_46_11)">
<path d="M21.8748 124.279C11.6338 120.116 11.6338 110.657 21.8748 106.493L173.578 44.8203C179.095 42.5776 186.177 42.5776 191.693 44.8203L343.397 106.493C353.638 110.657 353.638 120.116 343.397 124.279L191.693 185.952C186.177 188.195 179.095 188.195 173.578 185.952L21.8748 124.279Z" fill="#E6EDF1"/>
<path d="M23.1687 123.008C14.3911 119.44 14.3911 111.333 23.1687 107.764L174.872 46.0905C179.601 44.1682 185.671 44.1687 190.399 46.091L342.102 107.764C350.88 111.332 350.88 119.44 342.102 123.009L190.399 184.682C185.671 186.604 179.601 186.605 174.872 184.682L23.1687 123.008Z" stroke="url(#paint0_linear_46_11)" stroke-width="4"/>
</g>
<path d="M105.777 120.97V103.516H111.675C113.044 103.516 114.164 103.763 115.033 104.257C115.908 104.746 116.556 105.408 116.976 106.243C117.397 107.078 117.607 108.01 117.607 109.038C117.607 110.067 117.397 111.001 116.976 111.842C116.561 112.683 115.919 113.354 115.05 113.854C114.181 114.348 113.067 114.595 111.709 114.595H107.482V112.72H111.641C112.578 112.72 113.331 112.558 113.899 112.234C114.468 111.91 114.879 111.473 115.135 110.922C115.397 110.365 115.527 109.737 115.527 109.038C115.527 108.339 115.397 107.714 115.135 107.163C114.879 106.612 114.465 106.18 113.891 105.868C113.317 105.55 112.556 105.391 111.607 105.391H107.891V120.97H105.777ZM122.75 113.095V120.97H120.739V103.516H122.75V109.925H122.921C123.227 109.249 123.688 108.712 124.301 108.314C124.921 107.91 125.745 107.709 126.773 107.709C127.665 107.709 128.446 107.888 129.117 108.246C129.787 108.598 130.307 109.141 130.676 109.874C131.051 110.601 131.239 111.527 131.239 112.652V120.97H129.227V112.788C129.227 111.749 128.958 110.945 128.418 110.376C127.884 109.802 127.142 109.516 126.193 109.516C125.534 109.516 124.943 109.655 124.421 109.933C123.904 110.212 123.495 110.618 123.193 111.152C122.898 111.686 122.75 112.334 122.75 113.095ZM135.745 125.879C135.404 125.879 135.1 125.851 134.833 125.794C134.566 125.743 134.382 125.692 134.279 125.641L134.791 123.868C135.279 123.993 135.711 124.038 136.086 124.004C136.461 123.97 136.794 123.802 137.083 123.501C137.379 123.206 137.649 122.726 137.893 122.061L138.268 121.038L133.427 107.879H135.609L139.223 118.311H139.359L142.973 107.879H145.154L139.598 122.879C139.348 123.555 139.038 124.115 138.669 124.558C138.299 125.007 137.87 125.339 137.382 125.555C136.899 125.771 136.353 125.879 135.745 125.879ZM157.082 110.811L155.275 111.322C155.161 111.021 154.994 110.729 154.772 110.445C154.556 110.155 154.261 109.916 153.886 109.729C153.511 109.541 153.031 109.447 152.446 109.447C151.644 109.447 150.977 109.632 150.443 110.001C149.914 110.365 149.65 110.828 149.65 111.391C149.65 111.891 149.832 112.285 150.196 112.575C150.559 112.865 151.127 113.106 151.9 113.3L153.843 113.777C155.014 114.061 155.886 114.496 156.46 115.081C157.034 115.66 157.321 116.408 157.321 117.322C157.321 118.072 157.105 118.743 156.673 119.334C156.247 119.925 155.65 120.391 154.883 120.731C154.116 121.072 153.224 121.243 152.207 121.243C150.872 121.243 149.767 120.953 148.892 120.374C148.017 119.794 147.463 118.947 147.23 117.834L149.139 117.356C149.321 118.061 149.664 118.589 150.17 118.942C150.681 119.294 151.349 119.47 152.173 119.47C153.11 119.47 153.855 119.271 154.406 118.874C154.963 118.47 155.241 117.987 155.241 117.425C155.241 116.97 155.082 116.589 154.764 116.283C154.446 115.97 153.957 115.737 153.298 115.584L151.116 115.072C149.917 114.788 149.036 114.348 148.474 113.751C147.917 113.149 147.639 112.396 147.639 111.493C147.639 110.754 147.846 110.101 148.261 109.533C148.681 108.964 149.252 108.518 149.974 108.195C150.701 107.871 151.525 107.709 152.446 107.709C153.741 107.709 154.758 107.993 155.497 108.561C156.241 109.129 156.769 109.879 157.082 110.811ZM160.348 120.97V107.879H162.36V120.97H160.348ZM161.371 105.697C160.979 105.697 160.641 105.564 160.357 105.297C160.078 105.03 159.939 104.709 159.939 104.334C159.939 103.959 160.078 103.638 160.357 103.371C160.641 103.104 160.979 102.97 161.371 102.97C161.763 102.97 162.098 103.104 162.377 103.371C162.661 103.638 162.803 103.959 162.803 104.334C162.803 104.709 162.661 105.03 162.377 105.297C162.098 105.564 161.763 105.697 161.371 105.697ZM171.362 121.243C170.134 121.243 169.078 120.953 168.191 120.374C167.305 119.794 166.623 118.996 166.146 117.979C165.669 116.962 165.43 115.8 165.43 114.493C165.43 113.163 165.674 111.99 166.163 110.973C166.657 109.95 167.345 109.152 168.225 108.578C169.112 107.999 170.146 107.709 171.328 107.709C172.248 107.709 173.078 107.879 173.816 108.22C174.555 108.561 175.16 109.038 175.632 109.652C176.103 110.266 176.396 110.981 176.509 111.8H174.498C174.345 111.203 174.004 110.675 173.475 110.214C172.953 109.749 172.248 109.516 171.362 109.516C170.578 109.516 169.89 109.72 169.299 110.129C168.714 110.533 168.257 111.104 167.927 111.842C167.603 112.575 167.441 113.436 167.441 114.425C167.441 115.436 167.6 116.317 167.919 117.067C168.242 117.817 168.697 118.399 169.282 118.814C169.873 119.229 170.566 119.436 171.362 119.436C171.884 119.436 172.359 119.345 172.785 119.163C173.211 118.981 173.572 118.72 173.867 118.379C174.163 118.038 174.373 117.629 174.498 117.152H176.509C176.396 117.925 176.115 118.621 175.666 119.24C175.223 119.854 174.634 120.342 173.902 120.706C173.174 121.064 172.328 121.243 171.362 121.243ZM183.302 121.277C182.473 121.277 181.72 121.121 181.044 120.808C180.367 120.49 179.83 120.033 179.433 119.436C179.035 118.834 178.836 118.106 178.836 117.254C178.836 116.504 178.984 115.896 179.279 115.43C179.575 114.959 179.97 114.589 180.464 114.322C180.958 114.055 181.504 113.856 182.1 113.726C182.703 113.589 183.308 113.481 183.916 113.402C184.711 113.3 185.356 113.223 185.85 113.172C186.35 113.115 186.714 113.021 186.941 112.891C187.174 112.76 187.291 112.533 187.291 112.209V112.141C187.291 111.3 187.061 110.646 186.6 110.18C186.146 109.714 185.455 109.481 184.529 109.481C183.569 109.481 182.816 109.692 182.271 110.112C181.725 110.533 181.342 110.981 181.12 111.459L179.211 110.777C179.552 109.981 180.007 109.362 180.575 108.919C181.149 108.47 181.774 108.158 182.45 107.981C183.132 107.8 183.802 107.709 184.461 107.709C184.882 107.709 185.365 107.76 185.91 107.862C186.461 107.959 186.992 108.16 187.504 108.467C188.021 108.774 188.45 109.237 188.791 109.856C189.132 110.476 189.302 111.305 189.302 112.345V120.97H187.291V119.197H187.188C187.052 119.481 186.825 119.785 186.507 120.109C186.188 120.433 185.765 120.709 185.237 120.936C184.708 121.163 184.063 121.277 183.302 121.277ZM183.609 119.47C184.404 119.47 185.075 119.314 185.62 119.001C186.171 118.689 186.586 118.285 186.865 117.791C187.149 117.297 187.291 116.777 187.291 116.231V114.391C187.205 114.493 187.018 114.587 186.728 114.672C186.444 114.751 186.115 114.822 185.74 114.885C185.37 114.942 185.009 114.993 184.657 115.038C184.311 115.078 184.029 115.112 183.813 115.141C183.291 115.209 182.802 115.32 182.348 115.473C181.899 115.621 181.535 115.845 181.257 116.146C180.984 116.442 180.848 116.845 180.848 117.356C180.848 118.055 181.106 118.584 181.623 118.942C182.146 119.294 182.808 119.47 183.609 119.47ZM194.985 103.516V120.97H192.973V103.516H194.985ZM205.691 120.97V103.516H207.805V119.095H215.919V120.97H205.691ZM222.771 121.277C221.941 121.277 221.188 121.121 220.512 120.808C219.836 120.49 219.299 120.033 218.902 119.436C218.504 118.834 218.305 118.106 218.305 117.254C218.305 116.504 218.453 115.896 218.748 115.43C219.044 114.959 219.438 114.589 219.933 114.322C220.427 114.055 220.973 113.856 221.569 113.726C222.171 113.589 222.777 113.481 223.384 113.402C224.18 113.3 224.825 113.223 225.319 113.172C225.819 113.115 226.183 113.021 226.41 112.891C226.643 112.76 226.759 112.533 226.759 112.209V112.141C226.759 111.3 226.529 110.646 226.069 110.18C225.615 109.714 224.924 109.481 223.998 109.481C223.038 109.481 222.285 109.692 221.74 110.112C221.194 110.533 220.811 110.981 220.589 111.459L218.68 110.777C219.021 109.981 219.475 109.362 220.044 108.919C220.617 108.47 221.242 108.158 221.919 107.981C222.6 107.8 223.271 107.709 223.93 107.709C224.35 107.709 224.833 107.76 225.379 107.862C225.93 107.959 226.461 108.16 226.973 108.467C227.49 108.774 227.919 109.237 228.259 109.856C228.6 110.476 228.771 111.305 228.771 112.345V120.97H226.759V119.197H226.657C226.521 119.481 226.294 119.785 225.975 120.109C225.657 120.433 225.234 120.709 224.705 120.936C224.177 121.163 223.532 121.277 222.771 121.277ZM223.078 119.47C223.873 119.47 224.544 119.314 225.089 119.001C225.64 118.689 226.055 118.285 226.333 117.791C226.617 117.297 226.759 116.777 226.759 116.231V114.391C226.674 114.493 226.487 114.587 226.197 114.672C225.913 114.751 225.583 114.822 225.208 114.885C224.839 114.942 224.478 114.993 224.126 115.038C223.779 115.078 223.498 115.112 223.282 115.141C222.759 115.209 222.271 115.32 221.816 115.473C221.367 115.621 221.004 115.845 220.725 116.146C220.453 116.442 220.316 116.845 220.316 117.356C220.316 118.055 220.575 118.584 221.092 118.942C221.615 119.294 222.277 119.47 223.078 119.47ZM233.269 125.879C232.928 125.879 232.624 125.851 232.357 125.794C232.09 125.743 231.905 125.692 231.803 125.641L232.314 123.868C232.803 123.993 233.235 124.038 233.61 124.004C233.985 123.97 234.317 123.802 234.607 123.501C234.902 123.206 235.172 122.726 235.416 122.061L235.791 121.038L230.951 107.879H233.132L236.746 118.311H236.882L240.496 107.879H242.678L237.121 122.879C236.871 123.555 236.561 124.115 236.192 124.558C235.823 125.007 235.394 125.339 234.905 125.555C234.422 125.771 233.877 125.879 233.269 125.879ZM250.352 121.243C249.091 121.243 248.003 120.964 247.088 120.408C246.179 119.845 245.477 119.061 244.983 118.055C244.495 117.044 244.25 115.868 244.25 114.527C244.25 113.186 244.495 112.004 244.983 110.981C245.477 109.953 246.165 109.152 247.046 108.578C247.932 107.999 248.966 107.709 250.148 107.709C250.83 107.709 251.503 107.822 252.168 108.05C252.833 108.277 253.438 108.646 253.983 109.158C254.529 109.663 254.963 110.334 255.287 111.169C255.611 112.004 255.773 113.033 255.773 114.254V115.106H245.682V113.368H253.727C253.727 112.629 253.58 111.97 253.284 111.391C252.995 110.811 252.58 110.354 252.04 110.018C251.506 109.683 250.875 109.516 250.148 109.516C249.347 109.516 248.654 109.714 248.068 110.112C247.489 110.504 247.043 111.016 246.73 111.646C246.418 112.277 246.262 112.953 246.262 113.675V114.834C246.262 115.822 246.432 116.66 246.773 117.348C247.12 118.03 247.6 118.55 248.213 118.908C248.827 119.26 249.54 119.436 250.352 119.436C250.881 119.436 251.358 119.362 251.784 119.214C252.216 119.061 252.588 118.834 252.901 118.533C253.213 118.226 253.455 117.845 253.625 117.391L255.568 117.936C255.364 118.595 255.02 119.175 254.537 119.675C254.054 120.169 253.458 120.555 252.747 120.834C252.037 121.106 251.239 121.243 250.352 121.243ZM258.833 120.97V107.879H260.776V109.856H260.912C261.151 109.209 261.583 108.683 262.208 108.28C262.833 107.876 263.537 107.675 264.321 107.675C264.469 107.675 264.654 107.677 264.875 107.683C265.097 107.689 265.264 107.697 265.378 107.709V109.754C265.31 109.737 265.154 109.712 264.909 109.677C264.671 109.638 264.418 109.618 264.151 109.618C263.514 109.618 262.946 109.751 262.446 110.018C261.952 110.28 261.56 110.643 261.27 111.109C260.986 111.57 260.844 112.095 260.844 112.686V120.97H258.833Z" fill="black"/>
<defs>
<filter id="filter0_d_46_11" x="14.194" y="43.1382" width="336.884" height="164.496" filterUnits="userSpaceOnUse" color-interpolation-filters="sRGB">
<feFlood flood-opacity="0" result="BackgroundImageFix"/>
<feColorMatrix in="SourceAlpha" type="matrix" values="0 0 0 0 0 0 0 0 0 0 0 0 0 0 0 0 0 0 127 0" result="hardAlpha"/>
<feOffset dy="20"/>
<feComposite in2="hardAlpha" operator="out"/>
<feColorMatrix type="matrix" values="0 0 0 0 0 0 0 0 0 0 0 0 0 0 0 0 0 0 0.05 0"/>
<feBlend mode="normal" in2="BackgroundImageFix" result="effect1_dropShadow_46_11"/>
<feBlend mode="normal" in="SourceGraphic" in2="effect1_dropShadow_46_11" result="shape"/>
</filter>
<linearGradient id="paint0_linear_46_11" x1="52.4304" y1="82.2617" x2="231.767" y2="-9.66076" gradientUnits="userSpaceOnUse">
<stop stop-color="#01BCB2"/>
<stop offset="0.548078" stop-color="#9727FF"/>
<stop offset="1" stop-color="#002C79"/>
</linearGradient>
</defs>
</svg>
