<svg width="366" height="231" viewBox="0 0 366 231" fill="none" xmlns="http://www.w3.org/2000/svg">
<g filter="url(#filter0_d_46_9)">
<path d="M21.8748 124.279C11.6338 120.116 11.6338 110.657 21.8748 106.493L173.578 44.8203C179.095 42.5775 186.177 42.5775 191.693 44.8203L343.397 106.493C353.638 110.657 353.638 120.116 343.397 124.279L191.693 185.952C186.177 188.195 179.095 188.195 173.578 185.952L21.8748 124.279Z" fill="white"/>
<path d="M23.1687 123.008C14.3911 119.44 14.3911 111.333 23.1687 107.764L174.872 46.0904C179.601 44.1681 185.671 44.1687 190.399 46.0909L342.102 107.764C350.88 111.332 350.88 119.44 342.102 123.009L190.399 184.682C185.671 186.604 179.601 186.605 174.872 184.682L23.1687 123.008Z" stroke="url(#paint0_linear_46_9)" stroke-width="4"/>
</g>
<path d="M111.948 110.968H109.834C109.709 110.36 109.49 109.826 109.178 109.366C108.871 108.906 108.496 108.519 108.053 108.207C107.615 107.889 107.129 107.65 106.595 107.491C106.061 107.332 105.504 107.252 104.925 107.252C103.868 107.252 102.911 107.519 102.053 108.054C101.201 108.588 100.522 109.375 100.016 110.414C99.5158 111.454 99.2658 112.73 99.2658 114.241C99.2658 115.752 99.5158 117.028 100.016 118.068C100.522 119.108 101.201 119.894 102.053 120.429C102.911 120.963 103.868 121.23 104.925 121.23C105.504 121.23 106.061 121.15 106.595 120.991C107.129 120.832 107.615 120.596 108.053 120.284C108.496 119.966 108.871 119.576 109.178 119.116C109.49 118.65 109.709 118.116 109.834 117.514H111.948C111.789 118.406 111.499 119.204 111.078 119.909C110.658 120.613 110.135 121.213 109.51 121.707C108.885 122.196 108.183 122.568 107.405 122.823C106.632 123.079 105.806 123.207 104.925 123.207C103.436 123.207 102.112 122.843 100.953 122.116C99.7943 121.389 98.8823 120.355 98.2176 119.014C97.5528 117.673 97.2204 116.082 97.2204 114.241C97.2204 112.4 97.5528 110.809 98.2176 109.468C98.8823 108.127 99.7943 107.093 100.953 106.366C102.112 105.639 103.436 105.275 104.925 105.275C105.806 105.275 106.632 105.403 107.405 105.659C108.183 105.914 108.885 106.289 109.51 106.784C110.135 107.272 110.658 107.869 111.078 108.573C111.499 109.272 111.789 110.071 111.948 110.968ZM120.409 123.241C119.227 123.241 118.19 122.96 117.298 122.397C116.411 121.835 115.718 121.048 115.218 120.037C114.724 119.025 114.477 117.843 114.477 116.491C114.477 115.127 114.724 113.937 115.218 112.92C115.718 111.903 116.411 111.113 117.298 110.551C118.19 109.988 119.227 109.707 120.409 109.707C121.59 109.707 122.625 109.988 123.511 110.551C124.403 111.113 125.096 111.903 125.59 112.92C126.09 113.937 126.34 115.127 126.34 116.491C126.34 117.843 126.09 119.025 125.59 120.037C125.096 121.048 124.403 121.835 123.511 122.397C122.625 122.96 121.59 123.241 120.409 123.241ZM120.409 121.434C121.306 121.434 122.045 121.204 122.625 120.744C123.204 120.284 123.633 119.679 123.911 118.929C124.19 118.179 124.329 117.366 124.329 116.491C124.329 115.616 124.19 114.801 123.911 114.045C123.633 113.289 123.204 112.679 122.625 112.213C122.045 111.747 121.306 111.514 120.409 111.514C119.511 111.514 118.772 111.747 118.193 112.213C117.613 112.679 117.184 113.289 116.906 114.045C116.627 114.801 116.488 115.616 116.488 116.491C116.488 117.366 116.627 118.179 116.906 118.929C117.184 119.679 117.613 120.284 118.193 120.744C118.772 121.204 119.511 121.434 120.409 121.434ZM134.695 128.15C133.723 128.15 132.888 128.025 132.189 127.775C131.49 127.531 130.908 127.207 130.442 126.804C129.982 126.406 129.615 125.98 129.343 125.525L130.945 124.4C131.127 124.639 131.357 124.912 131.635 125.218C131.914 125.531 132.294 125.801 132.777 126.028C133.266 126.261 133.905 126.377 134.695 126.377C135.752 126.377 136.624 126.122 137.311 125.61C137.999 125.099 138.343 124.298 138.343 123.207V120.548H138.172C138.024 120.787 137.814 121.082 137.541 121.434C137.274 121.781 136.888 122.091 136.382 122.363C135.882 122.63 135.206 122.764 134.354 122.764C133.297 122.764 132.348 122.514 131.507 122.014C130.672 121.514 130.01 120.787 129.522 119.832C129.039 118.877 128.797 117.718 128.797 116.355C128.797 115.014 129.033 113.846 129.504 112.852C129.976 111.852 130.632 111.079 131.473 110.534C132.314 109.983 133.286 109.707 134.388 109.707C135.24 109.707 135.916 109.849 136.416 110.133C136.922 110.412 137.308 110.73 137.576 111.088C137.848 111.44 138.058 111.73 138.206 111.957H138.411V109.877H140.354V123.343C140.354 124.468 140.098 125.383 139.587 126.088C139.081 126.798 138.399 127.318 137.541 127.647C136.689 127.983 135.74 128.15 134.695 128.15ZM134.627 120.957C135.433 120.957 136.115 120.772 136.672 120.403C137.229 120.034 137.652 119.502 137.942 118.809C138.232 118.116 138.377 117.287 138.377 116.321C138.377 115.377 138.235 114.545 137.951 113.823C137.666 113.102 137.246 112.537 136.689 112.127C136.132 111.718 135.445 111.514 134.627 111.514C133.774 111.514 133.064 111.73 132.496 112.162C131.933 112.593 131.51 113.173 131.226 113.9C130.948 114.627 130.808 115.434 130.808 116.321C130.808 117.23 130.951 118.034 131.235 118.733C131.524 119.426 131.951 119.971 132.513 120.369C133.081 120.761 133.786 120.957 134.627 120.957ZM146.047 115.093V122.968H144.036V109.877H145.979V111.923H146.149C146.456 111.258 146.922 110.724 147.547 110.321C148.172 109.912 148.979 109.707 149.968 109.707C150.854 109.707 151.629 109.889 152.294 110.252C152.959 110.61 153.476 111.156 153.845 111.889C154.215 112.616 154.399 113.537 154.399 114.65V122.968H152.388V114.787C152.388 113.758 152.121 112.957 151.587 112.383C151.053 111.804 150.32 111.514 149.388 111.514C148.746 111.514 148.172 111.653 147.666 111.931C147.166 112.21 146.772 112.616 146.482 113.15C146.192 113.684 146.047 114.332 146.047 115.093ZM158.075 122.968V109.877H160.086V122.968H158.075ZM159.098 107.696C158.705 107.696 158.367 107.562 158.083 107.295C157.805 107.028 157.666 106.707 157.666 106.332C157.666 105.957 157.805 105.636 158.083 105.369C158.367 105.102 158.705 104.968 159.098 104.968C159.49 104.968 159.825 105.102 160.103 105.369C160.387 105.636 160.529 105.957 160.529 106.332C160.529 106.707 160.387 107.028 160.103 107.295C159.825 107.562 159.49 107.696 159.098 107.696ZM169.463 109.877V111.582H162.679V109.877H169.463ZM164.656 106.741H166.668V119.218C166.668 119.787 166.75 120.213 166.915 120.497C167.085 120.775 167.301 120.963 167.563 121.059C167.83 121.15 168.111 121.196 168.406 121.196C168.628 121.196 168.81 121.184 168.952 121.162C169.094 121.133 169.208 121.11 169.293 121.093L169.702 122.9C169.566 122.951 169.375 123.002 169.131 123.054C168.887 123.11 168.577 123.139 168.202 123.139C167.634 123.139 167.077 123.017 166.531 122.772C165.992 122.528 165.543 122.156 165.185 121.656C164.833 121.156 164.656 120.525 164.656 119.764V106.741ZM172.489 122.968V109.877H174.5V122.968H172.489ZM173.512 107.696C173.12 107.696 172.781 107.562 172.497 107.295C172.219 107.028 172.08 106.707 172.08 106.332C172.08 105.957 172.219 105.636 172.497 105.369C172.781 105.102 173.12 104.968 173.512 104.968C173.904 104.968 174.239 105.102 174.517 105.369C174.801 105.636 174.943 105.957 174.943 106.332C174.943 106.707 174.801 107.028 174.517 107.295C174.239 107.562 173.904 107.696 173.512 107.696ZM183.502 123.241C182.321 123.241 181.284 122.96 180.392 122.397C179.505 121.835 178.812 121.048 178.312 120.037C177.818 119.025 177.571 117.843 177.571 116.491C177.571 115.127 177.818 113.937 178.312 112.92C178.812 111.903 179.505 111.113 180.392 110.551C181.284 109.988 182.321 109.707 183.502 109.707C184.684 109.707 185.718 109.988 186.605 110.551C187.497 111.113 188.19 111.903 188.684 112.92C189.184 113.937 189.434 115.127 189.434 116.491C189.434 117.843 189.184 119.025 188.684 120.037C188.19 121.048 187.497 121.835 186.605 122.397C185.718 122.96 184.684 123.241 183.502 123.241ZM183.502 121.434C184.4 121.434 185.139 121.204 185.718 120.744C186.298 120.284 186.727 119.679 187.005 118.929C187.284 118.179 187.423 117.366 187.423 116.491C187.423 115.616 187.284 114.801 187.005 114.045C186.727 113.289 186.298 112.679 185.718 112.213C185.139 111.747 184.4 111.514 183.502 111.514C182.605 111.514 181.866 111.747 181.286 112.213C180.707 112.679 180.278 113.289 180 114.045C179.721 114.801 179.582 115.616 179.582 116.491C179.582 117.366 179.721 118.179 180 118.929C180.278 119.679 180.707 120.284 181.286 120.744C181.866 121.204 182.605 121.434 183.502 121.434ZM194.516 115.093V122.968H192.504V109.877H194.448V111.923H194.618C194.925 111.258 195.391 110.724 196.016 110.321C196.641 109.912 197.448 109.707 198.436 109.707C199.323 109.707 200.098 109.889 200.763 110.252C201.428 110.61 201.945 111.156 202.314 111.889C202.683 112.616 202.868 113.537 202.868 114.65V122.968H200.857V114.787C200.857 113.758 200.59 112.957 200.056 112.383C199.522 111.804 198.789 111.514 197.857 111.514C197.215 111.514 196.641 111.653 196.135 111.931C195.635 112.21 195.24 112.616 194.951 113.15C194.661 113.684 194.516 114.332 194.516 115.093ZM213.566 122.968V105.514H215.68V121.093H223.794V122.968H213.566ZM230.646 123.275C229.816 123.275 229.063 123.119 228.387 122.806C227.711 122.488 227.174 122.031 226.777 121.434C226.379 120.832 226.18 120.105 226.18 119.252C226.18 118.502 226.328 117.894 226.623 117.429C226.919 116.957 227.313 116.588 227.808 116.321C228.302 116.054 228.848 115.855 229.444 115.724C230.046 115.588 230.652 115.48 231.259 115.4C232.055 115.298 232.7 115.221 233.194 115.17C233.694 115.113 234.058 115.019 234.285 114.889C234.518 114.758 234.634 114.531 234.634 114.207V114.139C234.634 113.298 234.404 112.644 233.944 112.179C233.49 111.713 232.799 111.48 231.873 111.48C230.913 111.48 230.16 111.69 229.615 112.11C229.069 112.531 228.686 112.98 228.464 113.457L226.555 112.775C226.896 111.98 227.35 111.36 227.919 110.917C228.492 110.468 229.117 110.156 229.794 109.98C230.475 109.798 231.146 109.707 231.805 109.707C232.225 109.707 232.708 109.758 233.254 109.86C233.805 109.957 234.336 110.159 234.848 110.466C235.365 110.772 235.794 111.235 236.134 111.855C236.475 112.474 236.646 113.304 236.646 114.343V122.968H234.634V121.196H234.532C234.396 121.48 234.169 121.784 233.85 122.108C233.532 122.431 233.109 122.707 232.58 122.934C232.052 123.162 231.407 123.275 230.646 123.275ZM230.953 121.468C231.748 121.468 232.419 121.312 232.964 121C233.515 120.687 233.93 120.284 234.208 119.789C234.492 119.295 234.634 118.775 234.634 118.23V116.389C234.549 116.491 234.362 116.585 234.072 116.67C233.788 116.75 233.458 116.821 233.083 116.883C232.714 116.94 232.353 116.991 232.001 117.037C231.654 117.076 231.373 117.11 231.157 117.139C230.634 117.207 230.146 117.318 229.691 117.471C229.242 117.619 228.879 117.843 228.6 118.144C228.328 118.44 228.191 118.843 228.191 119.355C228.191 120.054 228.45 120.582 228.967 120.94C229.49 121.292 230.152 121.468 230.953 121.468ZM241.144 127.877C240.803 127.877 240.499 127.849 240.232 127.792C239.965 127.741 239.78 127.69 239.678 127.639L240.189 125.866C240.678 125.991 241.11 126.037 241.485 126.002C241.86 125.968 242.192 125.801 242.482 125.5C242.777 125.204 243.047 124.724 243.291 124.059L243.666 123.037L238.826 109.877H241.007L244.621 120.309H244.757L248.371 109.877H250.553L244.996 124.877C244.746 125.554 244.436 126.113 244.067 126.556C243.698 127.005 243.269 127.338 242.78 127.554C242.297 127.769 241.752 127.877 241.144 127.877ZM258.227 123.241C256.966 123.241 255.878 122.963 254.963 122.406C254.054 121.843 253.352 121.059 252.858 120.054C252.37 119.042 252.125 117.866 252.125 116.525C252.125 115.184 252.37 114.002 252.858 112.98C253.352 111.951 254.04 111.15 254.921 110.576C255.807 109.997 256.841 109.707 258.023 109.707C258.705 109.707 259.378 109.821 260.043 110.048C260.708 110.275 261.313 110.644 261.858 111.156C262.404 111.662 262.838 112.332 263.162 113.167C263.486 114.002 263.648 115.031 263.648 116.252V117.105H253.557V115.366H261.602C261.602 114.627 261.455 113.968 261.159 113.389C260.87 112.809 260.455 112.352 259.915 112.017C259.381 111.681 258.75 111.514 258.023 111.514C257.222 111.514 256.529 111.713 255.943 112.11C255.364 112.502 254.918 113.014 254.605 113.644C254.293 114.275 254.137 114.951 254.137 115.673V116.832C254.137 117.821 254.307 118.659 254.648 119.346C254.995 120.028 255.475 120.548 256.088 120.906C256.702 121.258 257.415 121.434 258.227 121.434C258.756 121.434 259.233 121.36 259.659 121.213C260.091 121.059 260.463 120.832 260.776 120.531C261.088 120.224 261.33 119.843 261.5 119.389L263.443 119.934C263.239 120.593 262.895 121.173 262.412 121.673C261.929 122.167 261.333 122.554 260.622 122.832C259.912 123.105 259.114 123.241 258.227 123.241ZM266.708 122.968V109.877H268.651V111.855H268.787C269.026 111.207 269.458 110.681 270.083 110.278C270.708 109.875 271.412 109.673 272.196 109.673C272.344 109.673 272.529 109.676 272.75 109.681C272.972 109.687 273.139 109.696 273.253 109.707V111.752C273.185 111.735 273.029 111.71 272.784 111.676C272.546 111.636 272.293 111.616 272.026 111.616C271.389 111.616 270.821 111.75 270.321 112.017C269.827 112.278 269.435 112.642 269.145 113.108C268.861 113.568 268.719 114.093 268.719 114.684V122.968H266.708Z" fill="black"/>
<defs>
<filter id="filter0_d_46_9" x="14.194" y="43.1382" width="336.884" height="164.496" filterUnits="userSpaceOnUse" color-interpolation-filters="sRGB">
<feFlood flood-opacity="0" result="BackgroundImageFix"/>
<feColorMatrix in="SourceAlpha" type="matrix" values="0 0 0 0 0 0 0 0 0 0 0 0 0 0 0 0 0 0 127 0" result="hardAlpha"/>
<feOffset dy="20"/>
<feComposite in2="hardAlpha" operator="out"/>
<feColorMatrix type="matrix" values="0 0 0 0 0 0 0 0 0 0 0 0 0 0 0 0 0 0 0.05 0"/>
<feBlend mode="normal" in2="BackgroundImageFix" result="effect1_dropShadow_46_9"/>
<feBlend mode="normal" in="SourceGraphic" in2="effect1_dropShadow_46_9" result="shape"/>
</filter>
<linearGradient id="paint0_linear_46_9" x1="52.4304" y1="82.2616" x2="231.767" y2="-9.66079" gradientUnits="userSpaceOnUse">
<stop stop-color="#01BCB2"/>
<stop offset="0.548078" stop-color="#9727FF"/>
<stop offset="1" stop-color="#002C79"/>
</linearGradient>
</defs>
</svg>
