<svg width="280" height="184" viewBox="0 0 280 184" fill="none" xmlns="http://www.w3.org/2000/svg">
<g filter="url(#filter0_d_44_4)">
<rect width="279.179" height="163.197" rx="14" fill="white"/>
<rect x="2" y="2" width="275.179" height="159.197" rx="12" stroke="url(#paint0_linear_44_4)" stroke-width="4"/>
</g>
<path d="M99.9503 129.138H97.7344L104.144 111.683H106.325L112.734 129.138H110.519L105.303 114.444H105.166L99.9503 129.138ZM100.769 122.319H109.7V124.194H100.769V122.319ZM120.499 129.41C119.271 129.41 118.215 129.12 117.328 128.541C116.442 127.961 115.76 127.163 115.283 126.146C114.805 125.129 114.567 123.967 114.567 122.66C114.567 121.331 114.811 120.157 115.3 119.14C115.794 118.118 116.482 117.319 117.362 116.745C118.249 116.166 119.283 115.876 120.465 115.876C121.385 115.876 122.215 116.047 122.953 116.388C123.692 116.728 124.297 117.206 124.769 117.819C125.24 118.433 125.533 119.149 125.646 119.967H123.635C123.482 119.37 123.141 118.842 122.612 118.382C122.09 117.916 121.385 117.683 120.499 117.683C119.715 117.683 119.027 117.888 118.436 118.297C117.851 118.7 117.394 119.271 117.064 120.01C116.74 120.743 116.578 121.603 116.578 122.592C116.578 123.603 116.737 124.484 117.055 125.234C117.379 125.984 117.834 126.566 118.419 126.981C119.01 127.396 119.703 127.603 120.499 127.603C121.021 127.603 121.496 127.513 121.922 127.331C122.348 127.149 122.709 126.888 123.004 126.547C123.3 126.206 123.51 125.797 123.635 125.319H125.646C125.533 126.092 125.251 126.788 124.803 127.407C124.359 128.021 123.771 128.51 123.038 128.873C122.311 129.231 121.465 129.41 120.499 129.41ZM134.28 116.047V117.751H127.496V116.047H134.28ZM129.473 112.91H131.484V125.388C131.484 125.956 131.567 126.382 131.732 126.666C131.902 126.944 132.118 127.132 132.379 127.228C132.646 127.319 132.928 127.365 133.223 127.365C133.445 127.365 133.626 127.353 133.769 127.331C133.911 127.302 134.024 127.28 134.109 127.263L134.519 129.069C134.382 129.12 134.192 129.172 133.947 129.223C133.703 129.28 133.394 129.308 133.019 129.308C132.45 129.308 131.894 129.186 131.348 128.941C130.808 128.697 130.359 128.325 130.001 127.825C129.649 127.325 129.473 126.694 129.473 125.933V112.91ZM137.305 129.138V116.047H139.317V129.138H137.305ZM138.328 113.865C137.936 113.865 137.598 113.731 137.314 113.464C137.036 113.197 136.896 112.876 136.896 112.501C136.896 112.126 137.036 111.805 137.314 111.538C137.598 111.271 137.936 111.138 138.328 111.138C138.72 111.138 139.055 111.271 139.334 111.538C139.618 111.805 139.76 112.126 139.76 112.501C139.76 112.876 139.618 113.197 139.334 113.464C139.055 113.731 138.72 113.865 138.328 113.865ZM148.319 129.41C147.137 129.41 146.1 129.129 145.208 128.566C144.322 128.004 143.629 127.217 143.129 126.206C142.634 125.194 142.387 124.013 142.387 122.66C142.387 121.297 142.634 120.106 143.129 119.089C143.629 118.072 144.322 117.282 145.208 116.72C146.1 116.157 147.137 115.876 148.319 115.876C149.501 115.876 150.535 116.157 151.421 116.72C152.313 117.282 153.006 118.072 153.501 119.089C154.001 120.106 154.251 121.297 154.251 122.66C154.251 124.013 154.001 125.194 153.501 126.206C153.006 127.217 152.313 128.004 151.421 128.566C150.535 129.129 149.501 129.41 148.319 129.41ZM148.319 127.603C149.217 127.603 149.955 127.373 150.535 126.913C151.114 126.453 151.543 125.848 151.822 125.098C152.1 124.348 152.239 123.535 152.239 122.66C152.239 121.785 152.1 120.97 151.822 120.214C151.543 119.459 151.114 118.848 150.535 118.382C149.955 117.916 149.217 117.683 148.319 117.683C147.421 117.683 146.683 117.916 146.103 118.382C145.523 118.848 145.095 119.459 144.816 120.214C144.538 120.97 144.398 121.785 144.398 122.66C144.398 123.535 144.538 124.348 144.816 125.098C145.095 125.848 145.523 126.453 146.103 126.913C146.683 127.373 147.421 127.603 148.319 127.603ZM159.332 121.263V129.138H157.321V116.047H159.264V118.092H159.435C159.742 117.427 160.207 116.893 160.832 116.49C161.457 116.081 162.264 115.876 163.253 115.876C164.139 115.876 164.915 116.058 165.58 116.422C166.244 116.78 166.761 117.325 167.131 118.058C167.5 118.785 167.685 119.706 167.685 120.819V129.138H165.673V120.956C165.673 119.927 165.406 119.126 164.872 118.552C164.338 117.973 163.605 117.683 162.673 117.683C162.031 117.683 161.457 117.822 160.952 118.101C160.452 118.379 160.057 118.785 159.767 119.319C159.477 119.853 159.332 120.501 159.332 121.263ZM180.633 118.978L178.826 119.49C178.712 119.189 178.545 118.896 178.323 118.612C178.107 118.322 177.812 118.084 177.437 117.896C177.062 117.709 176.582 117.615 175.996 117.615C175.195 117.615 174.528 117.799 173.994 118.169C173.465 118.532 173.201 118.995 173.201 119.558C173.201 120.058 173.383 120.453 173.746 120.743C174.11 121.032 174.678 121.274 175.451 121.467L177.394 121.944C178.565 122.228 179.437 122.663 180.011 123.248C180.585 123.828 180.871 124.575 180.871 125.49C180.871 126.24 180.656 126.91 180.224 127.501C179.798 128.092 179.201 128.558 178.434 128.899C177.667 129.24 176.775 129.41 175.758 129.41C174.423 129.41 173.318 129.12 172.443 128.541C171.568 127.961 171.014 127.115 170.781 126.001L172.69 125.524C172.871 126.228 173.215 126.757 173.721 127.109C174.232 127.461 174.9 127.638 175.724 127.638C176.661 127.638 177.406 127.439 177.957 127.041C178.514 126.638 178.792 126.155 178.792 125.592C178.792 125.138 178.633 124.757 178.315 124.45C177.996 124.138 177.508 123.905 176.849 123.751L174.667 123.24C173.468 122.956 172.587 122.515 172.025 121.919C171.468 121.316 171.19 120.564 171.19 119.66C171.19 118.922 171.397 118.268 171.812 117.7C172.232 117.132 172.803 116.686 173.525 116.362C174.252 116.038 175.076 115.876 175.996 115.876C177.292 115.876 178.309 116.16 179.048 116.728C179.792 117.297 180.32 118.047 180.633 118.978Z" fill="black"/>
<path fill-rule="evenodd" clip-rule="evenodd" d="M174.461 68.8925C174.14 70.0931 173.354 71.1166 172.278 71.738C171.202 72.3594 169.923 72.5278 168.722 72.2061L160.799 70.083C160.6 70.0299 160.42 69.9236 160.277 69.7757L156.942 66.3147L153.827 71.71L157.001 73.5426C159.159 74.7886 160.488 77.0911 160.488 79.583V93.3654C160.488 94.6082 159.995 95.8001 159.116 96.679C158.237 97.5578 157.045 98.0516 155.802 98.0516H155.802C154.559 98.0516 153.367 97.5578 152.488 96.679C151.609 95.8001 151.116 94.6082 151.116 93.3654V81.4015C151.116 81.1329 150.972 80.8847 150.74 80.7503L146.156 78.104L141.904 82.3566C140.336 83.9244 137.91 84.2436 135.99 83.135L126.669 77.7534C125.593 77.132 124.807 76.1085 124.486 74.908C124.164 73.7076 124.332 72.4283 124.954 71.3521H124.954L124.954 71.3517C125.575 70.2754 126.599 69.49 127.799 69.1683C129 68.8466 130.279 69.015 131.355 69.6364L137.036 72.9162C137.43 73.1435 137.927 73.0781 138.248 72.7567L141.142 69.8635C141.286 69.1815 141.538 68.5203 141.893 67.9053L147.175 58.7571L145.163 58.3919L139.557 61.628C138.481 62.2495 137.202 62.4179 136.002 62.0961C134.801 61.7744 133.778 60.9891 133.156 59.9127L133.156 59.9124C132.534 58.836 132.366 57.5569 132.688 56.3564C133.009 55.156 133.795 54.1324 134.871 53.5109L143.387 48.5945C143.629 48.4548 143.914 48.4097 144.188 48.468L152.94 50.3352C153.055 50.3599 153.167 50.4026 153.269 50.4617L158.897 53.7109C160.227 54.4792 161.03 55.8109 161.177 57.2308L165.37 61.6047L171.148 63.1528C172.348 63.4745 173.372 64.2599 173.993 65.3362C174.615 66.4126 174.783 67.6917 174.461 68.8922V68.8925ZM172.28 68.3076L172.278 68.3072C172.445 67.6858 172.358 67.0236 172.036 66.4663C171.714 65.909 171.184 65.5025 170.563 65.336L164.48 63.706C164.281 63.6526 164.1 63.5455 163.957 63.3965L160.63 59.9254C160.615 59.9525 160.599 59.9796 160.584 60.0066L158.118 64.2779L161.687 67.9813L169.307 70.023C169.929 70.1895 170.591 70.1024 171.148 69.7807C171.705 69.459 172.112 68.9291 172.278 68.3076H172.28ZM135.113 58.7826C135.435 59.3399 135.965 59.7466 136.587 59.9131C137.208 60.0796 137.87 59.9923 138.427 59.6707L144.392 56.2273C144.623 56.0935 144.895 56.0463 145.158 56.0941L149.158 56.8199C149.52 56.8855 149.827 57.1231 149.982 57.4568C150.136 57.7904 150.119 58.1785 149.935 58.4969L143.85 69.0353C143.261 70.0553 143.102 71.2675 143.407 72.4052C143.712 73.5427 144.456 74.5127 145.476 75.1016L151.87 78.7931C152.802 79.3311 153.376 80.3254 153.376 81.4015V93.3654C153.376 94.0089 153.631 94.6259 154.086 95.0809C154.541 95.5358 155.158 95.7915 155.802 95.7915H155.806C156.448 95.7904 157.064 95.535 157.518 95.0809C157.973 94.6259 158.228 94.0089 158.228 93.3654V79.583C158.228 77.8986 157.33 76.3421 155.871 75.5L151.718 73.1023C151.178 72.7902 150.992 72.0992 151.304 71.5586L158.626 58.8766C159.275 57.7533 158.89 56.3168 157.767 55.6682L152.294 52.5083L144.141 50.769L136.001 55.4683C135.444 55.79 135.037 56.3199 134.871 56.9415C134.704 57.5629 134.791 58.2251 135.113 58.7823L135.113 58.7826ZM126.91 72.4817L126.911 72.4821C126.589 73.0393 126.502 73.7015 126.669 74.323C126.835 74.9445 127.242 75.4744 127.799 75.7962L137.12 81.1778C138.154 81.7749 139.461 81.603 140.305 80.7584L144.133 76.9308C142.703 76.0332 141.662 74.6266 141.224 72.9901C141.223 72.9869 141.222 72.9836 141.221 72.9804L139.847 74.3548C138.802 75.3995 137.186 75.6123 135.906 74.8736L130.225 71.5938C129.668 71.272 129.006 71.1848 128.384 71.3514C127.763 71.5179 127.233 71.9246 126.911 72.4817H126.91ZM163.587 42.0885C166.334 43.6745 167.276 47.1926 165.69 49.9397C164.104 52.6868 160.586 53.6296 157.839 52.0434C155.092 50.4574 154.149 46.9394 155.735 44.1922C157.322 41.445 160.84 40.5024 163.587 42.0885ZM162.457 44.0458C160.79 43.0835 158.655 43.6554 157.693 45.3222C156.73 46.9891 157.302 49.1238 158.969 50.0861C160.636 51.0485 162.771 50.4766 163.733 48.8096C164.696 47.1428 164.123 45.0082 162.457 44.0458ZM105.688 50.9294C105.064 50.9294 104.558 50.423 104.558 49.7994C104.558 49.1756 105.064 48.6693 105.688 48.6693H125.166C125.79 48.6693 126.296 49.1756 126.296 49.7994C126.296 50.423 125.79 50.9294 125.166 50.9294H105.688ZM109.401 58.8836C108.777 58.8836 108.27 58.3774 108.27 57.7536C108.27 57.1299 108.777 56.6235 109.401 56.6235H127.544C128.168 56.6235 128.674 57.1299 128.674 57.7536C128.674 58.3774 128.168 58.8836 127.544 58.8836H109.401ZM105.688 66.8379C105.064 66.8379 104.558 66.3315 104.558 65.7079C104.558 65.0841 105.064 64.5778 105.688 64.5778H125.166C125.79 64.5778 126.296 65.0841 126.296 65.7079C126.296 66.3315 125.79 66.8379 125.166 66.8379H105.688ZM109.401 74.7921C108.777 74.7921 108.27 74.2859 108.27 73.6621C108.27 73.0384 108.777 72.532 109.401 72.532H120.856C121.479 72.532 121.986 73.0384 121.986 73.6621C121.986 74.2859 121.479 74.7921 120.856 74.7921H109.401ZM105.688 82.7464C105.064 82.7464 104.558 82.24 104.558 81.6164C104.558 80.9926 105.064 80.4863 105.688 80.4863H125.456C126.08 80.4863 126.586 80.9926 126.586 81.6164C126.586 82.24 126.08 82.7464 125.456 82.7464H105.688ZM109.401 90.7006C108.777 90.7006 108.27 90.1944 108.27 89.5706C108.27 88.9469 108.777 88.4405 109.401 88.4405H136.665C137.289 88.4405 137.795 88.9469 137.795 89.5706C137.795 90.1944 137.289 90.7006 136.665 90.7006H109.401Z" fill="black"/>
<defs>
<filter id="filter0_d_44_4" x="0" y="0" width="279.179" height="183.198" filterUnits="userSpaceOnUse" color-interpolation-filters="sRGB">
<feFlood flood-opacity="0" result="BackgroundImageFix"/>
<feColorMatrix in="SourceAlpha" type="matrix" values="0 0 0 0 0 0 0 0 0 0 0 0 0 0 0 0 0 0 127 0" result="hardAlpha"/>
<feOffset dy="20"/>
<feComposite in2="hardAlpha" operator="out"/>
<feColorMatrix type="matrix" values="0 0 0 0 0 0 0 0 0 0 0 0 0 0 0 0 0 0 0.05 0"/>
<feBlend mode="normal" in2="BackgroundImageFix" result="effect1_dropShadow_44_4"/>
<feBlend mode="normal" in="SourceGraphic" in2="effect1_dropShadow_44_4" result="shape"/>
</filter>
<linearGradient id="paint0_linear_44_4" x1="80.1457" y1="-4.81507e-06" x2="228.425" y2="129.56" gradientUnits="userSpaceOnUse">
<stop stop-color="#01BCB2"/>
<stop offset="0.548078" stop-color="#9727FF"/>
<stop offset="1" stop-color="#002C79"/>
</linearGradient>
</defs>
</svg>
