<svg width="137" height="137" viewBox="0 0 137 137" fill="none" xmlns="http://www.w3.org/2000/svg">
<path d="M45.7547 29.3569C48.5992 30.9959 51.3334 33.0319 53.8839 35.3986C59.2641 40.3892 63.2257 46.2913 66.0628 51.6421C66.2172 44.7919 65.3131 35.5676 60.7341 27.637C58.3527 23.5063 54.9717 19.721 50.7013 16.3841C46.3575 12.9958 41.727 10.5629 37.8462 8.88711C35.2443 7.76256 32.2749 9.44571 31.9441 12.2681C31.5399 15.6859 31.3194 19.7872 31.6648 24.131C36.8319 25.1747 41.5579 26.924 45.7621 29.3569H45.7547Z" fill="url(#paint0_linear_13_67)"/>
<path d="M14.5761 48.2096C19.5667 46.5338 24.5353 45.6812 29.401 45.6812C32.6938 45.6812 36.0822 46.0708 39.4632 46.8499C46.6 48.4816 52.9725 51.6053 58.1101 54.8246C55.6846 50.3852 52.4065 45.6151 48.1068 41.624C46.0194 39.691 43.807 38.0372 41.5138 36.7142C37.3831 34.3255 32.5689 32.7379 27.2034 31.9882C21.7423 31.2238 16.5165 31.4369 12.3196 31.922C9.50458 32.2528 7.76998 35.1928 8.89453 37.802C10.2543 40.9625 12.1138 44.6302 14.5834 48.217L14.5761 48.2096Z" fill="url(#paint1_linear_13_67)"/>
<path d="M51.6716 70.0244C46.6074 69.9068 40.8377 70.3699 35.1929 72.1045C32.4807 72.935 29.945 74.0375 27.6444 75.3605C23.5137 77.7419 19.7285 81.1229 16.3916 85.3933C13.0032 89.7445 10.5704 94.3676 8.89456 98.2484C7.77001 100.85 9.45316 103.82 12.2756 104.15C15.6933 104.555 19.7946 104.775 24.1385 104.43C25.1822 99.2627 26.9315 94.5367 29.3643 90.3325C31.0034 87.488 33.0393 84.7538 35.406 82.2034C40.404 76.8232 46.3061 72.8542 51.6716 70.0171V70.0244Z" fill="url(#paint2_linear_13_67)"/>
<path d="M46.8574 96.6314C48.4891 89.4872 51.6055 83.1221 54.8174 77.9918C50.3927 80.4173 45.6152 83.6954 41.6315 87.9878C39.6985 90.0752 38.0447 92.2876 36.7217 94.5808C34.333 98.7115 32.7454 103.526 31.9957 108.891C31.2313 114.352 31.4444 119.578 31.9295 123.775C32.2603 126.59 35.2003 128.325 37.8095 127.2C40.97 125.84 44.6377 123.981 48.2245 121.511C46.5487 116.521 45.6961 111.552 45.6961 106.686C45.6961 103.393 46.0856 100.005 46.8647 96.6241L46.8574 96.6314Z" fill="url(#paint3_linear_13_67)"/>
<path d="M90.3399 106.73C87.4955 105.091 84.7613 103.055 82.2108 100.689C76.8233 95.6906 72.8616 89.7885 70.0245 84.423C69.9069 89.4872 70.37 95.2569 72.1046 100.902C72.9351 103.614 74.0376 106.15 75.3606 108.45C77.742 112.581 81.123 116.366 85.3934 119.703C89.7225 123.077 94.3604 125.51 98.2485 127.185C100.858 128.31 103.82 126.627 104.151 123.804C104.555 120.387 104.768 116.285 104.43 111.956C99.2628 110.912 94.5368 109.163 90.3326 106.73H90.3399Z" fill="url(#paint4_linear_13_67)"/>
<path d="M121.519 87.8776C116.528 89.5534 111.559 90.406 106.694 90.406C103.401 90.406 100.02 90.0164 96.6315 89.2373C89.4873 87.6056 83.1222 84.4892 77.9919 81.2773C80.4174 85.702 83.6955 90.4795 87.9879 94.4632C90.0753 96.3962 92.2877 98.05 94.5809 99.373C98.7116 101.762 103.526 103.349 108.891 104.099C114.352 104.863 119.578 104.65 123.775 104.165C126.59 103.834 128.325 100.894 127.2 98.2852C125.84 95.1247 123.981 91.457 121.511 87.8702L121.519 87.8776Z" fill="url(#paint5_linear_13_67)"/>
<path d="M134.403 64.6589C131.639 62.6009 128.2 60.3592 124.267 58.4849C120.784 62.4392 116.903 65.6585 112.691 68.084C109.839 69.7304 106.716 71.0828 103.401 72.1045C99.5714 73.2805 95.72 73.9493 92.0156 74.2801C82.2181 69.9583 76.147 60.1387 76.3234 49.7164C79.403 43.9319 81.9167 36.9127 81.9167 29.3936C81.9167 24.6161 80.8877 19.6549 78.8518 14.6348C76.7938 9.54862 73.9934 5.12392 71.4577 1.72087C69.7598 -0.557627 66.3494 -0.579677 64.6516 1.69147C62.5936 4.45507 60.3592 7.89487 58.4849 11.8198C62.4392 15.3037 65.6585 19.1845 68.084 23.396C71.9281 30.0551 73.67 37.339 74.2727 44.0936C71.8546 49.5767 67.6724 54.0529 62.2775 56.8532C58.3232 58.8818 54.0161 59.8667 49.6943 59.7785C46.0634 57.8455 41.9621 56.1329 37.5595 55.126C34.7959 54.4939 32.047 54.1705 29.3936 54.1705C24.6161 54.1705 19.6475 55.1995 14.6348 57.2354C9.54862 59.2934 5.12392 62.0938 1.72087 64.6295C-0.557627 66.3274 -0.579677 69.7378 1.69147 71.4356C4.45507 73.4936 7.89487 75.728 11.8198 77.6023C15.3037 73.648 19.1845 70.4287 23.396 68.0032C26.2478 66.3568 29.3716 65.0044 32.6864 63.9827C36.5158 62.8067 40.3745 62.1379 44.0789 61.8071C49.5767 64.2253 54.0529 68.4074 56.8532 73.8097C58.8818 77.7566 59.8667 82.0564 59.7785 86.3708C57.8455 90.0017 56.1329 94.1104 55.1186 98.5277C54.4865 101.291 54.1631 104.04 54.1631 106.694C54.1631 111.471 55.1921 116.44 57.2281 121.452C59.2861 126.539 62.0864 130.963 64.6222 134.366C66.32 136.645 69.7304 136.667 71.4283 134.396C73.4863 131.632 75.7207 128.192 77.5949 124.267C73.6406 120.784 70.4213 116.903 67.9958 112.691C66.3494 109.839 64.997 106.716 63.9754 103.401C62.7994 99.5714 62.1305 95.72 61.7998 92.0156C64.2179 86.5178 68.4001 82.0343 73.8023 79.234C77.7493 77.2054 82.049 76.2205 86.3635 76.3087C89.9944 78.2417 94.103 79.9543 98.513 80.9612C101.277 81.5933 104.026 81.9167 106.679 81.9167C111.456 81.9167 116.425 80.8877 121.438 78.8518C126.546 76.7791 130.971 73.9861 134.359 71.465C136.637 69.7672 136.66 66.3568 134.388 64.6663L134.403 64.6589Z" fill="url(#paint6_linear_13_67)"/>
<path d="M84.4231 66.0701C89.4872 66.1877 95.257 65.7247 100.902 63.9901C103.614 63.1595 106.15 62.057 108.45 60.734C112.581 58.3526 116.366 54.9716 119.703 50.7013C123.077 46.3721 125.51 41.7343 127.185 37.8461C128.31 35.2369 126.627 32.2748 123.804 31.9441C120.387 31.5398 116.285 31.3267 111.956 31.6648C110.912 36.8318 109.163 41.5579 106.73 45.7621C105.091 48.6065 103.055 51.3407 100.689 53.8912C95.6906 59.2714 89.7886 63.2404 84.4231 66.0775V66.0701Z" fill="url(#paint7_linear_13_67)"/>
<path d="M81.2185 58.1321C85.6579 55.7066 90.4575 52.4212 94.4706 48.0994C96.4036 46.012 98.0574 43.7996 99.3804 41.5064C101.769 37.3757 103.357 32.5615 104.106 27.196C104.863 21.7643 104.65 16.5311 104.158 12.3196C103.827 9.48246 100.865 7.77726 98.2411 8.90916C95.088 10.2689 91.4497 12.1211 87.8776 14.576C89.5534 19.5667 90.406 24.5353 90.406 29.401C90.406 40.5877 85.8858 50.6866 81.2185 58.1395V58.1321Z" fill="url(#paint8_linear_13_67)"/>
<defs>
<linearGradient id="paint0_linear_13_67" x1="25.5349" y1="-1.07949" x2="186.066" y2="206.499" gradientUnits="userSpaceOnUse">
<stop stop-color="#CC3C90"/>
<stop offset="0.4" stop-color="#008ED1"/>
<stop offset="0.54" stop-color="#2BA498"/>
<stop offset="1" stop-color="#20A698"/>
</linearGradient>
<linearGradient id="paint1_linear_13_67" x1="7.14523" y1="13.1428" x2="167.669" y2="220.729" gradientUnits="userSpaceOnUse">
<stop stop-color="#CC3C90"/>
<stop offset="0.4" stop-color="#008ED1"/>
<stop offset="0.54" stop-color="#2BA498"/>
<stop offset="1" stop-color="#20A698"/>
</linearGradient>
<linearGradient id="paint2_linear_13_67" x1="-13.6038" y1="29.1878" x2="146.928" y2="236.767" gradientUnits="userSpaceOnUse">
<stop stop-color="#CC3C90"/>
<stop offset="0.4" stop-color="#008ED1"/>
<stop offset="0.54" stop-color="#2BA498"/>
<stop offset="1" stop-color="#20A698"/>
</linearGradient>
<linearGradient id="paint3_linear_13_67" x1="-12.8908" y1="28.6366" x2="147.641" y2="236.215" gradientUnits="userSpaceOnUse">
<stop stop-color="#CC3C90"/>
<stop offset="0.4" stop-color="#008ED1"/>
<stop offset="0.54" stop-color="#2BA498"/>
<stop offset="1" stop-color="#20A698"/>
</linearGradient>
<linearGradient id="paint4_linear_13_67" x1="11.8419" y1="9.51183" x2="172.366" y2="217.098" gradientUnits="userSpaceOnUse">
<stop stop-color="#CC3C90"/>
<stop offset="0.4" stop-color="#008ED1"/>
<stop offset="0.54" stop-color="#2BA498"/>
<stop offset="1" stop-color="#20A698"/>
</linearGradient>
<linearGradient id="paint5_linear_13_67" x1="30.2316" y1="-4.71037" x2="190.763" y2="202.868" gradientUnits="userSpaceOnUse">
<stop stop-color="#CC3C90"/>
<stop offset="0.4" stop-color="#008ED1"/>
<stop offset="0.54" stop-color="#2BA498"/>
<stop offset="1" stop-color="#20A698"/>
</linearGradient>
<linearGradient id="paint6_linear_13_67" x1="18.6847" y1="4.21987" x2="179.216" y2="211.799" gradientUnits="userSpaceOnUse">
<stop stop-color="#CC3C90"/>
<stop offset="0.4" stop-color="#008ED1"/>
<stop offset="0.54" stop-color="#2BA498"/>
<stop offset="1" stop-color="#20A698"/>
</linearGradient>
<linearGradient id="paint7_linear_13_67" x1="50.9732" y1="-20.7481" x2="211.505" y2="186.831" gradientUnits="userSpaceOnUse">
<stop stop-color="#CC3C90"/>
<stop offset="0.4" stop-color="#008ED1"/>
<stop offset="0.54" stop-color="#2BA498"/>
<stop offset="1" stop-color="#20A698"/>
</linearGradient>
<linearGradient id="paint8_linear_13_67" x1="50.2309" y1="-20.1748" x2="210.762" y2="187.404" gradientUnits="userSpaceOnUse">
<stop stop-color="#CC3C90"/>
<stop offset="0.4" stop-color="#008ED1"/>
<stop offset="0.54" stop-color="#2BA498"/>
<stop offset="1" stop-color="#20A698"/>
</linearGradient>
</defs>
</svg>
