<svg width="71" height="57" viewBox="0 0 71 57" fill="none" xmlns="http://www.w3.org/2000/svg">
<path fill-rule="evenodd" clip-rule="evenodd" d="M69.9037 27.5742C69.582 28.7747 68.7966 29.7983 67.7203 30.4196C66.6439 31.041 65.3648 31.2094 64.1643 30.8878L56.2407 28.7647C56.0423 28.7116 55.862 28.6052 55.7195 28.4573L52.3839 24.9964L49.269 30.3917L52.4431 32.2242C54.601 33.4702 55.9304 35.7727 55.9304 38.2646V52.0471C55.9304 53.2898 55.4367 54.4818 54.558 55.3607C53.6791 56.2394 52.4871 56.7333 51.2443 56.7333H51.2439C50.001 56.7333 48.8091 56.2394 47.9303 55.3607C47.0514 54.4818 46.5577 53.2898 46.5577 52.0471V40.0832C46.5577 39.8145 46.4145 39.5663 46.1818 39.432L41.5983 36.7857L37.3458 41.0382C35.778 42.606 33.3526 42.9253 31.4324 41.8167L22.1112 36.4351C21.0349 35.8137 20.2495 34.7901 19.9278 33.5896C19.606 32.3892 19.7746 31.11 20.396 30.0337H20.3967L20.3961 30.0333C21.0175 28.9571 22.041 28.1717 23.2416 27.8499C24.4421 27.5283 25.7212 27.6966 26.7976 28.318L32.4784 31.5979C32.872 31.8251 33.3693 31.7597 33.6906 31.4384L36.5837 28.5452C36.7286 27.8632 36.9802 27.202 37.3353 26.5869L42.6171 17.4387L40.6049 17.0735L34.9997 20.3096C33.9234 20.9311 32.6442 21.0995 31.4438 20.7777C30.2433 20.4561 29.2197 19.6707 28.5983 18.5943L28.598 18.594C27.9766 17.5177 27.8083 16.2386 28.1299 15.038C28.4515 13.8376 29.2369 12.8141 30.3133 12.1926L38.8288 7.2761C39.071 7.1364 39.3563 7.09134 39.6298 7.14968L48.3819 9.01681C48.4976 9.04153 48.6088 9.08419 48.7112 9.14338L54.339 12.3926C55.6696 13.1609 56.4723 14.4925 56.6195 15.9124L60.8122 20.2863L66.5901 21.8345C67.7906 22.1561 68.8142 22.9415 69.4356 24.0179C70.0571 25.0943 70.2255 26.3733 69.9037 27.5739V27.5742ZM67.722 26.9892L67.7207 26.9888C67.8872 26.3674 67.8001 25.7052 67.4783 25.1479C67.1567 24.5907 66.6267 24.1841 66.0051 24.0176L59.9225 22.3876C59.723 22.3342 59.5421 22.2272 59.3991 22.0781L56.0718 18.607C56.0568 18.6342 56.0414 18.6613 56.0259 18.6883L53.5598 22.9596L57.129 26.6629L64.7492 28.7046C65.3708 28.8712 66.033 28.784 66.5902 28.4624C67.1475 28.1406 67.554 27.6107 67.7206 26.9892H67.722ZM30.5556 17.4643C30.8774 18.0215 31.4072 18.4282 32.0287 18.5947C32.6503 18.7613 33.3125 18.674 33.8696 18.3523L39.8338 14.9089C40.0656 14.7752 40.3373 14.728 40.6006 14.7757L44.6002 15.5015C44.9619 15.5672 45.2692 15.8048 45.4237 16.1384C45.5782 16.4721 45.5609 16.8601 45.377 17.1785L39.2926 27.717C38.7037 28.737 38.5442 29.9491 38.849 31.0868C39.1539 32.2243 39.8982 33.1944 40.918 33.7833L47.3119 37.4747C48.2438 38.0128 48.8178 39.0071 48.8178 40.0832V52.0471C48.8178 52.6905 49.0735 53.3075 49.5284 53.7625C49.9833 54.2175 50.6005 54.4732 51.2439 54.4732H51.2482C51.8902 54.472 52.5058 54.2166 52.9598 53.7625C53.4148 53.3075 53.6703 52.6905 53.6703 52.0471V38.2646C53.6703 36.5803 52.7718 35.0238 51.313 34.1816L47.1602 31.7839C46.6197 31.4719 46.4346 30.7808 46.7466 30.2402L54.0686 17.5582C54.7171 16.4349 54.3322 14.9985 53.209 14.3498L47.7358 11.1899L39.5829 9.45061L31.4434 14.15C30.8861 14.4716 30.4796 15.0016 30.313 15.6231C30.1465 16.2445 30.2336 16.9067 30.5554 17.464L30.5556 17.4643ZM22.3526 31.1634L22.3532 31.1638C22.0316 31.7209 21.9444 32.3831 22.1108 33.0046C22.2774 33.6262 22.684 34.156 23.2413 34.4778L32.5624 39.8594C33.5967 40.4565 34.9032 40.2846 35.7476 39.44L39.5753 35.6124C38.1456 34.7148 37.1044 33.3082 36.6659 31.6717C36.6651 31.6685 36.6641 31.6652 36.6632 31.662L35.2888 33.0364C34.2441 34.0812 32.6278 34.2939 31.3483 33.5553L25.6675 30.2754C25.1103 29.9536 24.448 29.8665 23.8265 30.033C23.205 30.1996 22.6751 30.6062 22.3535 31.1634H22.3526ZM59.0289 0.770092C61.776 2.35613 62.7186 5.87427 61.1326 8.62129C59.5466 11.3685 56.0286 12.3112 53.2814 10.725C50.5342 9.139 49.5916 5.621 51.1777 2.87383C52.7637 0.126667 56.2817 -0.81594 59.0289 0.770092ZM57.8988 2.72749C56.232 1.76511 54.0973 2.33706 53.1349 4.00389C52.1727 5.67072 52.7446 7.80539 54.4115 8.76778C56.0783 9.73016 58.213 9.15821 59.1754 7.49124C60.1377 5.82441 59.5657 3.68987 57.8988 2.72749ZM1.13006 9.61108C0.506406 9.61108 0 9.10468 0 8.48103C0 7.85724 0.506406 7.35097 1.13006 7.35097H20.6084C21.2322 7.35097 21.7385 7.85724 21.7385 8.48103C21.7385 9.10468 21.2322 9.61108 20.6084 9.61108H1.13006ZM4.84271 17.5653C4.21906 17.5653 3.71266 17.059 3.71266 16.4352C3.71266 15.8116 4.21906 15.3051 4.84271 15.3051H22.9863C23.6101 15.3051 24.1164 15.8116 24.1164 16.4352C24.1164 17.059 23.6101 17.5653 22.9863 17.5653H4.84271ZM1.13006 25.5196C0.506406 25.5196 0 25.0132 0 24.3895C0 23.7657 0.506406 23.2595 1.13006 23.2595H20.6084C21.2322 23.2595 21.7385 23.7657 21.7385 24.3895C21.7385 25.0132 21.2322 25.5196 20.6084 25.5196H1.13006ZM4.84271 33.4738C4.21906 33.4738 3.71266 32.9675 3.71266 32.3437C3.71266 31.7201 4.21906 31.2136 4.84271 31.2136H16.2979C16.9216 31.2136 17.428 31.7201 17.428 32.3437C17.428 32.9675 16.9216 33.4738 16.2979 33.4738H4.84271ZM1.13006 41.4281C0.506406 41.4281 0 40.9217 0 40.298C0 39.6742 0.506406 39.168 1.13006 39.168H20.8981C21.5218 39.168 22.0282 39.6742 22.0282 40.298C22.0282 40.9217 21.5218 41.4281 20.8981 41.4281H1.13006ZM4.84271 49.3823C4.21906 49.3823 3.71266 48.876 3.71266 48.2522C3.71266 47.6286 4.21906 47.1221 4.84271 47.1221H32.1073C32.7309 47.1221 33.2373 47.6286 33.2373 48.2522C33.2373 48.876 32.7309 49.3823 32.1073 49.3823H4.84271Z" fill="black"/>
</svg>
