<svg width="47" height="46" viewBox="0 0 47 46" fill="none" xmlns="http://www.w3.org/2000/svg">
<path fill-rule="evenodd" clip-rule="evenodd" d="M38.1605 25.1595L38.9303 25.604C39.2889 25.811 39.4119 26.2702 39.2049 26.6288C38.9979 26.9874 38.5387 27.1105 38.1801 26.9034L35.8365 25.5503C35.4777 25.3431 35.3547 24.8844 35.5619 24.5255L36.9149 22.1819C37.122 21.8233 37.5812 21.7002 37.9398 21.9073C38.2983 22.1144 38.4214 22.5735 38.2144 22.9321C38.2144 22.9321 37.9959 23.3105 37.7655 23.7096C41.9786 22.2835 45.0143 18.2947 45.0143 13.6026C45.0143 8.4074 41.2925 4.07429 36.3717 3.1276C35.9651 3.04939 35.6985 2.65581 35.7767 2.24919C35.8549 1.84256 36.2485 1.57595 36.6552 1.65416C42.2684 2.73411 46.5148 7.6763 46.5148 13.6026C46.5148 18.9864 43.0105 23.5579 38.1605 25.1595ZM31.7939 3.24342C27.1377 4.38873 23.6801 8.59514 23.6801 13.6026C23.6801 18.7979 27.402 23.131 32.3228 24.0777C32.7293 24.1559 32.9959 24.5495 32.9177 24.9561C32.8395 25.3627 32.4459 25.6293 32.0393 25.5511C26.426 24.4712 22.1797 19.529 22.1797 13.6026C22.1797 7.93232 26.0671 3.16296 31.3196 1.81556L30.5997 1.39993C30.2411 1.19296 30.1181 0.733734 30.3251 0.375127C30.5322 0.0165206 30.9913 -0.106516 31.3499 0.100546L33.6936 1.45357C34.0524 1.66082 34.1754 2.11958 33.9681 2.47847L32.6151 4.82208C32.408 5.18059 31.9488 5.30372 31.5903 5.09666C31.2317 4.8896 31.1087 4.43037 31.3156 4.07185C31.3156 4.07185 31.5531 3.66064 31.7939 3.24342ZM3.30406 31.9397C3.33547 31.9798 3.38874 32.0447 3.43282 32.0834C3.59158 32.223 3.80165 32.3462 4.0269 32.4434C4.27204 32.5493 4.53621 32.6246 4.78012 32.6438C5.11144 32.6698 5.38612 32.9107 5.45523 33.2359C5.52425 33.5609 5.37121 33.8927 5.07909 34.0512C4.63964 34.2895 4.20161 34.5791 3.89983 34.8944C3.81749 34.9804 3.7465 35.067 3.69474 35.1558C3.66604 35.205 3.63294 35.2487 3.63913 35.2977C3.64644 35.3566 3.70768 35.3928 3.7721 35.4425C4.38026 35.8939 4.90288 36.7159 4.92464 39.0639C4.92482 39.0782 4.92454 39.0925 4.92379 39.1067C4.9116 39.3621 5.07477 39.5021 5.35001 39.5807C5.95104 39.7521 6.86387 39.7065 8.08917 39.495C10.3947 38.9769 12.2204 39.1931 13.575 40.0544C14.9442 40.9249 15.8716 42.4725 16.2773 44.7444C16.3501 45.1519 16.0783 45.542 15.6707 45.6147C15.2631 45.6876 14.8731 45.4157 14.8002 45.0081C14.4847 43.2413 13.8348 41.9976 12.7699 41.3205C11.694 40.6365 10.2356 40.5481 8.40248 40.9625C8.39011 40.9653 8.37773 40.9678 8.36526 40.9699C6.83067 41.2362 5.68836 41.2375 4.93852 41.0236C4.4218 40.8761 4.05166 40.6271 3.80493 40.3138C3.54226 39.9804 3.40431 39.5647 3.42409 39.0581C3.41519 38.1973 3.34654 37.6076 3.21506 37.1925C3.12907 36.9208 3.02235 36.7539 2.87559 36.6456C2.87109 36.6423 2.86668 36.639 2.86227 36.6356C2.37631 36.2599 2.17985 35.8378 2.14421 35.4274C2.10989 35.0311 2.23462 34.6178 2.51295 34.222C2.65483 34.0204 2.8423 33.8199 3.05967 33.627C2.65812 33.4042 2.31395 33.1304 2.10305 32.8473C1.77698 32.4099 1.70018 31.9419 1.86579 31.5119C1.98151 31.1074 2.04959 30.7739 2.06732 30.4955C2.09132 30.1193 1.9983 29.9065 1.75025 29.7762C0.810598 29.3126 0.286285 28.7419 0.0937589 28.1532C-0.117804 27.5064 0.0148917 26.7712 0.633076 25.9819C0.645361 25.9662 0.658302 25.951 0.671806 25.9363C1.60265 24.9255 2.34115 23.9047 2.88356 22.8596C2.88403 22.8589 2.8845 22.858 2.88487 22.8572C3.3426 21.9833 3.50878 21.1147 3.41003 20.1316C3.35339 19.584 3.32807 19.0301 3.32807 18.4637C3.32807 9.34124 10.7194 1.94403 19.8417 1.94403C21.6377 1.94403 23.3665 2.23052 24.9851 2.76009C25.3785 2.88885 25.5935 3.31291 25.4647 3.7064C25.336 4.09999 24.912 4.31493 24.5184 4.18617C23.0468 3.70462 21.4748 3.44448 19.8417 3.44448C11.5481 3.44448 4.82851 10.17 4.82851 18.4637C4.82851 18.9783 4.85121 19.4815 4.90269 19.979C4.90279 19.9798 4.90279 19.9804 4.90288 19.9812C5.03239 21.2691 4.81417 22.4071 4.21483 23.552C3.61962 24.6982 2.81473 25.8209 1.79611 26.9305C1.57658 27.2141 1.44313 27.4522 1.51984 27.6866C1.6169 27.9834 1.94531 28.2002 2.42001 28.4335C2.42452 28.4357 2.42892 28.4379 2.43333 28.4402C2.77393 28.6161 3.0367 28.8384 3.22735 29.12C3.59411 29.6617 3.7164 30.5024 3.30406 31.9397ZM32.2143 26.985C32.4493 26.6441 32.9169 26.5581 33.2578 26.7931C33.5987 27.0281 33.6846 27.4957 33.4496 27.8366C33.1383 28.2882 32.8051 28.7235 32.4517 29.141L32.4503 29.1425C31.795 29.9122 31.436 30.7443 31.3269 31.7481L31.3268 31.749C30.9132 35.5053 31.9403 39.8919 34.229 44.5451C34.4118 44.9167 34.2585 45.3667 33.8869 45.5495C33.5154 45.7321 33.0653 45.5789 32.8827 45.2074C30.4479 40.2573 29.3955 35.5816 29.8352 31.5856C29.9784 30.2703 30.4484 29.1798 31.3067 28.1711C31.6282 27.7915 31.9312 27.3956 32.2143 26.985ZM25.2337 13.0444C28.4728 10.1358 31.6199 8.74021 34.6475 8.75297C37.6952 8.76591 40.6532 10.1989 43.4934 13.0756C43.7819 13.3677 43.7819 13.8376 43.4934 14.1297C40.6532 17.0064 37.6952 18.4394 34.6475 18.4523C31.6199 18.4651 28.4728 17.0695 25.2337 14.1609C25.0752 14.0186 24.9847 13.8157 24.9847 13.6026C24.9847 13.3896 25.0752 13.1867 25.2337 13.0444ZM31.7268 10.7387C30.1426 11.2664 28.5289 12.223 26.8796 13.6026C28.5289 14.9823 30.1426 15.9389 31.7268 16.4666C30.9513 15.7565 30.4647 14.7359 30.4647 13.6026C30.4647 12.4694 30.9513 11.4488 31.7268 10.7387ZM36.7137 16.68C38.4789 16.2213 40.1996 15.1859 41.8856 13.6026C40.1996 12.0194 38.4789 10.984 36.7137 10.5253C37.6354 11.2355 38.2298 12.3502 38.2298 13.6026C38.2298 14.8551 37.6354 15.9698 36.7137 16.68ZM34.3473 11.2205C33.0325 11.2205 31.9651 12.2879 31.9651 13.6026C31.9651 14.9174 33.0325 15.9847 34.3473 15.9847C35.6619 15.9847 36.7293 14.9174 36.7293 13.6026C36.7293 12.2879 35.6619 11.2205 34.3473 11.2205Z" fill="black"/>
</svg>
