<svg width="58" height="45" viewBox="0 0 58 45" fill="none" xmlns="http://www.w3.org/2000/svg">
<path d="M49.4795 27.2617V21.4992C49.4795 9.92015 40.0594 0.5 28.4803 0.5C16.9012 0.5 7.48014 9.92015 7.48014 21.4992V27.272C3.50403 28.0741 0.5 31.5945 0.5 35.8031C0.5 40.6029 4.40514 44.5071 9.20393 44.5071H13.0745C13.59 44.5071 14.0083 44.0887 14.0083 43.5733V28.0321C14.0083 27.5166 13.59 27.0983 13.0745 27.0983H9.3468V21.4983C9.3468 10.9492 17.9293 2.36666 28.4794 2.36666C39.0294 2.36666 47.611 10.9492 47.611 21.4983V27.0983H43.9524C43.4369 27.0983 43.0186 27.5166 43.0186 28.0321V43.5733C43.0186 44.0887 43.4369 44.5071 43.9524 44.5071H47.823C52.6227 44.5071 56.5269 40.6019 56.5269 35.8031C56.5269 31.5702 53.4893 28.0377 49.4795 27.2617ZM12.1407 42.6404H9.20393C5.43419 42.6404 2.36759 39.5738 2.36759 35.8041C2.36759 32.0343 5.43419 28.9678 9.20393 28.9678H12.1407V42.6404ZM47.823 42.6404H44.8862V28.9668H47.823C51.5927 28.9668 54.6593 32.0334 54.6593 35.8031C54.6593 39.5729 51.5927 42.6404 47.823 42.6404Z" fill="black" stroke="black"/>
<path d="M33.2959 30.5571C30.8699 30.5571 28.8967 32.3789 28.8967 34.6181C28.8967 36.8574 30.8708 38.6792 33.2959 38.6792C35.7209 38.6792 37.6959 36.8574 37.6959 34.6181V20.8474C37.6959 20.5552 37.5586 20.2797 37.3252 20.1032C37.0917 19.9258 36.7883 19.8688 36.5081 19.9491L25.452 23.0764C25.0495 23.1903 24.7722 23.5573 24.7722 23.9747V34.4351C24.055 33.9664 23.1838 33.6843 22.2397 33.6843C19.8137 33.6843 17.8406 35.5062 17.8406 37.7454C17.8406 39.9847 19.8146 41.8065 22.2397 41.8065C24.6648 41.8065 26.6397 39.9847 26.6397 37.7454V24.6816L35.8283 22.0828V31.3088C35.1112 30.84 34.2399 30.5571 33.2959 30.5571ZM22.2397 39.938C20.8437 39.938 19.7082 38.9538 19.7082 37.7445C19.7082 36.5352 20.8437 35.551 22.2397 35.551C23.6357 35.551 24.7722 36.5352 24.7722 37.7445C24.7722 38.9538 23.6357 39.938 22.2397 39.938ZM33.2959 36.8107C31.8998 36.8107 30.7643 35.8265 30.7643 34.6172C30.7643 33.4079 31.8998 32.4237 33.2959 32.4237C34.6919 32.4237 35.8283 33.4079 35.8283 34.6172C35.8283 35.8265 34.6919 36.8107 33.2959 36.8107Z" fill="black" stroke="black"/>
</svg>
