<svg width="37" height="42" viewBox="0 0 37 42" fill="none" xmlns="http://www.w3.org/2000/svg">
<path d="M17.667 36.847C17.817 37.0671 18.0662 37.1989 18.3327 37.1989C18.5991 37.1989 18.8483 37.0671 18.9983 36.847L27.8226 23.8963L28.1201 23.4606C30.1565 20.4818 31.9151 17.9091 31.9151 13.5824C31.9151 6.09306 25.8221 0 18.3327 0C10.8432 0 4.75018 6.09306 4.75018 13.5825C4.75018 17.891 6.42033 20.3418 8.53488 23.4446L17.667 36.847ZM18.3327 1.61103C24.9338 1.61103 30.3041 6.98138 30.3041 13.5825C30.3041 17.4112 28.8301 19.5673 26.7901 22.5515L26.4913 22.9892L18.3327 34.9629L9.89145 22.5744L9.86624 22.5374C7.83143 19.5516 6.36121 17.3942 6.36121 13.5826C6.36121 6.98138 11.7316 1.61103 18.3327 1.61103Z" fill="black"/>
<path d="M18.3327 18.8953C21.2621 18.8953 23.6455 16.512 23.6455 13.5824C23.6455 10.6528 21.2621 8.26965 18.3327 8.26965C15.4032 8.26965 13.0198 10.653 13.0198 13.5825C13.0198 16.512 15.4032 18.8953 18.3327 18.8953ZM18.3327 9.88068C20.3738 9.88068 22.0345 11.5413 22.0345 13.5825C22.0345 15.6237 20.3738 17.2843 18.3327 17.2843C16.2915 17.2843 14.6308 15.6237 14.6308 13.5825C14.6308 11.5413 16.2915 9.88068 18.3327 9.88068Z" fill="black"/>
<path d="M33.836 33.1678C32.287 32.5022 30.0867 31.9439 27.4731 31.5534C27.0334 31.4876 26.6232 31.791 26.5574 32.231C26.4918 32.671 26.7951 33.081 27.2351 33.1467C29.7138 33.5171 31.7763 34.0362 33.2001 34.648C34.5687 35.2361 35.0545 35.7887 35.0545 36.0832C35.0545 36.4891 34.1094 37.4914 30.5322 38.3799C27.2833 39.1868 22.9507 39.6312 18.3327 39.6312C13.7145 39.6312 9.38205 39.1868 6.13325 38.3799C2.55613 37.4914 1.61094 36.489 1.61094 36.0832C1.61094 35.7886 2.09659 35.2359 3.46532 34.6478C4.88914 34.0361 6.95173 33.5169 9.43046 33.1466C9.87043 33.0809 10.1739 32.6709 10.1081 32.2309C10.0424 31.7909 9.63297 31.4877 9.19243 31.5532C6.57878 31.9437 4.37844 32.502 2.82936 33.1676C0.951874 33.9744 0 34.9552 0 36.0831C0 37.6977 1.93283 38.9964 5.74492 39.9433C9.11703 40.781 13.5875 41.2423 18.3327 41.2423C23.0779 41.2423 27.5483 40.7809 30.9205 39.9434C34.7325 38.9965 36.6654 37.6978 36.6654 36.0832C36.6654 34.9554 35.7135 33.9745 33.836 33.1678Z" fill="black"/>
</svg>
