<svg width="52" height="52" viewBox="0 0 52 52" fill="none" xmlns="http://www.w3.org/2000/svg">
<path d="M50.3374 26.6777C49.897 26.6624 49.5184 26.9892 49.493 27.4298C49.4867 27.538 49.4742 27.646 49.4571 27.8034C49.4083 28.2422 49.7264 28.6157 50.1652 28.6644C50.1936 28.6676 50.2221 28.6691 50.2499 28.6691C50.6542 28.6691 51.0047 28.3475 51.0508 27.9372C51.0668 27.7943 51.0817 27.6581 51.0895 27.5219C51.1149 27.081 50.778 26.7031 50.3374 26.6777Z" fill="black"/>
<path d="M25.5812 51.1625C37.3839 51.1625 47.5948 43.1742 50.4122 31.7362C50.5177 31.3075 50.2557 30.8743 49.8271 30.7685C49.3982 30.6635 48.9653 30.9247 48.8595 31.3536C46.2188 42.0754 36.6461 49.5637 25.5812 49.5637C12.3574 49.5637 1.5988 38.8051 1.5988 25.5812C1.5988 12.3574 12.3574 1.5988 25.5812 1.5988C38.1255 1.5988 48.6327 11.385 49.5019 23.8782C49.5324 24.3185 49.9188 24.6479 50.3549 24.6202C50.7952 24.5897 51.1278 24.2076 51.0969 23.7673C50.1698 10.44 38.9621 0 25.5812 0C11.4756 0 0 11.4756 0 25.5812C0 39.6869 11.4756 51.1625 25.5812 51.1625Z" fill="black"/>
<path d="M38.1314 16.5816L26.0095 8.97268C25.7495 8.80956 25.4193 8.80956 25.1593 8.97268L13.0373 16.5815C12.8332 16.7095 12.663 16.9662 12.663 17.2588V33.897C12.663 34.1722 12.8043 34.4278 13.0373 34.5743L25.1593 42.1831C25.4081 42.3392 25.7566 42.3417 26.0095 42.1831L38.1315 34.5743C38.3645 34.4278 38.5058 34.1722 38.5058 33.897V17.2588C38.5058 16.9687 38.3342 16.7088 38.1314 16.5816ZM25.5844 10.5938L36.2026 17.2587L25.5844 23.9239L14.9662 17.2587L25.5844 10.5938ZM14.2618 18.7047L24.7849 25.31V40.0602L14.2618 33.4551V18.7047ZM26.3838 40.0602V25.31L36.9069 18.7047V33.4552L26.3838 40.0602Z" fill="black"/>
</svg>
