<svg width="40" height="46" viewBox="0 0 40 46" fill="none" xmlns="http://www.w3.org/2000/svg">
<path d="M4.07209 13.8452H16.2884C16.5044 13.8452 16.7115 13.7594 16.8643 13.6066C17.017 13.4539 17.1028 13.2467 17.1028 13.0307C17.1028 12.8147 17.017 12.6076 16.8643 12.4549C16.7115 12.3021 16.5044 12.2163 16.2884 12.2163H4.07209C3.85608 12.2163 3.64893 12.3021 3.49619 12.4549C3.34345 12.6076 3.25765 12.8147 3.25765 13.0307C3.25765 13.2467 3.34345 13.4539 3.49619 13.6066C3.64893 13.7594 3.85608 13.8452 4.07209 13.8452Z" fill="black"/>
<path d="M18.7885 19.546C18.7885 19.33 18.7027 19.1228 18.5499 18.9701C18.3972 18.8174 18.19 18.7316 17.974 18.7316H4.07209C3.85608 18.7316 3.64893 18.8174 3.49619 18.9701C3.34345 19.1228 3.25765 19.33 3.25765 19.546C3.25765 19.762 3.34345 19.9692 3.49619 20.1219C3.64893 20.2746 3.85608 20.3604 4.07209 20.3604H17.9741C18.1901 20.3604 18.3972 20.2746 18.5499 20.1219C18.7027 19.9692 18.7885 19.762 18.7885 19.546Z" fill="black"/>
<path d="M12.2815 25.247H4.07209C3.85608 25.247 3.64893 25.3328 3.49619 25.4856C3.34345 25.6383 3.25765 25.8454 3.25765 26.0614C3.25765 26.2774 3.34345 26.4846 3.49619 26.6373C3.64893 26.7901 3.85608 26.8759 4.07209 26.8759H12.2815C12.4975 26.8759 12.7046 26.7901 12.8574 26.6373C13.0101 26.4846 13.0959 26.2774 13.0959 26.0614C13.0959 25.8454 13.0101 25.6383 12.8574 25.4856C12.7046 25.3328 12.4975 25.247 12.2815 25.247Z" fill="black"/>
<path d="M4.07209 33.3911H11.5323C11.7473 33.3896 11.953 33.3031 12.1045 33.1506C12.2559 32.998 12.341 32.7917 12.341 32.5767C12.341 32.3617 12.2559 32.1554 12.1045 32.0029C11.953 31.8503 11.7473 31.7638 11.5323 31.7623H4.07209C3.96465 31.7615 3.85813 31.782 3.75865 31.8226C3.65917 31.8632 3.56871 31.9231 3.49247 31.9988C3.41623 32.0745 3.35573 32.1645 3.31444 32.2637C3.27315 32.3629 3.25189 32.4693 3.25189 32.5767C3.25189 32.6841 3.27315 32.7905 3.31444 32.8897C3.35573 32.9889 3.41623 33.0789 3.49247 33.1546C3.56871 33.2303 3.65917 33.2902 3.75865 33.3308C3.85813 33.3714 3.96465 33.3919 4.07209 33.3911Z" fill="black"/>
<path d="M4.07209 39.9065H14.5128C14.6202 39.9073 14.7267 39.8868 14.8262 39.8462C14.9257 39.8056 15.0162 39.7457 15.0924 39.67C15.1686 39.5943 15.2291 39.5043 15.2704 39.4051C15.3117 39.3059 15.333 39.1995 15.333 39.0921C15.333 38.9846 15.3117 38.8783 15.2704 38.7791C15.2291 38.6799 15.1686 38.5899 15.0924 38.5142C15.0162 38.4385 14.9257 38.3786 14.8262 38.338C14.7267 38.2974 14.6202 38.2769 14.5128 38.2777H4.07209C3.96465 38.2769 3.85813 38.2974 3.75865 38.338C3.65917 38.3786 3.56871 38.4385 3.49247 38.5142C3.41623 38.5899 3.35573 38.6799 3.31444 38.7791C3.27315 38.8783 3.25189 38.9846 3.25189 39.0921C3.25189 39.1995 3.27315 39.3059 3.31444 39.4051C3.35573 39.5043 3.41623 39.5943 3.49247 39.67C3.56871 39.7457 3.65917 39.8056 3.75865 39.8462C3.85813 39.8868 3.96465 39.9073 4.07209 39.9065Z" fill="black"/>
<path d="M30.0102 43.4545C29.5828 43.7958 29.0516 43.9807 28.5046 43.9786H4.07209C3.42432 43.9779 2.80327 43.7203 2.34523 43.2622C1.88718 42.8042 1.62954 42.1831 1.62883 41.5353V4.0721C1.62955 3.42433 1.8872 2.8033 2.34524 2.34526C2.80329 1.88723 3.42432 1.62959 4.07209 1.62888H19.546C19.9778 1.62971 20.3916 1.8016 20.6969 2.10689C21.0022 2.41218 21.1741 2.82601 21.1749 3.25776V7.32985C21.1761 8.40944 21.6056 9.44446 22.369 10.2078C23.1324 10.9712 24.1674 11.4007 25.247 11.4019H29.319C29.7508 11.4028 30.1646 11.5746 30.4699 11.8799C30.7752 12.1852 30.9471 12.5991 30.9479 13.0308V20.3848C30.9471 20.4923 30.9676 20.5988 31.0082 20.6983C31.0488 20.7977 31.1087 20.8882 31.1844 20.9644C31.2601 21.0407 31.3501 21.1012 31.4493 21.1425C31.5485 21.1838 31.6549 21.205 31.7623 21.205C31.8698 21.205 31.9761 21.1838 32.0753 21.1425C32.1745 21.1012 32.2645 21.0407 32.3402 20.9644C32.4159 20.8882 32.4758 20.7977 32.5164 20.6983C32.557 20.5988 32.5775 20.4923 32.5767 20.3848V13.0307C32.5777 12.6028 32.4937 12.179 32.3298 11.7838C32.1658 11.3886 31.9251 11.0298 31.6215 10.7282L21.8485 0.955197C21.547 0.651641 21.1882 0.410915 20.793 0.246956C20.3977 0.0829975 19.9739 -0.000938247 19.546 7.91078e-06H4.07209C2.9925 0.00127746 1.95748 0.430708 1.19409 1.1941C0.4307 1.95749 0.00126955 2.9925 0 4.0721V41.5353C0.00126955 42.6149 0.4307 43.65 1.19409 44.4133C1.95748 45.1767 2.9925 45.6062 4.07209 45.6074H28.5046C29.4187 45.6064 30.3058 45.2974 31.0227 44.7302C31.1064 44.6637 31.1763 44.5814 31.2282 44.4879C31.2802 44.3944 31.3132 44.2916 31.3254 44.1854C31.3376 44.0792 31.3288 43.9716 31.2995 43.8687C31.2701 43.7659 31.2208 43.6699 31.1543 43.5861C31.0878 43.5023 31.0055 43.4325 30.912 43.3805C30.8185 43.3286 30.7157 43.2956 30.6095 43.2833C30.5033 43.2711 30.3957 43.2799 30.2928 43.3093C30.19 43.3387 30.094 43.388 30.0102 43.4545ZM22.8037 4.21367L28.3631 9.77302H25.247C24.5992 9.77232 23.9781 9.51468 23.5201 9.05663C23.0621 8.59858 22.8044 7.97754 22.8037 7.32977V4.21367Z" fill="black"/>
<path d="M38.3428 41.2503C38.3428 41.2503 34.4173 37.3248 33.1142 36.0217C34.0779 34.4241 34.5876 32.5938 34.5884 30.728C34.5876 28.6771 33.9787 26.6724 32.8387 24.9674C31.6988 23.2624 30.0789 21.9337 28.1839 21.1492C26.2889 20.3647 24.2039 20.1596 22.1924 20.56C20.1809 20.9603 18.3332 21.948 16.8829 23.3982C15.4327 24.8485 14.445 26.6961 14.0446 28.7077C13.6443 30.7192 13.8494 32.8042 14.6338 34.6992C15.4183 36.5942 16.7471 38.2141 18.452 39.3541C20.157 40.494 22.1617 41.1029 24.2126 41.1037C26.0785 41.1029 27.9087 40.5933 29.5064 39.6296L34.735 44.8581C34.9717 45.0957 35.253 45.2843 35.5627 45.413C35.8724 45.5418 36.2044 45.6082 36.5398 45.6085C36.8752 45.6088 37.2074 45.5429 37.5173 45.4147C37.8272 45.2865 38.1088 45.0984 38.346 44.8613C38.5831 44.6241 38.7712 44.3425 38.8994 44.0326C39.0276 43.7227 39.0935 43.3905 39.0932 43.0551C39.0929 42.7197 39.0265 42.3877 38.8977 42.078C38.769 41.7683 38.5804 41.487 38.3428 41.2503ZM24.2126 39.4749C22.4838 39.4741 20.7941 38.9607 19.357 37.9997C17.9198 37.0388 16.7999 35.6733 16.1387 34.0759C15.4775 32.4786 15.3047 30.721 15.6421 29.0255C15.9796 27.3299 16.8122 25.7725 18.0347 24.55C19.2571 23.3276 20.8145 22.495 22.5101 22.1575C24.2057 21.82 25.9632 21.9928 27.5606 22.6541C29.1579 23.3153 30.5234 24.4352 31.4844 25.8723C32.4454 27.3095 32.9587 28.9992 32.9595 30.728C32.9581 33.0474 32.0362 35.2714 30.3961 36.9115C28.756 38.5515 26.532 39.4735 24.2126 39.4749ZM37.1945 43.7099C37.0197 43.8821 36.7842 43.9786 36.5389 43.9786C36.2935 43.9786 36.058 43.8821 35.8832 43.7099C35.8832 43.7099 32.2429 40.0613 30.8583 38.6849C31.3313 38.2852 31.7699 37.8466 32.1696 37.3737C33.155 38.3673 37.1945 42.3986 37.1945 42.3986C37.3667 42.5734 37.4633 42.8089 37.4633 43.0543C37.4632 43.2996 37.3667 43.5351 37.1945 43.7099Z" fill="black"/>
<path d="M25.5011 34.8991H25.0939V29.1982C25.0939 29.0912 25.0728 28.9853 25.0319 28.8865C24.991 28.7877 24.931 28.6979 24.8554 28.6222C24.7797 28.5466 24.69 28.4866 24.5911 28.4457C24.4923 28.4048 24.3864 28.3837 24.2794 28.3837H23.0578C22.9503 28.383 22.8438 28.4035 22.7443 28.4441C22.6448 28.4847 22.5544 28.5445 22.4781 28.6202C22.4019 28.6959 22.3414 28.786 22.3001 28.8852C22.2588 28.9844 22.2376 29.0907 22.2376 29.1982C22.2376 29.3056 22.2588 29.412 22.3001 29.5112C22.3414 29.6104 22.4019 29.7004 22.4781 29.7761C22.5544 29.8518 22.6448 29.9117 22.7443 29.9522C22.8438 29.9928 22.9503 30.0133 23.0578 30.0126H23.465V34.8991H23.0578C22.9503 34.8983 22.8438 34.9188 22.7443 34.9594C22.6448 35 22.5544 35.0599 22.4781 35.1356C22.4019 35.2113 22.3414 35.3013 22.3001 35.4005C22.2588 35.4997 22.2376 35.6061 22.2376 35.7135C22.2376 35.8209 22.2588 35.9273 22.3001 36.0265C22.3414 36.1257 22.4019 36.2157 22.4781 36.2914C22.5544 36.3671 22.6448 36.427 22.7443 36.4676C22.8438 36.5082 22.9503 36.5287 23.0578 36.5279H25.501C25.716 36.5264 25.9217 36.4399 26.0732 36.2874C26.2247 36.1348 26.3097 35.9285 26.3097 35.7135C26.3097 35.4985 26.2247 35.2922 26.0732 35.1397C25.9217 34.9871 25.7161 34.9006 25.5011 34.8991Z" fill="black"/>
<path d="M24.2776 26.9571C24.8399 26.9571 25.2957 26.5013 25.2957 25.9391C25.2957 25.3768 24.8399 24.921 24.2776 24.921C23.7154 24.921 23.2596 25.3768 23.2596 25.9391C23.2596 26.5013 23.7154 26.9571 24.2776 26.9571Z" fill="black"/>
</svg>
