<svg width="49" height="49" viewBox="0 0 49 49" fill="none" xmlns="http://www.w3.org/2000/svg">
<path d="M13.9787 27.8687L11.0165 30.8308C10.5785 31.2689 10.5785 31.9855 11.0165 32.4226L11.2979 32.7049L15.4128 36.8198L15.6952 37.1012C16.1323 37.5392 16.8489 37.5392 17.2869 37.1012L20.249 34.1391" stroke="black" stroke-width="1.5" stroke-miterlimit="10" stroke-linecap="round" stroke-linejoin="round"/>
<path d="M11.5487 17.1733C11.9013 13.1067 13.6356 9.13466 16.7507 6.01955C23.7657 -0.99548 35.1268 -1.00814 42.1264 5.99141C49.126 12.991 49.1134 24.352 42.0983 31.3671C35.0831 38.3823 23.7221 38.3948 16.7225 31.3953C13.6661 28.3389 11.9467 24.451 11.5636 20.4563" stroke="black" stroke-width="1.5" stroke-miterlimit="10" stroke-linecap="round" stroke-linejoin="round"/>
<path d="M40.5818 9.85744C45.0038 15.4328 44.6296 23.5699 39.4654 28.7342C33.9077 34.2919 24.9067 34.3019 19.3614 28.7565C13.8161 23.2111 13.826 14.2103 19.3838 8.65261C24.5481 3.4883 32.6852 3.11415 38.2605 7.53614" stroke="black" stroke-width="1.5" stroke-miterlimit="10" stroke-linecap="round" stroke-linejoin="round"/>
<path d="M36.3513 11.4978C38.2095 15.6982 37.4826 20.7651 34.173 24.3026" stroke="black" stroke-width="1.5" stroke-miterlimit="10" stroke-linecap="round" stroke-linejoin="round"/>
<path d="M31.8161 22.5128C35.2697 19.0591 35.2759 13.4761 31.8299 10.0301C31.6607 9.86098 31.4866 9.70021 31.3077 9.54779" stroke="black" stroke-width="1.5" stroke-miterlimit="10" stroke-linecap="round" stroke-linejoin="round"/>
<path d="M21.4254 12.1221C23.7278 9.8196 27.4498 9.81548 29.7472 12.1129C32.0446 14.4102 32.0404 18.1322 29.738 20.4347" stroke="black" stroke-width="1.5" stroke-miterlimit="10" stroke-linecap="round" stroke-linejoin="round"/>
<path d="M27.6598 18.3565C28.811 17.2053 28.813 15.3443 27.6644 14.1956C26.5158 13.047 24.6547 13.0491 23.5035 14.2002" stroke="black" stroke-width="1.5" stroke-miterlimit="10" stroke-linecap="round" stroke-linejoin="round"/>
<path d="M23.5035 14.2002C20.0498 17.6538 20.0436 23.2368 23.4897 26.6829C26.9357 30.1289 32.5187 30.1226 35.9723 26.6691" stroke="black" stroke-width="1.5" stroke-miterlimit="10" stroke-linecap="round" stroke-linejoin="round"/>
<path d="M31.4066 26.076C29.4046 26.6711 27.1518 26.1795 25.5724 24.6001C23.2751 22.3028 23.2793 18.5807 25.5816 16.2783" stroke="black" stroke-width="1.5" stroke-miterlimit="10" stroke-linecap="round" stroke-linejoin="round"/>
<path d="M27.6598 18.3565C26.5086 19.5077 26.5066 21.3687 27.6552 22.5174C28.8039 23.666 30.6649 23.6639 31.8161 22.5128" stroke="black" stroke-width="1.5" stroke-miterlimit="10" stroke-linecap="round" stroke-linejoin="round"/>
<path d="M9.27473 44.9673L7.72453 46.5175C6.65646 47.5856 4.97983 47.6567 3.99871 46.6756L1.44225 44.1191C0.461129 43.138 0.532228 41.4613 1.6003 40.3933L3.15049 38.8431L9.27473 44.9673Z" stroke="black" stroke-width="1.5" stroke-miterlimit="10" stroke-linecap="round" stroke-linejoin="round"/>
<path d="M11.4465 40.7858L8.26997 43.9624" stroke="black" stroke-width="1.5" stroke-miterlimit="10" stroke-linecap="round" stroke-linejoin="round"/>
<path d="M15.413 36.8194L13.7678 38.4646" stroke="black" stroke-width="1.5" stroke-miterlimit="10" stroke-linecap="round" stroke-linejoin="round"/>
<path d="M4.15535 39.8478L11.2984 32.7048" stroke="black" stroke-width="1.5" stroke-miterlimit="10" stroke-linecap="round" stroke-linejoin="round"/>
<path d="M11.3502 36.7676L8.16472 39.953" stroke="black" stroke-width="1.5" stroke-miterlimit="10" stroke-linecap="round" stroke-linejoin="round"/>
<circle cx="37.8063" cy="24.291" r="0.703482" fill="black"/>
<circle cx="39.1556" cy="21.9893" r="0.703482" fill="black"/>
<circle cx="28.9171" cy="8.25872" r="0.703482" fill="black"/>
</svg>
