<svg width="43" height="47" viewBox="0 0 43 47" fill="none" xmlns="http://www.w3.org/2000/svg">
<path d="M36.6813 46.6853H5.55777C4.0843 46.6835 2.67168 46.0974 1.62978 45.0555C0.587881 44.0136 0.00176499 42.601 0 41.1275V5.55777C0.00176499 4.0843 0.587881 2.67168 1.62978 1.62978C2.67168 0.587881 4.0843 0.00176499 5.55777 0H36.6813C38.1547 0.00176499 39.5674 0.587881 40.6093 1.62978C41.6512 2.67168 42.2373 4.0843 42.239 5.55777V41.1275C42.2373 42.601 41.6512 44.0136 40.6093 45.0555C39.5674 46.0974 38.1547 46.6835 36.6813 46.6853ZM5.55777 2.22311C4.67336 2.22311 3.82518 2.57444 3.19981 3.19981C2.57444 3.82518 2.22311 4.67336 2.22311 5.55777V41.1275C2.22311 42.0119 2.57444 42.8601 3.19981 43.4855C3.82518 44.1108 4.67336 44.4622 5.55777 44.4622H36.6813C37.5657 44.4622 38.4139 44.1108 39.0392 43.4855C39.6646 42.8601 40.0159 42.0119 40.0159 41.1275V5.55777C40.0159 4.67336 39.6646 3.82518 39.0392 3.19981C38.4139 2.57444 37.5657 2.22311 36.6813 2.22311H5.55777Z" fill="black"/>
<path d="M24.4542 11.1155H7.78087C7.48606 11.1155 7.20334 10.9984 6.99488 10.7899C6.78642 10.5815 6.66931 10.2988 6.66931 10.0039C6.66931 9.70915 6.78642 9.42642 6.99488 9.21796C7.20334 9.00951 7.48606 8.8924 7.78087 8.8924H24.4542C24.749 8.8924 25.0317 9.00951 25.2402 9.21796C25.4486 9.42642 25.5657 9.70915 25.5657 10.0039C25.5657 10.2988 25.4486 10.5815 25.2402 10.7899C25.0317 10.9984 24.749 11.1155 24.4542 11.1155Z" fill="black"/>
<path d="M15.5617 27.7889H7.78087C7.48606 27.7889 7.20333 27.6718 6.99488 27.4633C6.78642 27.2549 6.66931 26.9722 6.66931 26.6773C6.66931 26.3825 6.78642 26.0998 6.99488 25.8914C7.20333 25.6829 7.48606 25.5658 7.78087 25.5658H15.5617C15.8565 25.5658 16.1393 25.6829 16.3477 25.8914C16.5562 26.0998 16.6733 26.3825 16.6733 26.6773C16.6733 26.9722 16.5562 27.2549 16.3477 27.4633C16.1393 27.6718 15.8565 27.7889 15.5617 27.7889Z" fill="black"/>
<path d="M34.4582 27.7889H18.8964C18.6016 27.7889 18.3189 27.6718 18.1104 27.4633C17.902 27.2549 17.7849 26.9722 17.7849 26.6773C17.7849 26.3825 17.902 26.0998 18.1104 25.8914C18.3189 25.6829 18.6016 25.5658 18.8964 25.5658H34.4582C34.753 25.5658 35.0357 25.6829 35.2441 25.8914C35.4526 26.0998 35.5697 26.3825 35.5697 26.6773C35.5697 26.9722 35.4526 27.2549 35.2441 27.4633C35.0357 27.6718 34.753 27.7889 34.4582 27.7889Z" fill="black"/>
<path d="M22.2311 33.3466H7.78087C7.48606 33.3466 7.20334 33.2295 6.99488 33.0211C6.78642 32.8126 6.66931 32.5299 6.66931 32.2351C6.66931 31.9403 6.78642 31.6576 6.99488 31.4491C7.20334 31.2406 7.48606 31.1235 7.78087 31.1235H22.2311C22.5259 31.1235 22.8086 31.2406 23.0171 31.4491C23.2255 31.6576 23.3426 31.9403 23.3426 32.2351C23.3426 32.5299 23.2255 32.8126 23.0171 33.0211C22.8086 33.2295 22.5259 33.3466 22.2311 33.3466Z" fill="black"/>
<path d="M34.4581 33.3466H25.5657C25.2709 33.3466 24.9882 33.2295 24.7797 33.0211C24.5713 32.8126 24.4542 32.5299 24.4542 32.2351C24.4542 31.9403 24.5713 31.6576 24.7797 31.4491C24.9882 31.2406 25.2709 31.1235 25.5657 31.1235H34.4581C34.7529 31.1235 35.0357 31.2406 35.2441 31.4491C35.4526 31.6576 35.5697 31.9403 35.5697 32.2351C35.5697 32.5299 35.4526 32.8126 35.2441 33.0211C35.0357 33.2295 34.7529 33.3466 34.4581 33.3466Z" fill="black"/>
<path d="M13.3386 16.6734H7.78087C7.48606 16.6734 7.20334 16.5563 6.99488 16.3478C6.78642 16.1393 6.66931 15.8566 6.66931 15.5618C6.66931 15.267 6.78642 14.9843 6.99488 14.7758C7.20334 14.5674 7.48606 14.4503 7.78087 14.4503H13.3386C13.6334 14.4503 13.9162 14.5674 14.1246 14.7758C14.3331 14.9843 14.4502 15.267 14.4502 15.5618C14.4502 15.8566 14.3331 16.1393 14.1246 16.3478C13.9162 16.5563 13.6334 16.6734 13.3386 16.6734Z" fill="black"/>
<path d="M34.4582 16.6734H16.6733C16.3785 16.6734 16.0958 16.5563 15.8873 16.3478C15.6789 16.1393 15.5618 15.8566 15.5618 15.5618C15.5618 15.267 15.6789 14.9843 15.8873 14.7758C16.0958 14.5674 16.3785 14.4503 16.6733 14.4503H34.4582C34.753 14.4503 35.0357 14.5674 35.2442 14.7758C35.4526 14.9843 35.5697 15.267 35.5697 15.5618C35.5697 15.8566 35.4526 16.1393 35.2442 16.3478C35.0357 16.5563 34.753 16.6734 34.4582 16.6734Z" fill="black"/>
<path d="M26.6773 22.2311H7.78087C7.48606 22.2311 7.20334 22.114 6.99488 21.9055C6.78642 21.6971 6.66931 21.4144 6.66931 21.1195C6.66931 20.8247 6.78642 20.542 6.99488 20.3336C7.20334 20.1251 7.48606 20.008 7.78087 20.008H26.6773C26.9721 20.008 27.2548 20.1251 27.4633 20.3336C27.6717 20.542 27.7888 20.8247 27.7888 21.1195C27.7888 21.4144 27.6717 21.6971 27.4633 21.9055C27.2548 22.114 26.9721 22.2311 26.6773 22.2311Z" fill="black"/>
<path d="M34.4582 22.2311H30.012C29.7172 22.2311 29.4344 22.114 29.226 21.9055C29.0175 21.6971 28.9004 21.4144 28.9004 21.1195C28.9004 20.8247 29.0175 20.542 29.226 20.3336C29.4344 20.1251 29.7172 20.008 30.012 20.008H34.4582C34.753 20.008 35.0357 20.1251 35.2442 20.3336C35.4526 20.542 35.5697 20.8247 35.5697 21.1195C35.5697 21.4144 35.4526 21.6971 35.2442 21.9055C35.0357 22.114 34.753 22.2311 34.4582 22.2311Z" fill="black"/>
<path d="M17.7848 38.9044H7.78087C7.48606 38.9044 7.20333 38.7873 6.99488 38.5788C6.78642 38.3704 6.66931 38.0876 6.66931 37.7928C6.66931 37.498 6.78642 37.2153 6.99488 37.0068C7.20333 36.7984 7.48606 36.6813 7.78087 36.6813H17.7848C18.0797 36.6813 18.3624 36.7984 18.5708 37.0068C18.7793 37.2153 18.8964 37.498 18.8964 37.7928C18.8964 38.0876 18.7793 38.3704 18.5708 38.5788C18.3624 38.7873 18.0797 38.9044 17.7848 38.9044Z" fill="black"/>
<path d="M34.4582 38.9044H21.1195C20.8247 38.9044 20.542 38.7873 20.3335 38.5788C20.1251 38.3704 20.008 38.0876 20.008 37.7928C20.008 37.498 20.1251 37.2153 20.3335 37.0068C20.542 36.7984 20.8247 36.6813 21.1195 36.6813H34.4582C34.753 36.6813 35.0357 36.7984 35.2442 37.0068C35.4526 37.2153 35.5697 37.498 35.5697 37.7928C35.5697 38.0876 35.4526 38.3704 35.2442 38.5788C35.0357 38.7873 34.753 38.9044 34.4582 38.9044Z" fill="black"/>
</svg>
