<svg width="39" height="39" viewBox="0 0 39 39" fill="none" xmlns="http://www.w3.org/2000/svg">
<mask id="mask0_32_389" style="mask-type:luminance" maskUnits="userSpaceOnUse" x="0" y="0" width="39" height="39">
<path d="M0 0H38.9892V38.9892H0V0Z" fill="white"/>
</mask>
<g mask="url(#mask0_32_389)">
<path d="M19.4946 21.0176C16.1356 21.0176 13.4025 18.2846 13.4025 14.9256C13.4025 11.5665 16.1356 8.83349 19.4946 8.83349C22.8536 8.83349 25.5866 11.5665 25.5866 14.9256C25.5866 18.2846 22.8536 21.0176 19.4946 21.0176Z" stroke="black" stroke-width="2" stroke-miterlimit="10" stroke-linecap="round" stroke-linejoin="round"/>
<path d="M8.1215 34.4179C8.12227 34.408 8.12303 34.3981 8.12455 34.3882C8.67664 28.5946 13.5563 24.0637 19.4946 24.0637C25.4328 24.0637 30.3118 28.5939 30.8654 34.3874" stroke="black" stroke-width="2" stroke-miterlimit="10" stroke-linecap="round" stroke-linejoin="round"/>
<path d="M34.2678 7.00586C34.2678 7.42644 33.9268 7.76736 33.5063 7.76736C33.0858 7.76736 32.7448 7.42644 32.7448 7.00586C32.7448 6.58528 33.0858 6.24435 33.5063 6.24435C33.9268 6.24435 34.2678 6.58528 34.2678 7.00586Z" fill="black"/>
<path d="M35.5183 9.77827C37.2378 12.6102 38.2277 15.9356 38.2277 19.4945C38.2277 25.5706 35.3423 30.9666 30.8654 34.3873V34.388C27.7135 36.7975 23.7727 38.2276 19.4946 38.2276C15.2172 38.2276 11.2764 36.7975 8.12459 34.388C3.64761 30.9674 0.761499 25.5713 0.761499 19.4945C0.761499 9.14104 9.1396 0.761414 19.4946 0.761414C23.8253 0.761414 27.8108 2.22731 30.982 4.69064" stroke="black" stroke-width="2" stroke-miterlimit="10" stroke-linecap="round" stroke-linejoin="round"/>
</g>
</svg>
