<svg width="47" height="50" viewBox="0 0 47 50" fill="none" xmlns="http://www.w3.org/2000/svg">
<path d="M44.8354 19.9931H14.3534L43.6875 11.0248C44.5053 10.7748 44.9655 9.90916 44.7156 9.0913L42.2711 1.09574C42.1511 0.703023 41.8798 0.374081 41.5173 0.181303C41.1547 -0.0115726 40.7301 -0.0524122 40.3377 0.0676872H40.3376L1.09567 12.0651C0.702859 12.1852 0.374013 12.4563 0.181234 12.819C-0.011544 13.1817 -0.0523836 13.6059 0.067619 13.9986L2.44454 21.7729V44.9458C2.44454 47.4842 4.50984 49.5495 7.04829 49.5495H41.7799C44.3185 49.5495 46.3838 47.4842 46.3838 44.9458V21.5415C46.3838 20.6864 45.6905 19.9931 44.8354 19.9931ZM20.4186 9.39586L27.9854 7.08242L32.9882 11.0575L25.4215 13.3708L20.4186 9.39586ZM21.8267 14.47L14.26 16.7834L9.25711 12.8083L16.8239 10.4948L21.8267 14.47ZM5.66226 13.9074L10.6652 17.8825L5.02092 19.6081L3.48179 14.5741L5.66226 13.9074ZM36.5832 9.95852L31.5803 5.98343L39.7624 3.48196L41.3014 8.51606L36.5832 9.95852ZM43.2869 44.9458C43.2869 45.7767 42.611 46.4527 41.7799 46.4527H7.04829C6.21737 46.4527 5.54138 45.7767 5.54138 44.9458V23.0899H43.2869V44.9458ZM18.8747 41.6146C19.1144 41.7529 19.3816 41.8221 19.649 41.8221C19.9163 41.8221 20.1835 41.7529 20.4232 41.6146L29.9535 36.1123C30.4325 35.8357 30.7277 35.3245 30.7277 34.7714C30.7277 34.2181 30.4325 33.707 29.9535 33.4304L20.4232 27.9281C19.944 27.6516 19.3539 27.6515 18.8747 27.9281C18.3957 28.2047 18.1005 28.716 18.1005 29.2691V40.2738C18.1005 40.8268 18.3956 41.3379 18.8747 41.6146ZM21.1974 31.9508L26.0824 34.7713L21.1974 37.5917V31.9508Z" fill="black"/>
</svg>
